<?xml version="1.0" encoding="utf-8"?>
<svg fill="#009688" height="48" viewBox="0 0 48 48" width="48" xmlns="http://www.w3.org/2000/svg">
  <path d="M 24 4.096 C 13.009 4.096 4.096 13.009 4.096 24 C 4.096 34.991 13.009 43.904 24 43.904 C 25.836 43.904 27.317 42.422 27.317 40.586 C 27.317 39.724 26.997 38.95 26.455 38.364 C 25.935 37.778 25.625 37.015 25.625 36.163 C 25.625 34.328 27.107 32.846 28.943 32.846 L 32.846 32.846 C 38.95 32.846 43.904 27.892 43.904 21.788 C 43.904 12.014 34.991 4.096 24 4.096 Z M 11.837 24 C 10.001 24 8.519 22.518 8.519 20.683 C 8.519 18.847 10.001 17.365 11.837 17.365 C 13.672 17.365 15.154 18.847 15.154 20.683 C 15.154 22.518 13.672 24 11.837 24 Z M 18.471 15.154 C 16.636 15.154 15.154 13.672 15.154 11.837 C 15.154 10.001 16.636 8.519 18.471 8.519 C 20.307 8.519 21.788 10.001 21.788 11.837 C 21.788 13.672 20.307 15.154 18.471 15.154 Z M 29.529 15.154 C 27.693 15.154 26.212 13.672 26.212 11.837 C 26.212 10.001 27.693 8.519 29.529 8.519 C 31.364 8.519 32.846 10.001 32.846 11.837 C 32.846 13.672 31.364 15.154 29.529 15.154 Z M 36.163 24 C 34.328 24 32.846 22.518 32.846 20.683 C 32.846 18.847 34.328 17.365 36.163 17.365 C 37.999 17.365 39.481 18.847 39.481 20.683 C 39.481 22.518 37.999 24 36.163 24 Z" style="fill: rgb(0, 0, 192);"/>
</svg>