<?xml version="1.0" encoding="utf-8"?>
<svg version="1.0" id="Layer_1" xmlns="http://www.w3.org/2000/svg" x="0px" y="0px" width="800px" height="800px" viewBox="0 0 800 800" enable-background="new 0 0 800 800" xmlns:bx="https://boxy-svg.com">
  <defs>
    <bx:export>
      <bx:file format="png" width="64" height="64" path="Crypto-64.png"/>
      <bx:file format="png" path="Crypto.png" width="24" height="24"/>
    </bx:export>
  </defs>
  <g fill="#ff9416" transform="matrix(0.385229, 0, 0, 0.385229, -338.652252, -17.050961)">
    <path d="M1885.9 2120.7 c-0.2 -0.3 -7.8 -0.7 -16.9 -1.1 -86.1 -3.3 -184.3 -21.7 -274.5 -51.3 -181.6 -59.6 -343.4 -168.1 -467.1 -313.3 -74 -86.9 -133.7 -186.5 -175.9 -293.5 -69.6 -176.1 -89.3 -365.6 -57.9 -553.9 32.4 -194.2 119.6 -374.4 252 -521.1 26.4 -29.3 53.2 -55.9 80.5 -80 34 -30 64.3 -53.8 100.9 -79.2 99.3 -68.8 217.7 -122.7 333.5 -151.7 91.1 -22.8 174.4 -32.6 266.7 -31.2 86.9 1.2 169.7 12.8 253.3 35.3 16.7 4.5 49.8 14.5 50.5 15.2 0.3 0.3 1.5 0.7 2.6 0.8 5.9 0.6 75.2 26.7 94.2 35.5 3.7 1.6 8.5 3.8 10.7 4.8 28.4 12.5 61 29 90.3 45.9 7.3 4.2 14.1 8.1 15 8.6 7.7 4.4 16.8 10.1 17 10.7 0.2 0.5 0.8 0.8 1.3 0.8 2.5 0 48.8 31.4 74.9 50.8 29.8 22.2 54.9 43 84.5 70.2 17.8 16.3 58.8 58.5 72.5 74.5 2.4 2.8 4.6 5.2 4.9 5.5 0.7 0.6 6.6 7.5 20.3 24 29.5 35.4 65.5 86.8 91.1 130 54 91.2 94.4 191 117.7 290.4 20.3 86.9 29.2 169.8 27.6 257.1 -0.3 19.3 -0.8 36.1 -1 37.5 -0.2 1.4 -0.7 7.7 -1.1 14 -2.1 39.1 -10.2 97.5 -19.6 142.5 -26.5 125.7 -79.4 251.1 -151.9 359.6 -13.8 20.7 -18 26.5 -34.4 48.4 -70.7 94.4 -161.1 179.1 -260.1 244 -156.3 102.4 -332.1 159.9 -518 169.4 -16.6 0.8 -82.8 1.4 -83.6 0.8z m15.1 -400.4 c16.7 -60.4 30.5 -110 30.6 -110.2 0.7 -0.8 18.4 2.2 18.4 3.1 0 0.5 0.5 0.6 1 0.3 1.3 -0.8 19 1.5 19 2.4 0 0.4 1.6 0.5 3.5 0.3 1.9 -0.2 3.5 0 3.5 0.5 0 0.5 1.6 0.7 3.5 0.5 2.7 -0.3 3.5 0 3.5 1.1 0 0.9 -0.8 1.8 -1.7 2 -1 0.3 0 0.5 2.2 0.5 2.2 0 3.2 -0.2 2.2 -0.5 -0.9 -0.2 -1.5 -0.9 -1.2 -1.4 0.7 -1.1 6.5 -1.2 6.5 -0.1 0 0.4 1.8 0.6 4 0.4 3.1 -0.3 4 -0.1 4 1.1 0 0.9 -0.8 1.8 -1.7 2 -1 0.3 0 0.5 2.2 0.5 2.2 0 3.2 -0.2 2.2 -0.5 -2.6 -0.7 -1 -2.3 2.4 -2.3 3.2 0 4.1 2.5 1.2 3.3 -1 0.3 0 0.5 2.2 0.5 2.2 0 3.2 -0.2 2.2 -0.5 -2.8 -0.7 -0.9 -2.3 2.9 -2.3 3.6 0 4.9 2.5 1.7 3.3 -1 0.3 0.2 0.5 2.7 0.5 2.5 0 3.7 -0.2 2.7 -0.5 -2.8 -0.7 -0.9 -2.3 2.9 -2.3 3.6 0 4.9 2.5 1.7 3.3 -1 0.3 0.2 0.5 2.7 0.5 2.5 0 3.7 -0.2 2.7 -0.5 -2.8 -0.7 -0.9 -2.3 2.9 -2.3 3.6 0 4.9 2.5 1.7 3.3 -1 0.3 0.7 0.5 3.7 0.5 3 0 4.7 -0.2 3.7 -0.5 -2.8 -0.7 -0.9 -2.3 2.9 -2.3 3.6 0 4.9 2.5 1.7 3.3 -1 0.3 1.1 0.5 4.7 0.5 3.6 0 5.7 -0.2 4.7 -0.5 -3 -0.8 -0.8 -2.3 3.4 -2.3 4.1 0 5.7 2.4 2.2 3.3 -1 0.3 2.3 0.5 7.2 0.5 5 0 8.2 -0.2 7.2 -0.5 -3.4 -0.9 -0.5 -2.3 4.9 -2.3 4 0 5.4 0.4 5.4 1.4 0 0.8 -0.8 1.7 -1.7 1.9 -1 0.3 7 0.5 17.7 0.5 10.7 0 18.7 -0.2 17.8 -0.5 -1 -0.2 -1.8 -1.1 -1.8 -1.9 0 -1 1.4 -1.4 5.4 -1.4 5.4 0 8.3 1.4 4.9 2.3 -1 0.3 1.6 0.5 5.7 0.5 4.1 0 6.7 -0.2 5.8 -0.5 -3.6 -0.9 -2 -3.3 2.1 -3.3 4.2 0 6.4 1.5 3.4 2.3 -1 0.3 0.7 0.5 3.7 0.5 3 0 4.7 -0.2 3.8 -0.5 -3.3 -0.8 -2 -3.3 1.6 -3.3 3.8 0 5.7 1.6 2.9 2.3 -1 0.3 0 0.5 2.2 0.5 2.2 0 3.2 -0.2 2.3 -0.5 -1 -0.2 -1.8 -1.1 -1.8 -2 0 -1.2 0.9 -1.4 4 -1.1 2.2 0.2 4 0 4 -0.4 0 -0.5 1.1 -0.8 2.4 -0.8 9.7 0 48.9 -9.4 68.1 -16.2 24.2 -8.7 56.2 -26.5 73.5 -40.9 3.3 -2.7 6.1 -4.9 6.3 -4.9 0.4 0 24.7 -24.3 24.7 -24.7 0 -0.1 3 -4 6.7 -8.5 16.5 -20.4 34.8 -52.7 46 -81.3 12.4 -31.5 23.1 -68.5 26.9 -92.6 1 -6.3 2.1 -11.5 2.4 -11.7 0.3 -0.1 0.4 -2 0.2 -4.2 -0.3 -3.1 -0.1 -4 1.1 -4 0.9 0 1.8 0.8 2 1.8 0.3 0.9 0.5 -0.5 0.5 -3.3 0 -2.7 -0.2 -4.2 -0.5 -3.2 -0.8 3 -2.3 0.8 -2.3 -3.4 0 -4.1 2.4 -5.7 3.3 -2.1 0.3 0.9 0.5 -5.5 0.5 -14.3 0 -8.8 -0.2 -15.2 -0.5 -14.2 -0.9 3.5 -3.3 1.9 -3.3 -2.2 0 -4.2 1.5 -6.4 2.3 -3.4 0.3 1 0.5 -0.2 0.5 -2.7 0 -2.5 -0.2 -3.7 -0.5 -2.7 -0.2 0.9 -1.1 1.7 -2 1.7 -1.2 0 -1.4 -0.9 -1.1 -4 0.2 -2.2 0.1 -4.1 -0.2 -4.2 -0.3 -0.2 -1.4 -4.6 -2.4 -9.8 -5.6 -28.7 -20.8 -60.6 -39.7 -83.4 -4.6 -5.5 -26.8 -28.6 -27.5 -28.6 -0.2 0 -4.3 -3.2 -9.1 -7.1 -15.9 -12.7 -41.6 -29.2 -58.5 -37.5 -5.5 -2.7 -5.8 -3 -5.8 -6.4 l0 -3.6 7.8 -1.9 c27.6 -6.4 57.3 -20.4 78.4 -36.8 4.4 -3.4 8.7 -6.6 9.5 -7.2 1.7 -1.2 18.3 -17.7 18.3 -18.2 0 -0.2 2.2 -3 4.9 -6.2 15.6 -18.9 29.7 -46.5 38.5 -75.4 3.6 -11.8 8.1 -32.3 9.2 -41.9 0.4 -3.2 1 -5.8 1.3 -5.8 0.4 0 0.5 -1.6 0.3 -3.5 -0.3 -2.7 0 -3.5 1.1 -3.5 0.9 0 1.8 0.8 2 1.8 0.3 0.9 0.5 -0.1 0.5 -2.3 0 -2.2 -0.2 -3.2 -0.5 -2.2 -0.7 2.6 -2.3 1 -2.3 -2.4 0 -3.2 2.5 -4.1 3.3 -1.1 0.3 0.9 0.5 -0.5 0.5 -3.3 0 -2.7 -0.2 -4.2 -0.5 -3.2 -0.8 3 -2.3 0.8 -2.3 -3.4 0 -4.1 2.4 -5.7 3.3 -2.1 0.3 0.9 0.5 -5 0.5 -13.3 0 -8.2 -0.2 -14.2 -0.5 -13.2 -0.9 3.5 -3.3 1.9 -3.3 -2.2 0 -4.2 1.5 -6.4 2.3 -3.4 0.3 1 0.5 -0.2 0.5 -2.7 0 -2.5 -0.2 -3.7 -0.5 -2.7 -0.2 0.9 -1.1 1.7 -2 1.7 -1.2 0 -1.4 -0.9 -1.1 -4 0.2 -2.2 0.1 -4 -0.2 -4 -0.4 0 -1.4 -4.2 -2.4 -9.2 -3.5 -18.6 -13.4 -44.4 -23.5 -61 -2.3 -3.7 -4.1 -7.2 -4.1 -7.7 0 -0.6 -0.4 -1.1 -1 -1.1 -0.5 0 -1 -0.6 -1 -1.4 0 -0.8 -0.4 -1.6 -0.9 -1.8 -0.5 -0.1 -3.4 -3.7 -6.4 -7.8 -5.6 -7.5 -31.8 -35.8 -34.8 -37.6 -2.7 -1.5 -22.4 -17.6 -22.7 -18.5 -0.2 -0.5 -0.8 -0.9 -1.3 -0.9 -0.5 0 -4.4 -2.4 -8.7 -5.4 -37.3 -26 -105.4 -57.7 -164.9 -76.7 l-7.3 -2.3 0 -4 c0 -2.3 12.3 -51.1 27.4 -108.6 23.6 -90.5 27.1 -104.6 25.7 -105.2 -1.8 -0.9 -119.5 -34.4 -122.5 -35 -1.7 -0.3 -4.3 9.7 -27.6 104.7 -23.6 96.6 -25.9 105 -27.8 105.3 -1.2 0.2 -9 -1.3 -17.4 -3.2 -8.4 -1.9 -26.5 -5.8 -40.3 -8.6 -13.7 -2.7 -31.4 -6.5 -39.2 -8.2 l-14.3 -3.2 0 -4.3 c0 -2.5 11.4 -47.2 27 -105.4 14.9 -55.6 27 -101.6 27 -102.2 0 -0.7 -15.2 -5.1 -38.3 -11.1 -21 -5.4 -48.1 -12.4 -60.3 -15.6 l-22 -5.7 -27.9 106.6 c-15.3 58.6 -28.4 107.2 -29.3 108 -2.1 2.2 -9.8 0.7 -68.7 -13 -9.9 -2.3 -58.9 -14.6 -109 -27.4 -50 -12.8 -91.1 -23 -91.2 -22.6 -1.2 3.7 -35.3 132.4 -35.3 133.4 0 0.8 17.6 5.6 51.8 14.1 28.4 7.1 55.2 14.2 59.4 15.8 22.2 8.4 36.7 26.3 40.9 50.2 1.2 7 0.5 12 -1.1 8.1 -0.6 -1.5 -0.8 -0.8 -0.8 2.5 0 2.5 0.2 3.7 0.5 2.8 0.2 -1 1.1 -1.8 1.9 -1.8 4.5 0 3.4 4.5 -72.1 313.8 -57.1 233.6 -74 301.4 -76.2 305.5 -6.4 11.8 -19 20.5 -33 22.8 -7.4 1.2 -12.8 0.5 -8.8 -1.1 1.5 -0.6 0.8 -0.9 -2.5 -0.9 -3.3 0 -4 0.3 -2.5 0.9 1.9 0.7 1.9 0.8 0.2 1.5 -3.1 1.3 -9.6 -0.1 -58.5 -12.2 -28.7 -7.1 -47.6 -11.3 -48.1 -10.7 -1.3 1.2 -63.5 143.4 -63 143.8 1.2 0.9 181.2 50.2 195.9 53.6 9.6 2.2 23.4 5.4 30.5 7.1 7.2 1.6 18.1 4.3 24.3 6 10.9 3 11.2 3.2 11.2 6 0 1.5 -12.4 51.2 -27.5 110.3 -15.1 59.1 -27.5 107.9 -27.5 108.4 0 0.9 124.7 36.8 125.5 36.1 0.2 -0.2 12.8 -48.3 28.1 -106.9 15.3 -58.6 27.9 -106.7 28 -106.9 0.8 -1 9.4 -1.3 9.4 -0.3 0 0.6 0.7 0.9 1.5 0.6 3.3 -1.3 32.8 4.6 74.3 14.8 28.5 7.1 29.2 7.3 29.2 9.7 0 1.4 -12.4 50 -27.5 108 -15.2 58 -27.4 105.9 -27.2 106.5 0.3 0.6 4.4 2.3 9.3 3.8 4.9 1.6 25.8 8.2 46.4 14.9 20.6 6.6 44.3 14.2 52.5 16.9 8.3 2.6 15.5 4.8 16.1 4.9 0.6 0.1 14.7 -49.2 31.4 -109.6z m-52.4 106.1 c-3.9 -1.3 -7.5 -2.4 -8 -2.3 -1.5 0.1 11.6 4.7 13.4 4.7 0.8 0 -1.6 -1 -5.4 -2.4z m28.3 -5.4 c0 -0.9 -0.4 -0.8 -0.9 0.5 -0.5 1.1 -0.9 2.7 -0.9 3.5 0 0.9 0.4 0.8 0.9 -0.5 0.5 -1.1 0.9 -2.7 0.9 -3.5z m-53.3 -2.6 c-3.9 -1.3 -7.5 -2.4 -8 -2.3 -1.5 0.1 11.6 4.7 13.4 4.7 0.8 0 -1.6 -1 -5.4 -2.4z m56.3 -8.4 c0 -0.9 -0.4 -0.8 -0.9 0.5 -0.5 1.1 -0.9 2.7 -0.9 3.5 0 0.9 0.4 0.8 0.9 -0.5 0.5 -1.1 0.9 -2.7 0.9 -3.5z m-84.3 -0.6 c-3.9 -1.3 -7.5 -2.4 -8 -2.3 -1.5 0.1 11.6 4.7 13.4 4.7 0.8 0 -1.6 -1 -5.4 -2.4z m86.3 -6.4 c0 -0.9 -0.4 -0.8 -0.9 0.5 -0.5 1.1 -0.9 2.7 -0.9 3.5 0 0.9 0.4 0.8 0.9 -0.5 0.5 -1.1 0.9 -2.7 0.9 -3.5z m-114.3 -2.6 c-3.9 -1.3 -7.5 -2.4 -8 -2.3 -1.5 0.1 11.6 4.7 13.4 4.7 0.8 0 -1.6 -1 -5.4 -2.4z m117.3 -8.4 c0 -0.9 -0.4 -0.8 -0.9 0.5 -0.5 1.1 -0.9 2.7 -0.9 3.5 0 0.9 0.4 0.8 0.9 -0.5 0.5 -1.1 0.9 -2.7 0.9 -3.5z m-136.9 2.3 c-0.8 -0.3 -3 -1.2 -4.7 -1.9 -1.8 -0.7 -3.3 -0.9 -3.3 -0.5 0 0.9 5.5 2.9 8 2.9 1.3 0 1.3 0 0 -0.5z m138.9 -9.3 c0 -0.9 -0.4 -0.8 -0.9 0.5 -0.5 1.1 -0.9 2.7 -0.9 3.5 0 0.9 0.4 0.8 0.9 -0.5 0.5 -1.1 0.9 -2.7 0.9 -3.5z m3 -11 c0 -0.9 -0.4 -0.8 -0.9 0.5 -0.5 1.1 -0.9 2.7 -0.9 3.5 0 0.9 0.4 0.8 0.9 -0.5 0.5 -1.1 0.9 -2.7 0.9 -3.5z m-144 -1 c0 -0.9 -0.4 -0.8 -0.9 0.5 -0.5 1.1 -0.9 2.7 -0.9 3.5 0 0.9 0.4 0.8 0.9 -0.5 0.5 -1.1 0.9 -2.7 0.9 -3.5z m149 -17 c0 -0.9 -0.4 -0.8 -0.9 0.5 -0.5 1.1 -0.9 2.7 -0.9 3.5 0 0.9 0.4 0.8 0.9 -0.5 0.5 -1.1 0.9 -2.7 0.9 -3.5z m-143.5 -4 c0.4 -2.4 0.3 -2.9 -0.3 -1.5 -0.4 1.1 -1.1 3.6 -1.5 5.5 -0.4 2.4 -0.3 2.9 0.3 1.5 0.4 -1.1 1.1 -3.6 1.5 -5.5z m-113.5 -5 c0 -0.9 -0.4 -0.8 -0.9 0.5 -0.5 1.1 -0.9 2.7 -0.9 3.5 0 0.9 0.4 0.8 0.9 -0.5 0.5 -1.1 0.9 -2.7 0.9 -3.5z m-87.4 -2 c-1.1 -0.5 -2.7 -0.9 -3.5 -0.9 -0.9 0 -0.8 0.4 0.5 0.9 1.1 0.5 2.7 0.9 3.5 0.9 0.9 0 0.8 -0.4 -0.5 -0.9z m-7 -2 c-1.1 -0.5 -2.7 -0.9 -3.5 -0.9 -0.9 0 -0.8 0.4 0.5 0.9 1.1 0.5 2.7 0.9 3.5 0.9 0.9 0 0.8 -0.4 -0.5 -0.9z m356.4 -5 c0 -0.9 -0.4 -0.8 -0.9 0.5 -0.5 1.1 -0.9 2.7 -0.9 3.5 0 0.9 0.4 0.8 0.9 -0.5 0.5 -1.1 0.9 -2.7 0.9 -3.5z m-363.4 3 c-1.1 -0.5 -2.7 -0.9 -3.5 -0.9 -0.9 0 -0.8 0.4 0.5 0.9 1.1 0.5 2.7 0.9 3.5 0.9 0.9 0 0.8 -0.4 -0.5 -0.9z m-7 -2 c-1.1 -0.5 -2.7 -0.9 -3.5 -0.9 -0.9 0 -0.8 0.4 0.5 0.9 1.1 0.5 2.7 0.9 3.5 0.9 0.9 0 0.8 -0.4 -0.5 -0.9z m-7 -2 c-1.1 -0.5 -2.7 -0.9 -3.5 -0.9 -0.9 0 -0.8 0.4 0.5 0.9 1.1 0.5 2.7 0.9 3.5 0.9 0.9 0 0.8 -0.4 -0.5 -0.9z m-7 -2 c-1.1 -0.5 -2.7 -0.9 -3.5 -0.9 -0.9 0 -0.8 0.4 0.5 0.9 1.1 0.5 2.7 0.9 3.5 0.9 0.9 0 0.8 -0.4 -0.5 -0.9z m241.9 -6 c0.4 -2.4 0.3 -2.9 -0.3 -1.5 -0.4 1.1 -1.1 3.6 -1.5 5.5 -0.4 2.4 -0.3 2.9 0.3 1.5 0.4 -1.1 1.1 -3.6 1.5 -5.5z m-248.9 4 c-1.1 -0.5 -2.7 -0.9 -3.5 -0.9 -0.9 0 -0.8 0.4 0.5 0.9 1.1 0.5 2.7 0.9 3.5 0.9 0.9 0 0.8 -0.4 -0.5 -0.9z m134.9 -7 c0.4 -2.4 0.3 -2.9 -0.3 -1.5 -0.4 1.1 -1.1 3.6 -1.5 5.5 -0.4 2.4 -0.3 2.9 0.3 1.5 0.4 -1.1 1.1 -3.6 1.5 -5.5z m259.5 1 c0 -0.9 -0.4 -0.8 -0.9 0.5 -0.5 1.1 -0.9 2.7 -0.9 3.5 0 0.9 0.4 0.8 0.9 -0.5 0.5 -1.1 0.9 -2.7 0.9 -3.5z m2 -7 c0 -0.9 -0.4 -0.8 -0.9 0.5 -0.5 1.1 -0.9 2.7 -0.9 3.5 0 0.9 0.4 0.8 0.9 -0.5 0.5 -1.1 0.9 -2.7 0.9 -3.5z m3 -11 c0 -0.9 -0.4 -0.8 -0.9 0.5 -0.5 1.1 -0.9 2.7 -0.9 3.5 0 0.9 0.4 0.8 0.9 -0.5 0.5 -1.1 0.9 -2.7 0.9 -3.5z m-400.6 -7 c0.6 -3.3 0.6 -3.3 -0.7 0.5 -0.7 2.2 -1.6 5.6 -1.9 7.5 -0.6 3.3 -0.6 3.3 0.7 -0.5 0.7 -2.2 1.6 -5.6 1.9 -7.5z m256.1 4 c0.4 -2.4 0.3 -2.9 -0.3 -1.5 -0.4 1.1 -1.1 3.6 -1.5 5.5 -0.4 2.4 -0.3 2.9 0.3 1.5 0.4 -1.1 1.1 -3.6 1.5 -5.5z m-114 -3 c0.4 -2.4 0.3 -2.9 -0.3 -1.5 -0.4 1.1 -1.1 3.6 -1.5 5.5 -0.4 2.4 -0.3 2.9 0.3 1.5 0.4 -1.1 1.1 -3.6 1.5 -5.5z m260.5 -1 c0 -0.9 -0.4 -0.8 -0.9 0.5 -0.5 1.1 -0.9 2.7 -0.9 3.5 0 0.9 0.4 0.8 0.9 -0.5 0.5 -1.1 0.9 -2.7 0.9 -3.5z m3 -11 c0 -0.9 -0.4 -0.8 -0.9 0.5 -0.5 1.1 -0.9 2.7 -0.9 3.5 0 0.9 0.4 0.8 0.9 -0.5 0.5 -1.1 0.9 -2.7 0.9 -3.5z m-144 -6 c0 -0.9 -0.4 -0.8 -0.9 0.5 -0.5 1.1 -0.9 2.7 -0.9 3.5 0 0.9 0.4 0.8 0.9 -0.5 0.5 -1.1 0.9 -2.7 0.9 -3.5z m-113.5 -5 c0.4 -2.4 0.3 -2.9 -0.3 -1.5 -0.4 1.1 -1.1 3.6 -1.5 5.5 -0.4 2.4 -0.3 2.9 0.3 1.5 0.4 -1.1 1.1 -3.6 1.5 -5.5z m262.5 -7 c0 -0.9 -0.4 -0.8 -0.9 0.5 -0.5 1.1 -0.9 2.7 -0.9 3.5 0 0.9 0.4 0.8 0.9 -0.5 0.5 -1.1 0.9 -2.7 0.9 -3.5z m-143 -11 c0 -0.9 -0.4 -0.8 -0.9 0.5 -0.5 1.1 -0.9 2.7 -0.9 3.5 0 0.9 0.4 0.8 0.9 -0.5 0.5 -1.1 0.9 -2.7 0.9 -3.5z m146 0 c0 -0.9 -0.4 -0.8 -0.9 0.5 -0.5 1.1 -0.9 2.7 -0.9 3.5 0 0.9 0.4 0.8 0.9 -0.5 0.5 -1.1 0.9 -2.7 0.9 -3.5z m-401.6 -7 c0.6 -3.3 0.6 -3.3 -0.7 0.5 -0.7 2.2 -1.6 5.6 -1.9 7.5 -0.6 3.3 -0.6 3.3 0.7 -0.5 0.7 -2.2 1.6 -5.6 1.9 -7.5z m141.6 4 c0 -0.9 -0.4 -0.8 -0.9 0.5 -0.5 1.1 -0.9 2.7 -0.9 3.5 0 0.9 0.4 0.8 0.9 -0.5 0.5 -1.1 0.9 -2.7 0.9 -3.5z m262 -4 c0 -0.9 -0.4 -0.8 -0.9 0.5 -0.5 1.1 -0.9 2.7 -0.9 3.5 0 0.9 0.4 0.8 0.9 -0.5 0.5 -1.1 0.9 -2.7 0.9 -3.5z m3 -11 c0 -0.9 -0.4 -0.8 -0.9 0.5 -0.5 1.1 -0.9 2.7 -0.9 3.5 0 0.9 0.4 0.8 0.9 -0.5 0.5 -1.1 0.9 -2.7 0.9 -3.5z m-145.5 -3 c0.4 -2.4 0.3 -2.9 -0.3 -1.5 -0.4 1.1 -1.1 3.6 -1.5 5.5 -0.4 2.4 -0.3 2.9 0.3 1.5 0.4 -1.1 1.1 -3.6 1.5 -5.5z m147.5 -4 c0 -0.9 -0.4 -0.8 -0.9 0.5 -0.5 1.1 -0.9 2.7 -0.9 3.5 0 0.9 0.4 0.8 0.9 -0.5 0.5 -1.1 0.9 -2.7 0.9 -3.5z m-261 -1 c0 -0.9 -0.4 -0.8 -0.9 0.5 -0.5 1.1 -0.9 2.7 -0.9 3.5 0 0.9 0.4 0.8 0.9 -0.5 0.5 -1.1 0.9 -2.7 0.9 -3.5z m264 -10 c0 -0.9 -0.4 -0.8 -0.9 0.5 -0.5 1.1 -0.9 2.7 -0.9 3.5 0 0.9 0.4 0.8 0.9 -0.5 0.5 -1.1 0.9 -2.7 0.9 -3.5z m239.9 -0.7 c-1 -0.2 -2.6 -0.2 -3.5 0 -1 0.3 -0.2 0.5 1.7 0.5 1.9 0 2.7 -0.2 1.8 -0.5z m-384.4 -7.3 c0.4 -2.4 0.3 -2.9 -0.3 -1.5 -0.4 1.1 -1.1 3.6 -1.5 5.5 -0.4 2.4 -0.3 2.9 0.3 1.5 0.4 -1.1 1.1 -3.6 1.5 -5.5z m-256.1 -6 c0.6 -3.3 0.6 -3.3 -0.7 0.5 -0.7 2.2 -1.6 5.6 -1.9 7.5 -0.6 3.3 -0.6 3.3 0.7 -0.5 0.7 -2.2 1.6 -5.6 1.9 -7.5z m142.1 3 c0.4 -2.4 0.3 -2.9 -0.3 -1.5 -0.4 1.1 -1.1 3.6 -1.5 5.5 -0.4 2.4 -0.3 2.9 0.3 1.5 0.4 -1.1 1.1 -3.6 1.5 -5.5z m321.4 6.3 c-1 -0.2 -2.6 -0.2 -3.5 0 -1 0.3 -0.2 0.5 1.7 0.5 1.9 0 2.7 -0.2 1.8 -0.5z m-15 -2 c-1 -0.2 -2.6 -0.2 -3.5 0 -1 0.3 -0.2 0.5 1.7 0.5 1.9 0 2.7 -0.2 1.8 -0.5z m229.2 -0.3 c2 -0.6 2.1 -0.8 0.5 -0.8 -1.1 0 -3.1 0.4 -4.5 0.8 -2 0.6 -2.1 0.8 -0.5 0.8 1.1 0 3.1 -0.4 4.5 -0.8z m-236.2 -0.7 c-1 -0.2 -2.6 -0.2 -3.5 0 -1 0.3 -0.2 0.5 1.7 0.5 1.9 0 2.7 -0.2 1.8 -0.5z m247.7 -2.3 c1.3 -0.5 1.4 -0.9 0.5 -0.9 -0.8 0 -2.4 0.4 -3.5 0.9 -1.3 0.5 -1.4 0.9 -0.5 0.9 0.8 0 2.4 -0.4 3.5 -0.9z m-267.7 -0.7 c-1 -0.2 -2.6 -0.2 -3.5 0 -1 0.3 -0.2 0.5 1.7 0.5 1.9 0 2.7 -0.2 1.8 -0.5z m274.7 -1.3 c1.3 -0.5 1.4 -0.9 0.5 -0.9 -0.8 0 -2.4 0.4 -3.5 0.9 -1.3 0.5 -1.4 0.9 -0.5 0.9 0.8 0 2.4 -0.4 3.5 -0.9z m8.9 -2.6 c2.6 -0.9 4.5 -1.8 4.3 -2 -0.2 -0.2 -2.8 0.5 -5.8 1.5 -3 1.1 -4.9 2 -4.3 2 0.6 0.1 3.2 -0.6 5.8 -1.5z m14.6 -5.6 c1 -0.6 0.7 -0.7 -1 -0.2 -1.4 0.3 -3.2 1.1 -4 1.6 -1 0.6 -0.7 0.7 1 0.2 1.4 -0.3 3.2 -1.1 4 -1.6z m6 -2.3 c1.4 -0.8 2.1 -1.4 1.5 -1.4 -0.5 0 -2.1 0.6 -3.5 1.4 -1.4 0.8 -2 1.4 -1.5 1.4 0.6 0 2.1 -0.6 3.5 -1.4z m-463.6 -8.5 c0.4 -2.4 0.3 -2.9 -0.3 -1.5 -0.4 1.1 -1.1 3.6 -1.5 5.5 -0.4 2.4 -0.3 2.9 0.3 1.5 0.4 -1.1 1.1 -3.6 1.5 -5.5z m471.6 5 c1.9 -1.1 3.1 -1.9 2.5 -1.9 -0.5 0 -2.6 0.8 -4.5 1.9 -1.9 1.1 -3 1.9 -2.5 1.9 0.6 0 2.6 -0.8 4.5 -1.9z m-585.6 -8 c0.4 -2.4 0.3 -2.9 -0.3 -1.5 -0.4 1.1 -1.1 3.6 -1.5 5.5 -0.4 2.4 -0.3 2.9 0.3 1.5 0.4 -1.1 1.1 -3.6 1.5 -5.5z m605.6 -2.5 c0 -0.3 -1.8 0.4 -4 1.5 -2.2 1.1 -4 2.3 -4 2.5 0 0.3 1.8 -0.4 4 -1.5 2.2 -1.1 4 -2.3 4 -2.5z m11 -6.7 l2.5 -2 -2.9 1.7 c-1.6 1 -4.4 2.6 -6.3 3.7 -1.8 1.1 -3.3 2.2 -3.3 2.5 0 0.7 7.1 -3.5 10 -5.9z m12 -8.4 c0 -0.3 -2 0.9 -4.5 2.6 -2.5 1.7 -4.5 3.3 -4.5 3.6 0 0.3 2 -0.9 4.5 -2.6 2.5 -1.7 4.5 -3.3 4.5 -3.6z m-765.7 -5.4 c0.6 -3.3 0.6 -3.3 -0.7 0.5 -0.7 2.2 -1.6 5.6 -1.9 7.5 -0.6 3.3 -0.6 3.3 0.7 -0.5 0.7 -2.2 1.6 -5.6 1.9 -7.5z m142.6 2 c0 -0.9 -0.4 -0.8 -0.9 0.5 -0.5 1.1 -0.9 2.7 -0.9 3.5 0 0.9 0.4 0.8 0.9 -0.5 0.5 -1.1 0.9 -2.7 0.9 -3.5z m635.1 -5.6 c14.4 -11.9 34.4 -33.7 44.1 -48.2 4.8 -7.1 2 -3.9 -6.5 7.5 -9.3 12.4 -25.6 29.5 -37.4 39.4 -9.3 7.8 -13.3 11.4 -9.7 8.9 1.1 -0.8 5.4 -4.2 9.5 -7.6z m-586 -6.4 c-1.4 -0.4 -3.4 -0.8 -4.5 -0.8 -1.6 0 -1.5 0.2 0.5 0.8 1.4 0.4 3.4 0.8 4.5 0.8 1.6 0 1.5 -0.2 -0.5 -0.8z m-9.5 -2 c-1.6 -0.4 -3.9 -0.8 -5 -0.8 -1.6 0 -1.5 0.2 0.5 0.8 1.4 0.4 3.6 0.8 5 0.8 2.2 0 2.2 -0.1 -0.5 -0.8z m-26.7 -4.7 c-1 -0.2 -2.6 -0.2 -3.5 0 -1 0.3 -0.2 0.5 1.7 0.5 1.9 0 2.7 -0.2 1.8 -0.5z m-144.5 -26.3 c0.6 -3.3 0.6 -3.3 -0.7 0.5 -0.7 2.2 -1.6 5.6 -1.9 7.5 -0.6 3.3 -0.6 3.3 0.7 -0.5 0.7 -2.2 1.6 -5.6 1.9 -7.5z m819.5 -21.7 c4.9 -7.8 8 -13.3 6.9 -12.2 -0.5 0.4 -6 8.9 -12.4 19.2 -0.2 0.4 -0.2 0.7 0 0.7 0.3 0 2.7 -3.5 5.5 -7.7z m-824.3 1.7 c-1.1 -0.5 -2.7 -0.9 -3.5 -0.9 -0.9 0 -0.8 0.4 0.5 0.9 1.1 0.5 2.7 0.9 3.5 0.9 0.9 0 0.8 -0.4 -0.5 -0.9z m-45.5 -11 c-1.4 -0.4 -3.4 -0.8 -4.5 -0.8 -1.6 0 -1.5 0.2 0.5 0.8 1.4 0.4 3.4 0.8 4.5 0.8 1.6 0 1.5 -0.2 -0.5 -0.8z m884.6 -17.1 c3.6 -7.2 6.4 -13.3 6.2 -13.5 -0.2 -0.2 -3.4 5.7 -7.1 13.1 -3.7 7.4 -6.5 13.5 -6.2 13.5 0.3 0 3.4 -5.9 7.1 -13.1z m-918.1 9.1 c-1.1 -0.5 -2.7 -0.9 -3.5 -0.9 -0.9 0 -0.8 0.4 0.5 0.9 1.1 0.5 2.7 0.9 3.5 0.9 0.9 0 0.8 -0.4 -0.5 -0.9z m-11 -3 c-1.1 -0.5 -2.7 -0.9 -3.5 -0.9 -0.9 0 -0.8 0.4 0.5 0.9 1.1 0.5 2.7 0.9 3.5 0.9 0.9 0 0.8 -0.4 -0.5 -0.9z m-18 -5 c-1.1 -0.5 -2.7 -0.9 -3.5 -0.9 -0.9 0 -0.8 0.4 0.5 0.9 1.1 0.5 2.7 0.9 3.5 0.9 0.9 0 0.8 -0.4 -0.5 -0.9z m-18 -5 c-1.1 -0.5 -2.7 -0.9 -3.5 -0.9 -0.9 0 -0.8 0.4 0.5 0.9 1.1 0.5 2.7 0.9 3.5 0.9 0.9 0 0.8 -0.4 -0.5 -0.9z m-11 -3 c-1.1 -0.5 -2.7 -0.9 -3.5 -0.9 -0.9 0 -0.8 0.4 0.5 0.9 1.1 0.5 2.7 0.9 3.5 0.9 0.9 0 0.8 -0.4 -0.5 -0.9z m-7 -2 c-1.1 -0.5 -2.7 -0.9 -3.5 -0.9 -0.9 0 -0.8 0.4 0.5 0.9 1.1 0.5 2.7 0.9 3.5 0.9 0.9 0 0.8 -0.4 -0.5 -0.9z m-11 -3 c-1.1 -0.5 -2.7 -0.9 -3.5 -0.9 -0.9 0 -0.8 0.4 0.5 0.9 1.1 0.5 2.7 0.9 3.5 0.9 0.9 0 0.8 -0.4 -0.5 -0.9z m-7 -2 c-1.1 -0.5 -2.7 -0.9 -3.5 -0.9 -0.9 0 -0.8 0.4 0.5 0.9 1.1 0.5 2.7 0.9 3.5 0.9 0.9 0 0.8 -0.4 -0.5 -0.9z m1010.4 -6.5 c0 -0.5 -0.6 0.1 -1.4 1.5 -0.8 1.4 -1.4 3 -1.4 3.5 0 0.6 0.6 -0.1 1.4 -1.5 0.8 -1.4 1.4 -2.9 1.4 -3.5z m-1021.4 3.5 c-1.1 -0.5 -2.7 -0.9 -3.5 -0.9 -0.9 0 -0.8 0.4 0.5 0.9 1.1 0.5 2.7 0.9 3.5 0.9 0.9 0 0.8 -0.4 -0.5 -0.9z m-7 -2 c-1.1 -0.5 -2.7 -0.9 -3.5 -0.9 -0.9 0 -0.8 0.4 0.5 0.9 1.1 0.5 2.7 0.9 3.5 0.9 0.9 0 0.8 -0.4 -0.5 -0.9z m-11 -3 c-1.1 -0.5 -2.7 -0.9 -3.5 -0.9 -0.9 0 -0.8 0.4 0.5 0.9 1.1 0.5 2.7 0.9 3.5 0.9 0.9 0 0.8 -0.4 -0.5 -0.9z m1042.9 -6.6 c1.5 -3.7 2.5 -6.8 2.3 -7 -0.2 -0.3 -1.3 1.9 -2.5 4.8 -1.1 2.9 -2.3 6.1 -2.7 7.1 -0.4 0.9 -0.5 1.7 -0.2 1.7 0.3 0 1.7 -3 3.1 -6.6z m-1049.9 4.6 c-1.1 -0.5 -2.7 -0.9 -3.5 -0.9 -0.9 0 -0.8 0.4 0.5 0.9 1.1 0.5 2.7 0.9 3.5 0.9 0.9 0 0.8 -0.4 -0.5 -0.9z m-11 -3 c-1.1 -0.5 -2.7 -0.9 -3.5 -0.9 -0.9 0 -0.8 0.4 0.5 0.9 1.1 0.5 2.7 0.9 3.5 0.9 0.9 0 0.8 -0.4 -0.5 -0.9z m-7 -2 c-1.1 -0.5 -2.7 -0.9 -3.5 -0.9 -0.9 0 -0.8 0.4 0.5 0.9 1.1 0.5 2.7 0.9 3.5 0.9 0.9 0 0.8 -0.4 -0.5 -0.9z m-11 -3 c-1.1 -0.5 -2.7 -0.9 -3.5 -0.9 -0.9 0 -0.8 0.4 0.5 0.9 1.1 0.5 2.7 0.9 3.5 0.9 0.9 0 0.8 -0.4 -0.5 -0.9z m-18 -5 c-1.1 -0.5 -2.7 -0.9 -3.5 -0.9 -0.9 0 -0.8 0.4 0.5 0.9 1.1 0.5 2.7 0.9 3.5 0.9 0.9 0 0.8 -0.4 -0.5 -0.9z m1101.9 -5 c0.5 -1.7 0.4 -2 -0.2 -1 -0.5 0.8 -1.3 2.6 -1.6 4 -0.5 1.7 -0.4 2 0.2 1 0.5 -0.8 1.3 -2.6 1.6 -4z m-1107.5 -8.5 c0 -0.5 -0.6 0.1 -1.4 1.5 -0.8 1.4 -1.4 3 -1.4 3.5 0 0.6 0.6 -0.1 1.4 -1.5 0.8 -1.4 1.4 -2.9 1.4 -3.5z m1114.1 -10 c1.7 -4.9 3 -9.4 2.9 -9.9 0 -0.6 -1.3 2.6 -2.9 7.2 -3.8 11 -4.4 12.8 -3.6 12.1 0.3 -0.3 2 -4.6 3.6 -9.4z m-1110.1 1 c0 -0.5 -0.8 0.6 -1.9 2.5 -1.1 1.9 -1.9 4 -1.9 4.5 0 0.6 0.8 -0.6 1.9 -2.5 1.1 -1.9 1.9 -3.9 1.9 -4.5z m3 -7 c0 -0.5 -0.6 0.1 -1.4 1.5 -0.8 1.4 -1.4 3 -1.4 3.5 0 0.6 0.6 -0.1 1.4 -1.5 0.8 -1.4 1.4 -2.9 1.4 -3.5z m4 -9 c0 -0.5 -0.8 0.6 -1.9 2.5 -1.1 1.9 -1.9 4 -1.9 4.5 0 0.6 0.8 -0.6 1.9 -2.5 1.1 -1.9 1.9 -3.9 1.9 -4.5z m1109 -4.5 c0 -0.9 -0.4 -0.8 -0.9 0.5 -0.5 1.1 -0.9 2.7 -0.9 3.5 0 0.9 0.4 0.8 0.9 -0.5 0.5 -1.1 0.9 -2.7 0.9 -3.5z m-1106 -2.5 c0 -0.5 -0.6 0.1 -1.4 1.5 -0.8 1.4 -1.4 3 -1.4 3.5 0 0.6 0.6 -0.1 1.4 -1.5 0.8 -1.4 1.4 -2.9 1.4 -3.5z m1108 -4.5 c0 -0.9 -0.4 -0.8 -0.9 0.5 -0.5 1.1 -0.9 2.7 -0.9 3.5 0 0.9 0.4 0.8 0.9 -0.5 0.5 -1.1 0.9 -2.7 0.9 -3.5z m-1104 -4.5 c0 -0.5 -0.6 0.1 -1.4 1.5 -0.8 1.4 -1.4 3 -1.4 3.5 0 0.6 0.6 -0.1 1.4 -1.5 0.8 -1.4 1.4 -2.9 1.4 -3.5z m4 -9 c0 -0.5 -0.8 0.6 -1.9 2.5 -1.1 1.9 -1.9 4 -1.9 4.5 0 0.6 0.8 -0.6 1.9 -2.5 1.1 -1.9 1.9 -3.9 1.9 -4.5z m3 -7 c0 -0.5 -0.6 0.1 -1.4 1.5 -0.8 1.4 -1.4 3 -1.4 3.5 0 0.6 0.6 -0.1 1.4 -1.5 0.8 -1.4 1.4 -2.9 1.4 -3.5z m4 -9 c0 -0.5 -0.8 0.6 -1.9 2.5 -1.1 1.9 -1.9 4 -1.9 4.5 0 0.6 0.8 -0.6 1.9 -2.5 1.1 -1.9 1.9 -3.9 1.9 -4.5z m3 -7 c0 -0.5 -0.6 0.1 -1.4 1.5 -0.8 1.4 -1.4 3 -1.4 3.5 0 0.6 0.6 -0.1 1.4 -1.5 0.8 -1.4 1.4 -2.9 1.4 -3.5z m4 -9 c0 -0.5 -0.8 0.6 -1.9 2.5 -1.1 1.9 -1.9 4 -1.9 4.5 0 0.6 0.8 -0.6 1.9 -2.5 1.1 -1.9 1.9 -3.9 1.9 -4.5z m3 -7 c0 -0.5 -0.6 0.1 -1.4 1.5 -0.8 1.4 -1.4 3 -1.4 3.5 0 0.6 0.6 -0.1 1.4 -1.5 0.8 -1.4 1.4 -2.9 1.4 -3.5z m1092.8 0.8 c-0.3 -1 -0.5 -0.2 -0.5 1.7 0 1.9 0.2 2.7 0.5 1.8 0.2 -1 0.2 -2.6 0 -3.5z m-1088.8 -9.8 c0 -0.5 -0.8 0.6 -1.9 2.5 -1.1 1.9 -1.9 4 -1.9 4.5 0 0.6 0.8 -0.6 1.9 -2.5 1.1 -1.9 1.9 -3.9 1.9 -4.5z m3 -7 c0 -0.5 -0.6 0.1 -1.4 1.5 -0.8 1.4 -1.4 3 -1.4 3.5 0 0.6 0.6 -0.1 1.4 -1.5 0.8 -1.4 1.4 -2.9 1.4 -3.5z m4 -9 c0 -0.5 -0.8 0.6 -1.9 2.5 -1.1 1.9 -1.9 4 -1.9 4.5 0 0.6 0.8 -0.6 1.9 -2.5 1.1 -1.9 1.9 -3.9 1.9 -4.5z m3 -7 c0 -0.5 -0.6 0.1 -1.4 1.5 -0.8 1.4 -1.4 3 -1.4 3.5 0 0.6 0.6 -0.1 1.4 -1.5 0.8 -1.4 1.4 -2.9 1.4 -3.5z m69.6 -4.1 c-20.3 -5.1 -37.4 -9.2 -38 -9 -1.2 0.3 70.3 18.4 73 18.4 1.1 0 -14.6 -4.2 -35 -9.4z m84.2 -3 c5.6 -5.8 10.9 -15.6 11.8 -21.9 0.4 -3 0.1 -2.5 -1.3 2.1 -3.1 10.2 -9.1 18.8 -17.7 25.3 -2.4 1.8 -2.5 2 -0.5 1 1.4 -0.7 4.8 -3.6 7.7 -6.5z m-149.8 -1.9 c0 -0.5 -0.6 0.1 -1.4 1.5 -0.8 1.4 -1.4 3 -1.4 3.5 0 0.6 0.6 -0.1 1.4 -1.5 0.8 -1.4 1.4 -2.9 1.4 -3.5z m3 -7 c0 -0.5 -0.6 0.1 -1.4 1.5 -0.8 1.4 -1.4 3 -1.4 3.5 0 0.6 0.6 -0.1 1.4 -1.5 0.8 -1.4 1.4 -2.9 1.4 -3.5z m1071.8 -15.2 c-0.3 -1 -0.5 -0.2 -0.5 1.7 0 1.9 0.2 2.7 0.5 1.8 0.2 -1 0.2 -2.6 0 -3.5z m-4.2 -21.3 c-0.4 -1.7 -0.9 -3 -1.1 -2.7 -0.2 0.2 -0.1 1.8 0.2 3.6 0.4 1.7 0.9 3 1.1 2.7 0.3 -0.2 0.2 -1.9 -0.2 -3.6z m-2.1 -7.4 c-0.3 -1.5 -0.8 -2.5 -1.1 -2.3 -0.2 0.3 -0.1 1.7 0.3 3.1 0.3 1.5 0.8 2.5 1.1 2.3 0.2 -0.3 0.1 -1.7 -0.3 -3.1z m-895.5 -16.6 c-0.1 -0.8 -0.9 1.7 -2 5.5 -1 3.9 -1.8 7.7 -1.8 8.5 0.1 0.8 0.9 -1.6 2 -5.5 1 -3.8 1.8 -7.7 1.8 -8.5z m892 6.1 c-0.6 -1.8 -1.3 -3 -1.5 -2.8 -0.2 0.2 0.1 1.8 0.7 3.6 0.6 1.8 1.3 3 1.5 2.8 0.2 -0.2 -0.1 -1.8 -0.7 -3.6z m-8.3 -19 c-2.6 -5 -4.8 -9.1 -5.1 -9.1 -0.3 0 1.6 4.3 4.2 9.5 2.6 5.2 4.9 9.3 5.1 9.1 0.2 -0.2 -1.7 -4.5 -4.2 -9.5z m-10.4 -18.2 c-10.1 -16 -35.5 -43.2 -51.9 -55.8 -4.6 -3.4 -8.3 -6 -8.3 -5.7 0 0.2 3.9 3.5 8.7 7.2 17.7 13.8 36.4 33.4 47.7 50.2 4.9 7.1 7.6 10.1 3.8 4.1z m-862.3 -13.9 c-0.1 -0.8 -0.9 1.7 -2 5.5 -1 3.9 -1.8 7.7 -1.8 8.5 0.1 0.8 0.9 -1.6 2 -5.5 1 -3.8 1.8 -7.7 1.8 -8.5z m11 -45 c-0.1 -0.8 -0.9 1.7 -2 5.5 -1 3.9 -1.8 7.7 -1.8 8.5 0.1 0.8 0.9 -1.6 2 -5.5 1 -3.8 1.8 -7.7 1.8 -8.5z m790.1 -3.4 c0 -0.3 -1.5 -1.4 -3.2 -2.6 l-3.3 -2.2 3 2.6 c3.1 2.7 3.5 2.9 3.5 2.2z m-17.5 -12.2 c-2.6 -2 -5.5 -3.6 -5.5 -3 0 0.5 6.3 4.6 7 4.6 0.3 -0.1 -0.4 -0.8 -1.5 -1.6z m-7 -4.3 c-1.4 -1.3 -13.2 -7.6 -12.2 -6.6 0.7 0.9 11.8 7.4 12.7 7.5 0.2 0 0 -0.4 -0.5 -0.9z m-13.5 -7.6 c0 -0.2 -2.2 -1.6 -5 -3 -2.7 -1.4 -5 -2.3 -5 -2 0 0.2 2.1 1.6 4.8 2.9 5.3 2.8 5.2 2.8 5.2 2.1z m-741.1 -17.5 c-0.1 -0.8 -0.9 1.7 -2 5.5 -1 3.9 -1.8 7.7 -1.8 8.5 0.1 0.8 0.9 -1.6 2 -5.5 1 -3.8 1.8 -7.7 1.8 -8.5z m743.6 4 c1.3 -0.5 1.4 -0.9 0.5 -0.9 -0.8 0 -2.4 0.4 -3.5 0.9 -1.3 0.5 -1.4 0.9 -0.5 0.9 0.8 0 2.4 -0.4 3.5 -0.9z m22 -7.6 c3.6 -1.5 6.4 -2.8 6.2 -3 -0.3 -0.4 -12.8 4.4 -13.6 5.2 -1 0.9 1.2 0.3 7.4 -2.2z m21 -9.9 c4.4 -2.4 8.9 -5.1 10 -6 1.3 -1.1 0.7 -0.9 -1.5 0.3 -1.9 1.1 -7.3 4.1 -12 6.7 -4.7 2.6 -7.6 4.4 -6.5 4 1.1 -0.3 5.6 -2.6 10 -5z m26 -16.9 c18.7 -14.2 38.4 -36.4 47.9 -54.1 3 -5.6 2.6 -5.1 -6.3 8.4 -12.1 18.4 -26.1 33.1 -44.6 46.9 -5.5 4.1 -10.2 7.7 -10.5 8 -1.2 1.4 6.1 -3.6 13.5 -9.2z m-801.6 -14.6 c-0.1 -0.8 -0.9 1.7 -2 5.5 -1 3.9 -1.8 7.7 -1.8 8.5 0.1 0.8 0.9 -1.6 2 -5.5 1 -3.8 1.8 -7.7 1.8 -8.5z m11 -45 c-0.1 -0.8 -0.9 1.7 -2 5.5 -1 3.9 -1.8 7.7 -1.8 8.5 0.1 0.8 0.9 -1.6 2 -5.5 1 -3.8 1.8 -7.7 1.8 -8.5z m846.7 -9.1 c2.5 -5 4.4 -9.3 4.2 -9.5 -0.2 -0.2 -2.5 3.9 -5.1 9.1 -2.6 5.2 -4.5 9.5 -4.2 9.5 0.3 0 2.5 -4.1 5.1 -9.1z m-835.7 -35.9 c-0.1 -0.8 -0.9 1.7 -2 5.5 -1 3.9 -1.8 7.7 -1.8 8.5 0.1 0.8 0.9 -1.6 2 -5.5 1 -3.8 1.8 -7.7 1.8 -8.5z m846.5 10 c0.5 -1.7 0.4 -2 -0.2 -1 -0.5 0.8 -1.3 2.6 -1.6 4 -0.5 1.7 -0.4 2 0.2 1 0.5 -0.8 1.3 -2.6 1.6 -4z m4.5 -14 c0 -0.9 -0.4 -0.8 -0.9 0.5 -0.5 1.1 -0.9 2.7 -0.9 3.5 0 0.9 0.4 0.8 0.9 -0.5 0.5 -1.1 0.9 -2.7 0.9 -3.5z m2 -7 c0 -0.9 -0.4 -0.8 -0.9 0.5 -0.5 1.1 -0.9 2.7 -0.9 3.5 0 0.9 0.4 0.8 0.9 -0.5 0.5 -1.1 0.9 -2.7 0.9 -3.5z m1.9 -8.5 c0 -1.6 -0.2 -1.5 -0.8 0.5 -0.4 1.4 -0.8 3.4 -0.8 4.5 0 1.6 0.2 1.5 0.8 -0.5 0.4 -1.4 0.8 -3.4 0.8 -4.5z m-843.9 -25.5 c-0.1 -0.8 -0.9 1.7 -2 5.5 -1 3.9 -1.8 7.7 -1.8 8.5 0.1 0.8 0.9 -1.6 2 -5.5 1 -3.8 1.8 -7.7 1.8 -8.5z m849.8 -9.7 c-0.3 -1 -0.5 -0.2 -0.5 1.7 0 1.9 0.2 2.7 0.5 1.8 0.2 -1 0.2 -2.6 0 -3.5z m-838.8 -35.3 c-0.1 -0.8 -0.9 1.7 -2 5.5 -1 3.9 -1.8 7.7 -1.8 8.5 0.1 0.8 0.9 -1.6 2 -5.5 1 -3.8 1.8 -7.7 1.8 -8.5z m839.8 -33.7 c-0.3 -1 -0.5 -0.2 -0.5 1.7 0 1.9 0.2 2.7 0.5 1.8 0.2 -1 0.2 -2.6 0 -3.5z m-828.8 -11.3 c-0.1 -0.8 -0.9 1.7 -2 5.5 -1 3.9 -1.8 7.7 -1.8 8.5 0.1 0.8 0.9 -1.6 2 -5.5 1 -3.8 1.8 -7.7 1.8 -8.5z m823.5 -13.4 c-0.3 -1.5 -0.8 -2.5 -1.1 -2.3 -0.2 0.3 -0.1 1.7 0.3 3.1 0.3 1.5 0.8 2.5 1.1 2.3 0.2 -0.3 0.1 -1.7 -0.3 -3.1z m-812.5 -31.6 c-0.1 -0.8 -0.9 1.7 -2 5.5 -1 3.9 -1.8 7.7 -1.8 8.5 0.1 0.8 0.9 -1.6 2 -5.5 1 -3.8 1.8 -7.7 1.8 -8.5z m803.7 7.3 c-0.8 -1.5 -1.5 -2.5 -1.6 -2.1 0 1.2 2.3 5.8 2.7 5.4 0.3 -0.2 -0.2 -1.7 -1.1 -3.3z m-4.6 -10.2 c-2.8 -5.6 -3.5 -5.2 -0.8 0.4 1.2 2.4 2.3 4.3 2.6 4.1 0.2 -0.2 -0.6 -2.2 -1.8 -4.5z m-4.9 -8.8 c-1.1 -2.1 -2.7 -4.7 -3.6 -5.8 -1.6 -1.9 -1.7 -1.9 -0.3 0.5 0.8 1.4 2.3 4 3.2 5.8 0.9 1.7 1.9 3.2 2.1 3.2 0.3 0 -0.3 -1.7 -1.4 -3.7z m-6.8 -11.4 c-1 -1.7 -2.4 -3.6 -3.2 -4.2 -1.7 -1.4 -1.1 -0.1 2.1 4.6 2.6 3.7 3.3 3.4 1.1 -0.4z m-6.9 -9.6 c-6 -8.2 -16.7 -20.3 -26.3 -29.8 -5.6 -5.5 -10.1 -9.7 -10.1 -9.5 0 0.3 5.8 6.4 12.8 13.5 7 7.2 15.7 16.7 19.2 21.3 3.5 4.5 6.5 8.2 6.8 8.2 0.2 0 -0.8 -1.7 -2.4 -3.7z m-769.5 -12.3 c-0.1 -0.8 -0.9 1.7 -2 5.5 -1 3.9 -1.8 7.7 -1.8 8.5 0.1 0.8 0.9 -1.6 2 -5.5 1 -3.8 1.8 -7.7 1.8 -8.5z m731.6 -28.1 c-1.8 -2.8 -34.8 -27.5 -40.5 -30.3 -2.2 -1.1 0.3 0.8 14.2 10.7 6.8 4.8 15.5 11.4 19.3 14.6 7.4 6.3 8 6.7 7 5z m-720.6 -16.9 c-0.1 -0.8 -0.9 1.7 -2 5.5 -1 3.9 -1.8 7.7 -1.8 8.5 0.1 0.8 0.9 -1.6 2 -5.5 1 -3.8 1.8 -7.7 1.8 -8.5z m664.6 -22.9 c-1.4 -1.3 -13.2 -7.6 -12.2 -6.6 0.7 0.9 11.8 7.4 12.7 7.5 0.2 0 0 -0.4 -0.5 -0.9z m-13.5 -7.6 c0 -0.3 -3.1 -2.1 -7 -4 -3.8 -1.9 -7 -3.3 -7 -3 0 0.4 12.6 7.2 13.8 7.5 0.1 0 0.2 -0.2 0.2 -0.5z m-28 -14.5 c-4.1 -2.1 -7.9 -3.9 -8.5 -3.9 -0.5 0 2.4 1.8 6.5 3.9 4.1 2.1 8 3.9 8.5 3.9 0.6 0 -2.4 -1.8 -6.5 -3.9z m-14 -6.5 c-2.5 -1.3 -4.9 -2.4 -5.5 -2.4 -0.5 0 1 1.1 3.5 2.4 2.5 1.3 5 2.4 5.5 2.4 0.6 0 -1 -1.1 -3.5 -2.4z m-621.9 -4.4 c-2.6 -3.6 -12.6 -12.8 -15.5 -14.2 -1.1 -0.5 -0.7 0 0.9 1.2 1.7 1.2 5.9 5.3 9.5 9 3.6 3.7 6.6 6.8 6.8 6.8 0.2 0.1 -0.6 -1.2 -1.7 -2.8z m612.9 0.4 c-1.4 -0.8 -2.9 -1.4 -3.5 -1.4 -0.5 0 0.1 0.6 1.5 1.4 1.4 0.8 3 1.4 3.5 1.4 0.6 0 -0.1 -0.6 -1.5 -1.4z m-12 -5 c-1.4 -0.8 -2.9 -1.4 -3.5 -1.4 -0.5 0 0.1 0.6 1.5 1.4 1.4 0.8 3 1.4 3.5 1.4 0.6 0 -0.1 -0.6 -1.5 -1.4z m-16 -6.4 c-0.8 -0.5 -2.6 -1.1 -4 -1.5 -2.1 -0.5 -2 -0.3 0.5 0.9 3.2 1.5 6 2 3.5 0.6z m-604.4 -5.6 c-2.3 -1.7 -16.9 -7.5 -18.8 -7.5 -0.7 0.1 2.5 1.5 7.2 3.3 4.7 1.8 9.4 3.8 10.5 4.5 2.8 1.6 3.4 1.4 1.1 -0.3z m588.4 -0.4 c-0.8 -0.5 -2.6 -1.1 -4 -1.5 -2.1 -0.5 -2 -0.3 0.5 0.9 3.2 1.5 6 2 3.5 0.6z m-13 -4.5 c0 -0.6 -9.3 -3.7 -9.7 -3.2 -0.2 0.2 1.5 1.1 3.9 1.9 4.7 1.7 5.8 1.9 5.8 1.3z m-24.3 -8.3 c-1.6 -0.4 -1.8 -1.1 -1.3 -4.1 0.5 -3.5 0.5 -3.5 -0.5 -0.9 -1.3 3.4 -0.6 5.7 1.8 5.6 1.7 -0.1 1.7 -0.2 0 -0.6z m4.7 -27.3 c0.4 -2.4 0.3 -2.9 -0.3 -1.5 -0.4 1.1 -1.1 3.6 -1.5 5.5 -0.4 2.4 -0.3 2.9 0.3 1.5 0.4 -1.1 1.1 -3.6 1.5 -5.5z m-674 -6 c0.4 -2.4 0.3 -2.9 -0.3 -1.5 -0.4 1.1 -1.1 3.6 -1.5 5.5 -0.4 2.4 -0.3 2.9 0.3 1.5 0.4 -1.1 1.1 -3.6 1.5 -5.5z m4 -15 c0.4 -2.4 0.3 -2.9 -0.3 -1.5 -0.4 1.1 -1.1 3.6 -1.5 5.5 -0.4 2.4 -0.3 2.9 0.3 1.5 0.4 -1.1 1.1 -3.6 1.5 -5.5z m676 -2 c0.4 -2.4 0.3 -2.9 -0.3 -1.5 -0.4 1.1 -1.1 3.6 -1.5 5.5 -0.4 2.4 -0.3 2.9 0.3 1.5 0.4 -1.1 1.1 -3.6 1.5 -5.5z m-175.4 -1 c-1.4 -0.4 -3.4 -0.8 -4.5 -0.8 -1.6 0 -1.5 0.2 0.5 0.8 1.4 0.4 3.4 0.8 4.5 0.8 1.6 0 1.5 -0.2 -0.5 -0.8z m39.9 -13 c0 -0.8 -0.7 0.8 -1.5 3.5 -0.7 2.8 -1.3 5.7 -1.3 6.5 0 0.8 0.7 -0.7 1.5 -3.5 0.7 -2.7 1.3 -5.7 1.3 -6.5z m-537 3 c0 -0.9 -0.4 -0.8 -0.9 0.5 -0.5 1.1 -0.9 2.7 -0.9 3.5 0 0.9 0.4 0.8 0.9 -0.5 0.5 -1.1 0.9 -2.7 0.9 -3.5z m448.1 0 c-1.4 -0.4 -3.4 -0.8 -4.5 -0.8 -1.6 0 -1.5 0.2 0.5 0.8 1.4 0.4 3.4 0.8 4.5 0.8 1.6 0 1.5 -0.2 -0.5 -0.8z m-11.5 -2.6 c-2.7 -0.7 -5.7 -1.3 -6.5 -1.3 -2.1 0.1 7 2.7 9.5 2.7 1.1 0 -0.2 -0.6 -3 -1.4z m241.4 -7.4 c0 -0.9 -0.4 -0.8 -0.9 0.5 -0.5 1.1 -0.9 2.7 -0.9 3.5 0 0.9 0.4 0.8 0.9 -0.5 0.5 -1.1 0.9 -2.7 0.9 -3.5z m-674 -5 c0 -0.9 -0.4 -0.8 -0.9 0.5 -0.5 1.1 -0.9 2.7 -0.9 3.5 0 0.9 0.4 0.8 0.9 -0.5 0.5 -1.1 0.9 -2.7 0.9 -3.5z m423 -4 c0 -0.9 -0.4 -0.8 -0.9 0.5 -0.5 1.1 -0.9 2.7 -0.9 3.5 0 0.9 0.4 0.8 0.9 -0.5 0.5 -1.1 0.9 -2.7 0.9 -3.5z m-419 -11 c0 -0.9 -0.4 -0.8 -0.9 0.5 -0.5 1.1 -0.9 2.7 -0.9 3.5 0 0.9 0.4 0.8 0.9 -0.5 0.5 -1.1 0.9 -2.7 0.9 -3.5z m676 -3 c0 -0.9 -0.4 -0.8 -0.9 0.5 -0.5 1.1 -0.9 2.7 -0.9 3.5 0 0.9 0.4 0.8 0.9 -0.5 0.5 -1.1 0.9 -2.7 0.9 -3.5z m-253 -1 c0 -0.9 -0.4 -0.8 -0.9 0.5 -0.5 1.1 -0.9 2.7 -0.9 3.5 0 0.9 0.4 0.8 0.9 -0.5 0.5 -1.1 0.9 -2.7 0.9 -3.5z m-133.5 -6 c0.4 -2.4 0.3 -2.9 -0.3 -1.5 -0.4 1.1 -1.1 3.6 -1.5 5.5 -0.4 2.4 -0.3 2.9 0.3 1.5 0.4 -1.1 1.1 -3.6 1.5 -5.5z m251.5 -12 c-0.1 -0.8 -0.9 1.7 -2 5.5 -1 3.9 -1.8 7.7 -1.8 8.5 0.1 0.8 0.9 -1.6 2 -5.5 1 -3.8 1.8 -7.7 1.8 -8.5z m-537 7 c0 -0.9 -0.4 -0.8 -0.9 0.5 -0.5 1.1 -0.9 2.7 -0.9 3.5 0 0.9 0.4 0.8 0.9 -0.5 0.5 -1.1 0.9 -2.7 0.9 -3.5z m250.1 4 c-3.4 -1.1 -6 -1.1 -3.5 0 1.1 0.5 2.9 0.8 4 0.8 1.6 0 1.5 -0.2 -0.5 -0.8z m172.9 -8 c0 -0.9 -0.4 -0.8 -0.9 0.5 -0.5 1.1 -0.9 2.7 -0.9 3.5 0 0.9 0.4 0.8 0.9 -0.5 0.5 -1.1 0.9 -2.7 0.9 -3.5z m-196.4 2.4 c-2.7 -0.7 -5.4 -1.3 -6 -1.3 -1.7 0.2 6.9 2.7 9 2.7 1.1 0 -0.2 -0.6 -3 -1.4z m450.9 -7.4 c0.4 -2.4 0.3 -2.9 -0.3 -1.5 -0.4 1.1 -1.1 3.6 -1.5 5.5 -0.4 2.4 -0.3 2.9 0.3 1.5 0.4 -1.1 1.1 -3.6 1.5 -5.5z m-465.4 4 c-1.4 -0.4 -3.4 -0.8 -4.5 -0.8 -1.6 0 -1.5 0.2 0.5 0.8 1.4 0.4 3.4 0.8 4.5 0.8 1.6 0 1.5 -0.2 -0.5 -0.8z m-208.1 -10 c0 -0.9 -0.4 -0.8 -0.9 0.5 -0.5 1.1 -0.9 2.7 -0.9 3.5 0 0.9 0.4 0.8 0.9 -0.5 0.5 -1.1 0.9 -2.7 0.9 -3.5z m184 4.6 c-0.7 -0.7 -13.1 -3.7 -13.6 -3.3 -0.2 0.3 2.2 1.1 5.4 2 5.9 1.5 9 2 8.2 1.3z m103.5 -7.6 c0.4 -2.4 0.3 -2.9 -0.3 -1.5 -0.4 1.1 -1.1 3.6 -1.5 5.5 -0.4 2.4 -0.3 2.9 0.3 1.5 0.4 -1.1 1.1 -3.6 1.5 -5.5z m-120.4 3 c-3.4 -1.1 -6 -1.1 -3.5 0 1.1 0.5 2.9 0.8 4 0.8 1.6 0 1.5 -0.2 -0.5 -0.8z m255.9 -4 c0 -0.9 -0.4 -0.8 -0.9 0.5 -0.5 1.1 -0.9 2.7 -0.9 3.5 0 0.9 0.4 0.8 0.9 -0.5 0.5 -1.1 0.9 -2.7 0.9 -3.5z m-282 -2.4 c-0.7 -0.7 -13.1 -3.7 -13.6 -3.3 -0.2 0.3 2.2 1.1 5.4 2 5.9 1.5 9 2 8.2 1.3z m-137 -8.6 c0 -0.9 -0.4 -0.8 -0.9 0.5 -0.5 1.1 -0.9 2.7 -0.9 3.5 0 0.9 0.4 0.8 0.9 -0.5 0.5 -1.1 0.9 -2.7 0.9 -3.5z m675.5 -2 c0.4 -2.4 0.3 -2.9 -0.3 -1.5 -0.4 1.1 -1.1 3.6 -1.5 5.5 -0.4 2.4 -0.3 2.9 0.3 1.5 0.4 -1.1 1.1 -3.6 1.5 -5.5z m-252.5 -2 c0 -0.9 -0.4 -0.8 -0.9 0.5 -0.5 1.1 -0.9 2.7 -0.9 3.5 0 0.9 0.4 0.8 0.9 -0.5 0.5 -1.1 0.9 -2.7 0.9 -3.5z m-329 1.6 c-0.7 -0.7 -13.1 -3.7 -13.6 -3.3 -0.2 0.3 2.2 1.1 5.4 2 5.9 1.5 9 2 8.2 1.3z m195.5 -8.6 c0.4 -2.4 0.3 -2.9 -0.3 -1.5 -0.4 1.1 -1.1 3.6 -1.5 5.5 -0.4 2.4 -0.3 2.9 0.3 1.5 0.4 -1.1 1.1 -3.6 1.5 -5.5z m-285.5 -4 c0 -0.9 -0.4 -0.8 -0.9 0.5 -0.5 1.1 -0.9 2.7 -0.9 3.5 0 0.9 0.4 0.8 0.9 -0.5 0.5 -1.1 0.9 -2.7 0.9 -3.5z m422 0 c0 -0.9 -0.4 -0.8 -0.9 0.5 -0.5 1.1 -0.9 2.7 -0.9 3.5 0 0.9 0.4 0.8 0.9 -0.5 0.5 -1.1 0.9 -2.7 0.9 -3.5z m115 -11 c-0.1 -0.8 -0.9 1.7 -2 5.5 -1 3.9 -1.8 7.7 -1.8 8.5 0.1 0.8 0.9 -1.6 2 -5.5 1 -3.8 1.8 -7.7 1.8 -8.5z m-486 13.6 c-0.7 -0.7 -13.1 -3.7 -13.6 -3.3 -0.2 0.3 2.2 1.1 5.4 2 5.9 1.5 9 2 8.2 1.3z m626 -10.6 c0 -0.9 -0.4 -0.8 -0.9 0.5 -0.5 1.1 -0.9 2.7 -0.9 3.5 0 0.9 0.4 0.8 0.9 -0.5 0.5 -1.1 0.9 -2.7 0.9 -3.5z m-671.6 -0.6 c2.9 0.6 3 0.5 0.8 -0.4 -3.1 -1.3 -5.1 -0.6 -5 1.7 0.1 1.7 0.2 1.7 0.6 0 0.4 -1.4 1.1 -1.7 3.6 -1.3z m421.1 -8.4 c0.4 -2.4 0.3 -2.9 -0.3 -1.5 -0.4 1.1 -1.1 3.6 -1.5 5.5 -0.4 2.4 -0.3 2.9 0.3 1.5 0.4 -1.1 1.1 -3.6 1.5 -5.5z m-135.5 0 c0 -0.9 -0.4 -0.8 -0.9 0.5 -0.5 1.1 -0.9 2.7 -0.9 3.5 0 0.9 0.4 0.8 0.9 -0.5 0.5 -1.1 0.9 -2.7 0.9 -3.5z m139 -13 c0 -0.9 -0.4 -0.8 -0.9 0.5 -0.5 1.1 -0.9 2.7 -0.9 3.5 0 0.9 0.4 0.8 0.9 -0.5 0.5 -1.1 0.9 -2.7 0.9 -3.5z m253 -1 c0 -0.9 -0.4 -0.8 -0.9 0.5 -0.5 1.1 -0.9 2.7 -0.9 3.5 0 0.9 0.4 0.8 0.9 -0.5 0.5 -1.1 0.9 -2.7 0.9 -3.5z m-386.5 -7 c0.4 -2.4 0.3 -2.9 -0.3 -1.5 -0.4 1.1 -1.1 3.6 -1.5 5.5 -0.4 2.4 -0.3 2.9 0.3 1.5 0.4 -1.1 1.1 -3.6 1.5 -5.5z m137.5 -7 c0 -0.9 -0.4 -0.8 -0.9 0.5 -0.5 1.1 -0.9 2.7 -0.9 3.5 0 0.9 0.4 0.8 0.9 -0.5 0.5 -1.1 0.9 -2.7 0.9 -3.5z m115 -15 c-0.1 -0.8 -0.9 1.7 -2 5.5 -1 3.9 -1.8 7.7 -1.8 8.5 0.1 0.8 0.9 -1.6 2 -5.5 1 -3.8 1.8 -7.7 1.8 -8.5z m140 6 c0 -0.9 -0.4 -0.8 -0.9 0.5 -0.5 1.1 -0.9 2.7 -0.9 3.5 0 0.9 0.4 0.8 0.9 -0.5 0.5 -1.1 0.9 -2.7 0.9 -3.5z m-386.5 -7 c0.4 -2.4 0.3 -2.9 -0.3 -1.5 -0.4 1.1 -1.1 3.6 -1.5 5.5 -0.4 2.4 -0.3 2.9 0.3 1.5 0.4 -1.1 1.1 -3.6 1.5 -5.5z m135.5 1 c0 -0.9 -0.4 -0.8 -0.9 0.5 -0.5 1.1 -0.9 2.7 -0.9 3.5 0 0.9 0.4 0.8 0.9 -0.5 0.5 -1.1 0.9 -2.7 0.9 -3.5z m249.6 -8 c-1.1 -0.5 -2.7 -0.9 -3.5 -0.9 -0.9 0 -0.8 0.4 0.5 0.9 1.1 0.5 2.7 0.9 3.5 0.9 0.9 0 0.8 -0.4 -0.5 -0.9z m-245.6 -7 c0 -0.9 -0.4 -0.8 -0.9 0.5 -0.5 1.1 -0.9 2.7 -0.9 3.5 0 0.9 0.4 0.8 0.9 -0.5 0.5 -1.1 0.9 -2.7 0.9 -3.5z m-133.5 -9 c0.4 -2.4 0.3 -2.9 -0.3 -1.5 -0.4 1.1 -1.1 3.6 -1.5 5.5 -0.4 2.4 -0.3 2.9 0.3 1.5 0.4 -1.1 1.1 -3.6 1.5 -5.5z m137.5 -6 c0 -0.9 -0.4 -0.8 -0.9 0.5 -0.5 1.1 -0.9 2.7 -0.9 3.5 0 0.9 0.4 0.8 0.9 -0.5 0.5 -1.1 0.9 -2.7 0.9 -3.5z m117.2 -12.3 c2.7 0.2 3 0 1.4 -0.7 -4 -1.7 -5.4 -1.1 -6.4 2.8 -0.6 2 -1 4.4 -1 5.2 0.1 0.8 0.6 -0.5 1.3 -3 1.2 -4.3 1.4 -4.5 4.7 -4.3z m-248.7 -4.7 c0.4 -2.4 0.3 -2.9 -0.3 -1.5 -0.4 1.1 -1.1 3.6 -1.5 5.5 -0.4 2.4 -0.3 2.9 0.3 1.5 0.4 -1.1 1.1 -3.6 1.5 -5.5z m135.5 2 c0 -0.9 -0.4 -0.8 -0.9 0.5 -0.5 1.1 -0.9 2.7 -0.9 3.5 0 0.9 0.4 0.8 0.9 -0.5 0.5 -1.1 0.9 -2.7 0.9 -3.5z m121.6 4 c-1.1 -0.5 -2.7 -0.9 -3.5 -0.9 -0.9 0 -0.8 0.4 0.5 0.9 1.1 0.5 2.7 0.9 3.5 0.9 0.9 0 0.8 -0.4 -0.5 -0.9z m-117.6 -19 c0 -0.9 -0.4 -0.8 -0.9 0.5 -0.5 1.1 -0.9 2.7 -0.9 3.5 0 0.9 0.4 0.8 0.9 -0.5 0.5 -1.1 0.9 -2.7 0.9 -3.5z m-134 -8 c0 -0.9 -0.4 -0.8 -0.9 0.5 -0.5 1.1 -0.9 2.7 -0.9 3.5 0 0.9 0.4 0.8 0.9 -0.5 0.5 -1.1 0.9 -2.7 0.9 -3.5z m112.6 -5.9 c-1.1 -0.5 -3.6 -1.1 -5.5 -1.4 -3.5 -0.6 -3.4 -0.6 0.5 0.8 4.3 1.4 8.4 1.9 5 0.6z m-27 -7 c-1.1 -0.5 -3.6 -1.1 -5.5 -1.4 -3.5 -0.6 -3.4 -0.6 0.5 0.8 4.3 1.4 8.4 1.9 5 0.6z m-79.6 -10.1 c0 -0.9 -0.4 -0.8 -0.9 0.5 -0.5 1.1 -0.9 2.7 -0.9 3.5 0 0.9 0.4 0.8 0.9 -0.5 0.5 -1.1 0.9 -2.7 0.9 -3.5z m54 3.6 c-0.7 -0.7 -13.1 -3.7 -13.6 -3.3 -0.2 0.3 2.2 1.1 5.4 2 5.9 1.5 9 2 8.2 1.3z m-32.4 -8.5 c-1.1 -0.5 -3.6 -1.1 -5.5 -1.4 -3.5 -0.6 -3.4 -0.6 0.5 0.8 4.3 1.4 8.4 1.9 5 0.6z" style="fill: rgb(0, 123, 255);"/>
    <path d="M1960 1454.6 c0 -0.8 0.8 -1.7 1.8 -1.9 0.9 -0.3 -1.2 -0.5 -4.8 -0.5 -3.6 0 -5.7 0.2 -4.7 0.5 3.1 0.8 0.7 2.3 -3.9 2.3 -3.1 0 -4.4 -0.4 -4.4 -1.4 0 -0.8 0.8 -1.7 1.8 -1.9 0.9 -0.3 -0.3 -0.5 -2.8 -0.5 -2.5 0 -3.7 0.2 -2.7 0.5 3 0.8 0.8 2.3 -3.4 2.3 -4.1 0 -5.7 -2.4 -2.1 -3.3 0.9 -0.3 -0.1 -0.5 -2.3 -0.5 -2.2 0 -3.2 0.2 -2.2 0.5 0.9 0.2 1.5 0.9 1.2 1.4 -0.8 1.2 -8.5 1.2 -8.5 0 0 -0.5 -0.8 -0.7 -1.8 -0.4 -2.3 0.6 -25.8 -2.8 -47.7 -6.8 -23 -4.2 -48.6 -9.8 -84 -18.4 -17 -4.2 -36.7 -9 -43.7 -10.7 -12.4 -2.9 -12.8 -3.1 -12.8 -5.7 0 -2.1 65.5 -274.2 70.1 -291.5 l1 -3.8 4.7 0.5 c5.5 0.6 66.5 14.4 95.7 21.7 38.6 9.5 79.4 22 104.5 32 17.5 6.9 38 16.2 38 17.1 0 0.5 0.7 0.9 1.6 0.9 4.1 0 35.2 18.8 49.3 29.7 11.5 9 25.3 22.9 33 33.2 10.7 14.5 19.7 35.7 21.6 51.3 0.8 6 -0.2 9.8 -1.6 6.2 -0.5 -1.3 -0.7 -0.4 -0.7 2.6 0 2.5 0.2 3.7 0.5 2.8 0.2 -1 1.1 -1.8 1.9 -1.8 1.1 0 1.4 1.9 1.4 9.5 0 7.6 -0.3 9.5 -1.4 9.5 -0.8 0 -1.7 -0.8 -1.9 -1.7 -0.3 -1 -0.5 0.5 -0.5 3.2 0 3.3 0.2 4.3 0.7 3.1 1.4 -3.6 2.4 0.2 1.6 6.2 -2.9 23.3 -15.5 52.8 -28.2 66 -2.4 2.5 -4.3 4.8 -4.3 5.2 0 0.3 -2.6 2.9 -5.9 5.7 -20.7 18.2 -47 29.5 -81.3 34.9 -10.4 1.6 -16.9 1.3 -12.3 -0.6 1.5 -0.7 1 -0.8 -2 -0.8 -2.2 0 -3.2 0.2 -2.2 0.5 0.9 0.2 1.7 1.1 1.7 1.9 0 1 -1.3 1.4 -4.4 1.4 -4.6 0 -7 -1.5 -3.9 -2.3 1 -0.3 -0.9 -0.5 -4.2 -0.5 -3.3 0 -5.2 0.2 -4.2 0.5 0.9 0.2 1.7 1.1 1.7 1.9 0 1.1 -1.6 1.4 -6.9 1.4 -6.6 0 -10.2 -1.3 -6.4 -2.3 1 -0.3 -2.2 -0.5 -7.2 -0.5 -4.9 0 -8.2 0.2 -7.2 0.5 4 1 0 2.3 -7.4 2.3 -6.2 0 -7.9 -0.3 -7.9 -1.4z m-35.2 -5.3 c-1 -0.2 -2.6 -0.2 -3.5 0 -1 0.3 -0.2 0.5 1.7 0.5 1.9 0 2.7 -0.2 1.8 -0.5z m160.2 -15.8 c3.9 -1.9 7 -3.8 7 -4 0 -0.5 -13.9 6.2 -14.9 7.1 -1.3 1.2 1.8 0 7.9 -3.1z m15.3 -9.4 c0.7 -0.8 -0.7 -0.2 -3 1.4 -2.4 1.5 -4.3 3 -4.3 3.2 0 0.7 6.1 -3.1 7.3 -4.6z m-301.3 0.9 c-3.4 -1.1 -6 -1.1 -3.5 0 1.1 0.5 2.9 0.8 4 0.8 1.6 0 1.5 -0.2 -0.5 -0.8z m314.3 -11.9 c-0.2 -0.3 -1.8 1 -3.6 2.9 l-3.2 3.4 3.6 -3 c2 -1.6 3.4 -3.1 3.2 -3.3z m7.6 -7.4 l2.5 -3.2 -3.2 2.9 c-3.3 3.1 -3.7 3.6 -2.4 3.5 0.4 0 1.8 -1.4 3.1 -3.2z m-369.1 -60.7 c0 -0.9 -0.3 -0.7 -0.8 0.5 -0.5 1.1 -0.8 2.9 -0.8 4 0 1.6 0.2 1.5 0.8 -0.5 0.4 -1.4 0.8 -3.2 0.8 -4z m370.5 -100.3 c-1.5 -1.9 -3 -3.2 -3.2 -3 -0.5 0.3 4.9 6.3 5.7 6.3 0.2 0 -0.9 -1.5 -2.5 -3.3z m-8.3 -9.2 c-2.4 -2.5 -4.6 -4.5 -4.9 -4.5 -0.3 0 1.5 2 3.9 4.5 2.4 2.5 4.6 4.5 4.9 4.5 0.3 0 -1.5 -2 -3.9 -4.5z m-6.5 -6.3 c-4.4 -4 -14.7 -12.2 -17.5 -14 l-3.5 -2.3 3.5 2.8 c1.9 1.5 6.5 5.4 10.3 8.6 3.8 3.1 7.2 5.7 7.5 5.7 0.3 0 0.2 -0.4 -0.3 -0.8z m-32.4 -24 c-3.8 -2.7 -10.7 -6.6 -9.6 -5.5 1.2 1.3 10.8 7.3 11.5 7.2 0.3 0 -0.6 -0.8 -1.9 -1.7z m-11.1 -6.7 c0 -0.2 -1.8 -1.4 -4 -2.5 -2.2 -1.1 -4 -1.8 -4 -1.5 0 0.2 1.7 1.3 3.8 2.4 4.2 2.3 4.2 2.3 4.2 1.6z m-13 -7 c0 -0.7 -8.1 -4.7 -8.6 -4.2 -0.3 0.2 1.5 1.4 3.8 2.5 4.9 2.4 4.8 2.4 4.8 1.7z m-19 -9.5 c-1.9 -1.1 -3.9 -1.9 -4.5 -1.9 -0.5 0 0.6 0.8 2.5 1.9 1.9 1.1 4 1.9 4.5 1.9 0.6 0 -0.6 -0.8 -2.5 -1.9z m-8 -3.5 c-1.4 -0.8 -2.9 -1.4 -3.5 -1.4 -0.5 0 0.1 0.6 1.5 1.4 1.4 0.8 3 1.4 3.5 1.4 0.6 0 -0.1 -0.6 -1.5 -1.4z m-29 -11.4 c-0.8 -0.5 -2.6 -1.1 -4 -1.5 -2.1 -0.5 -2 -0.3 0.5 0.9 3.2 1.5 6 2 3.5 0.6z m-196.2 -16.1 c0 -0.9 -0.3 -0.7 -0.8 0.5 -0.5 1.1 -0.8 2.9 -0.8 4 0 1.6 0.2 1.5 0.8 -0.5 0.4 -1.4 0.8 -3.2 0.8 -4z m163.7 5 c-1.1 -0.5 -2.7 -0.9 -3.5 -0.9 -0.9 0 -0.8 0.4 0.5 0.9 1.1 0.5 2.7 0.9 3.5 0.9 0.9 0 0.8 -0.4 -0.5 -0.9z m-42 -12 c-1.1 -0.5 -2.7 -0.9 -3.5 -0.9 -0.9 0 -0.8 0.4 0.5 0.9 1.1 0.5 2.7 0.9 3.5 0.9 0.9 0 0.8 -0.4 -0.5 -0.9z m-113 -26.2 c0.3 -0.7 -0.1 -0.4 -0.9 0.6 -0.9 1.1 -1.6 2.9 -1.5 4 0.1 1.7 0.2 1.6 0.9 -0.6 0.4 -1.4 1.1 -3.2 1.5 -4z" style="fill: rgb(0, 123, 255);"/>
    <path d="M2022 1022.6 c0 -0.8 0.8 -1.7 1.8 -1.9 0.9 -0.3 -1 -0.5 -4.3 -0.5 -3.3 0 -5.2 0.2 -4.2 0.5 3.1 0.8 0.7 2.3 -3.9 2.3 -3.1 0 -4.4 -0.4 -4.4 -1.4 0 -0.8 0.8 -1.7 1.8 -1.9 0.9 -0.3 -0.3 -0.5 -2.8 -0.5 -2.5 0 -3.7 0.2 -2.7 0.5 0.9 0.2 1.5 0.9 1.2 1.4 -0.8 1.1 -7.5 1.2 -7.5 0 0 -0.4 -1 -0.6 -2.3 -0.4 -3.4 0.7 -28.9 -3.1 -52.7 -7.8 -11.3 -2.2 -36.5 -8.1 -56 -13.1 -19.5 -5 -37.4 -9.5 -39.7 -10.1 -3.9 -0.9 -4.3 -1.3 -4.4 -4.1 0 -1.7 14.7 -63.3 32.8 -136.9 30.7 -125.2 32.9 -133.8 35.1 -134.3 1.2 -0.4 8.7 1.2 17 3.4 8.1 2.3 21.2 5.7 29.2 7.7 91.5 22.8 147 44.8 185.1 73.5 11 8.3 27.1 24.6 33.7 34.3 10.2 14.8 20 40.3 19 49.5 -0.2 1.7 0 3.2 0.4 3.2 1.1 0 1 9.8 -0.1 10.5 -0.5 0.3 -1.2 -0.3 -1.4 -1.2 -0.3 -1 -0.5 1.6 -0.5 5.7 0 4.1 0.2 6.7 0.5 5.7 0.8 -3.1 2.3 -0.7 2.3 3.9 0 3.1 -0.4 4.4 -1.4 4.4 -0.8 0 -1.7 -0.8 -1.9 -1.7 -0.3 -1 -0.5 0 -0.5 2.2 0 3 0.1 3.5 0.8 2 0.7 -1.8 0.9 -1.8 1.5 -0.3 1 2.5 -1.3 14.8 -4.6 25 -11.5 35.4 -36.3 59.5 -73.9 71.8 -12.6 4.2 -33.7 8.5 -37.7 7.7 -1.3 -0.2 -2.3 0 -2.3 0.4 0 1.2 -7.7 1.1 -8.5 0 -0.3 -0.5 0.3 -1.2 1.2 -1.4 1 -0.3 -0.9 -0.5 -4.2 -0.5 -3.3 0 -5.2 0.2 -4.2 0.5 0.9 0.2 1.7 1.1 1.7 1.9 0 1.1 -1.6 1.4 -6.9 1.4 -6.6 0 -10.2 -1.3 -6.4 -2.3 1 -0.3 -1.3 -0.5 -5.2 -0.5 -3.8 0 -6.2 0.2 -5.2 0.5 4 1 0 2.3 -7.4 2.3 -6.2 0 -7.9 -0.3 -7.9 -1.4z m54.8 -3.3 c-1 -0.2 -2.6 -0.2 -3.5 0 -1 0.3 -0.2 0.5 1.7 0.5 1.9 0 2.7 -0.2 1.8 -0.5z m-78 -1 c-1 -0.2 -2.6 -0.2 -3.5 0 -1 0.3 -0.2 0.5 1.7 0.5 1.9 0 2.7 -0.2 1.8 -0.5z m106.7 -4.3 c1.3 -0.5 1.4 -0.9 0.5 -0.9 -0.8 0 -2.4 0.4 -3.5 0.9 -1.3 0.5 -1.4 0.9 -0.5 0.9 0.8 0 2.4 -0.4 3.5 -0.9z m46.1 -23.2 c0.4 -0.7 -0.9 0.1 -2.9 1.6 -2 1.6 -3.7 3 -3.7 3.3 0 0.7 5.8 -3.6 6.6 -4.9z m-278.1 2.2 c-1.1 -0.5 -2.7 -0.9 -3.5 -0.9 -0.9 0 -0.8 0.4 0.5 0.9 1.1 0.5 2.7 0.9 3.5 0.9 0.9 0 0.8 -0.4 -0.5 -0.9z m286.5 -9.5 c3.5 -3.6 6.2 -6.5 5.9 -6.5 -0.2 0 -3.4 2.9 -6.9 6.5 -3.5 3.6 -6.2 6.5 -5.9 6.5 0.2 0 3.4 -2.9 6.9 -6.5z m-299.2 -63.5 c0 -0.9 -0.3 -0.7 -0.8 0.5 -0.5 1.1 -0.8 2.9 -0.8 4 0 1.6 0.2 1.5 0.8 -0.5 0.4 -1.4 0.8 -3.2 0.8 -4z m330.9 -35.7 c-0.3 -1 -0.5 -0.2 -0.5 1.7 0 1.9 0.2 2.7 0.5 1.8 0.2 -1 0.2 -2.6 0 -3.5z m-315.9 -25.3 c0 -0.9 -0.3 -0.7 -0.8 0.5 -0.5 1.1 -0.8 2.9 -0.8 4 0 1.6 0.2 1.5 0.8 -0.5 0.4 -1.4 0.8 -3.2 0.8 -4z m305.3 -8.9 c-1.7 -3.4 -3.3 -6.1 -3.6 -6.1 -0.3 0 1 2.9 2.7 6.5 1.8 3.5 3.4 6.3 3.6 6.1 0.2 -0.2 -1.1 -3.1 -2.7 -6.5z m-18.1 -26.4 c0 -0.1 -3 -3.2 -6.7 -6.7 l-6.8 -6.5 6.5 6.8 c6 6.2 7 7.2 7 6.4z m-24 -21.8 c-3 -2.6 -8.4 -6.2 -7 -4.6 1 1.1 9.5 7.6 10 7.6 0.3 0 -1.1 -1.3 -3 -3z m-248.2 -3.9 c0 -0.9 -0.3 -0.7 -0.8 0.5 -0.5 1.1 -0.8 2.9 -0.8 4 0 1.6 0.2 1.5 0.8 -0.5 0.4 -1.4 0.8 -3.2 0.8 -4z m231.5 -7.8 c-2.7 -2 -13.1 -7.9 -12.1 -6.7 0.9 0.9 13.1 8.4 13.8 8.4 0.3 0 -0.5 -0.7 -1.7 -1.7z m-15.3 -8.7 c0 -0.6 -19.7 -10.5 -20.7 -10.4 -0.6 0 19.4 10.6 20.5 10.8 0.1 0.1 0.2 -0.1 0.2 -0.4z m-62.2 -27 c-0.7 -0.8 -18 -6.5 -19.2 -6.4 -1.1 0.1 17.1 6.7 18.8 6.8 0.5 0.1 0.7 -0.1 0.4 -0.4z m-28.3 -9.5 c-1.1 -0.5 -2.7 -0.9 -3.5 -0.9 -0.9 0 -0.8 0.4 0.5 0.9 1.1 0.5 2.7 0.9 3.5 0.9 0.9 0 0.8 -0.4 -0.5 -0.9z m-10 -3 c-1.1 -0.5 -2.7 -0.9 -3.5 -0.9 -0.9 0 -0.8 0.4 0.5 0.9 1.1 0.5 2.7 0.9 3.5 0.9 0.9 0 0.8 -0.4 -0.5 -0.9z m-18 -5 c-1.1 -0.5 -2.7 -0.9 -3.5 -0.9 -0.9 0 -0.8 0.4 0.5 0.9 1.1 0.5 2.7 0.9 3.5 0.9 0.9 0 0.8 -0.4 -0.5 -0.9z m-15 -4 c-1.1 -0.5 -2.7 -0.9 -3.5 -0.9 -0.9 0 -0.8 0.4 0.5 0.9 1.1 0.5 2.7 0.9 3.5 0.9 0.9 0 0.8 -0.4 -0.5 -0.9z m-39 -10 c-1.1 -0.5 -2.7 -0.9 -3.5 -0.9 -0.9 0 -0.8 0.4 0.5 0.9 1.1 0.5 2.7 0.9 3.5 0.9 0.9 0 0.8 -0.4 -0.5 -0.9z" style="fill: rgb(0, 123, 255);"/>
  </g>
</svg>