<?xml version="1.0" encoding="utf-8"?>
<svg fill="#009688" height="64" viewBox="0 0 48 48" width="64" xmlns="http://www.w3.org/2000/svg" xmlns:bx="https://boxy-svg.com">
  <defs>
    <bx:export>
      <bx:file format="png" path="Download &amp; Upload.png" width="24" height="24"/>
      <bx:file format="png" path="Download &amp; Upload-64.png"/>
    </bx:export>
  </defs>
  <path d="M 24 3.601 C 18.208 3.601 13.481 8.159 13.212 13.884 C 13.167 14.844 12.375 15.601 11.414 15.601 L 10.8 15.601 C 6.823 15.601 3.601 18.823 3.601 22.8 C 3.601 26.776 6.823 30 10.8 30 L 19.2 30 L 19.2 33.601 L 10.8 33.601 C 4.835 33.601 0 28.765 0 22.8 C 0 17.176 4.3 12.554 9.791 12.046 C 10.916 5.212 16.848 0 24 0 C 31.152 0 37.084 5.212 38.209 12.046 C 43.7 12.554 48 17.176 48 22.8 C 48 28.765 43.165 33.601 37.2 33.601 L 27.601 33.601 L 27.601 30 L 37.2 30 C 41.177 30 44.399 26.776 44.399 22.8 C 44.399 18.823 41.177 15.601 37.2 15.601 L 36.586 15.601 C 35.625 15.601 34.833 14.844 34.788 13.884 C 34.519 8.159 29.792 3.601 24 3.601 Z M 30.673 23.473 C 29.97 24.176 28.831 24.176 28.128 23.473 L 25.2 20.546 L 25.2 41.854 L 28.128 38.928 C 28.831 38.225 29.97 38.225 30.673 38.928 C 31.376 39.631 31.376 40.77 30.673 41.473 L 24.673 47.473 C 23.97 48.176 22.831 48.176 22.128 47.473 L 16.128 41.473 C 15.425 40.77 15.425 39.631 16.128 38.928 C 16.831 38.225 17.97 38.225 18.673 38.928 L 21.601 41.854 L 21.601 20.546 L 18.673 23.473 C 17.97 24.176 16.831 24.176 16.128 23.473 C 15.425 22.77 15.425 21.63 16.128 20.927 L 22.128 14.927 C 22.831 14.224 23.97 14.224 24.673 14.927 L 30.673 20.927 C 31.376 21.63 31.376 22.77 30.673 23.473 Z" style="fill: rgb(0, 123, 255);"/>
</svg>