<?xml version="1.0" encoding="utf-8"?>
<svg fill="#009688" height="48" viewBox="0 0 48 48" width="48" xmlns="http://www.w3.org/2000/svg">
  <path d="M 11.527 38.93 L 11.527 45.716 L 18.314 45.716 L 38.337 25.692 L 31.551 18.906 Z M 43.567 20.462 C 44.273 19.756 44.273 18.607 43.567 17.901 L 39.342 13.676 C 38.636 12.97 37.487 12.97 36.781 13.676 L 33.469 16.988 L 40.255 23.774 Z M 11.523 2.284 C 9.523 2.284 7.922 3.904 7.922 5.904 L 7.904 34.858 C 7.904 36.035 8.467 37.068 9.331 37.73 L 15.823 31.239 L 15.142 31.239 L 15.142 27.619 L 19.444 27.619 L 23.063 24 L 15.142 24 L 15.142 20.381 L 26.682 20.381 L 31.774 15.289 L 32.111 14.952 L 24.19 14.952 L 24.19 4.999 L 33.127 13.936 L 35.389 11.674 L 26 2.284 Z M 36.858 30.565 L 28.946 38.477 L 33.239 38.477 C 35.238 38.477 36.858 36.858 36.858 34.858 Z" style="fill: rgb(0, 0, 192);"/>
</svg>