<?xml version="1.0" encoding="utf-8"?>
<svg fill="#1793D1" height="48" viewBox="0 0 48 48" width="48" xmlns="http://www.w3.org/2000/svg" xmlns:bx="https://boxy-svg.com">
  <path d="M 8 26 L 8 22 L 8 18 L 14 24 L 8 30 L 8 26 Z" style="fill: rgb(0, 0, 214);"/>
  <path d="M 670 584 m -8 0 a 8 8 0 1 0 16 0 a 8 8 0 1 0 -16 0 Z M 670 584 m -4 0 a 4 4 0 0 1 8 0 a 4 4 0 0 1 -8 0 Z" transform="matrix(1, -0.00003, 0.00003, 1, -646.017584, -559.979884)" style="fill: rgb(0, 0, 214);" bx:shape="ring 670 584 4 4 8 8 1@eae46767"/>
  <path d="M 34 22 L 34 26 L 34 30 L 40 24 L 34 18 L 34 22 Z" style="fill: rgb(0, 0, 214);" transform="matrix(-1, 0, 0, -1, 74, 48)"/>
  <path d="M 26 41.287 C 26 43.89 23.89 46 21.287 46 L 4.713 46 C 2.11 46 0 43.89 0 41.287 L 0 26.713 C 0 24.11 2.11 22 4.713 22 L 11.446 22 L 11.446 26 L 4 26 L 4 42 L 22 42 L 22 34.554 L 26 34.554 Z" style="fill: rgb(0, 0, 214);"/>
  <path d="M 48 21.287 C 48 23.89 45.89 26 43.287 26 L 26.713 26 C 24.11 26 22 23.89 22 21.287 L 22 6.713 C 22 4.11 24.11 2 26.713 2 L 33.446 2 L 33.446 6 L 26 6 L 26 22 L 44 22 L 44 14.554 L 48 14.554 Z" style="fill: rgb(0, 0, 214);" transform="matrix(-1, 0, 0, -1, 70, 28)"/>
</svg>