<?xml version="1.0" encoding="utf-8"?>
<svg fill="#2196F3" height="48" viewBox="0 0 48 48" width="48" xmlns="http://www.w3.org/2000/svg">
  <path d="M 30.572 17.428 L 17.428 17.428 L 17.428 30.572 L 30.572 30.572 Z M 26.191 26.191 L 21.809 26.191 L 21.809 21.809 L 26.191 21.809 Z M 43.716 21.809 L 43.716 17.428 L 39.334 17.428 L 39.334 13.046 C 39.334 10.626 37.374 8.666 34.954 8.666 L 30.572 8.666 L 30.572 4.284 L 26.191 4.284 L 26.191 8.666 L 21.809 8.666 L 21.809 4.284 L 17.428 4.284 L 17.428 8.666 L 13.046 8.666 C 10.626 8.666 8.666 10.626 8.666 13.046 L 8.666 17.428 L 4.284 17.428 L 4.284 21.809 L 8.666 21.809 L 8.666 26.191 L 4.284 26.191 L 4.284 30.572 L 8.666 30.572 L 8.666 34.954 C 8.666 37.374 10.626 39.334 13.046 39.334 L 17.428 39.334 L 17.428 43.716 L 21.809 43.716 L 21.809 39.334 L 26.191 39.334 L 26.191 43.716 L 30.572 43.716 L 30.572 39.334 L 34.954 39.334 C 37.374 39.334 39.334 37.374 39.334 34.954 L 39.334 30.572 L 43.716 30.572 L 43.716 26.191 L 39.334 26.191 L 39.334 21.809 Z M 34.954 34.954 L 13.046 34.954 L 13.046 13.046 L 34.954 13.046 Z" style="fill: rgb(0, 0, 214);"/>
</svg>