<?xml version="1.0" encoding="utf-8"?>
<svg fill="#009688" height="64" viewBox="0 0 48 48" width="64" xmlns="http://www.w3.org/2000/svg">
  <path d="M 44 16 L 44 36 C 44 38.21 42.21 40 40 40 L 8 40 C 5.79 40 4 38.21 4 36 L 4.02 12 C 4.02 9.79 5.79 8 8 8 L 20 8 L 24 12 L 40 12 C 42.21 12 44 13.79 44 16 Z M 9.93 18.824 L 9.93 32.777 C 9.93 34.329 11.188 35.587 12.74 35.587 L 35.527 35.587 C 37.079 35.587 38.337 34.329 38.337 32.777 L 38.337 18.824 C 38.337 17.272 37.079 16.014 35.527 16.014 L 12.74 16.014 C 11.188 16.014 9.93 17.272 9.93 18.824 Z" style="fill: rgb(0, 123, 255);"/>
  <path style="fill: none; stroke-width: 2px; stroke-linecap: round; stroke-linejoin: round; stroke: rgba(0, 0, 0, 0.69);" d="M 34.445 19.189 L 20.214 33.42 L 14.26 27.37"/>
  <path style="fill: none; stroke: rgb(0, 255, 0); stroke-width: 2px; stroke-linecap: round; stroke-linejoin: round;" d="M 34.445 17.189 L 20.214 31.42 L 14.26 25.37"/>
</svg>