<?xml version="1.0" encoding="utf-8"?>
<svg fill="#2196F3" height="48" viewBox="0 0 48 48" width="48" xmlns="http://www.w3.org/2000/svg">
  <g fill="#2196F3">
    <path d="m8 6c-2.216 0-4 1.784-4 4v28c0 2.216 1.784 4 4 4h32c2.216 0 4-1.784 4-4v-28c0-2.216-1.784-4-4-4zm0 4h32v28h-32z" stroke-width="3" style="fill: rgb(0, 0, 214);"/>
    <rect x="22.05" y="23.09" width="12.221" height="3.016" style="fill: rgb(0, 0, 214);"/>
    <rect x="15.583" y="18.834" width="3.955" height="7.018" style="fill: rgb(0, 0, 214);" transform="matrix(1, 0, -1.015132, 1, 19.660191, 0.148216)"/>
    <rect x="15.583" y="18.834" width="3.955" height="7.018" style="fill: rgb(0, 0, 214);" transform="matrix(1, 0, -1.015132, -1, 19.66019, 37.816215)"/>
  </g>
</svg>