<?xml version="1.0" encoding="utf-8"?>
<svg fill="#009688" height="48" viewBox="0 0 48 48" width="48" xmlns="http://www.w3.org/2000/svg">
  <path d="M 40.059 22.059 L 37.236 22.059 L 37.236 14.529 C 37.236 12.449 35.551 10.764 33.471 10.764 L 25.941 10.764 L 25.941 7.941 C 25.941 5.343 23.833 3.235 21.235 3.235 C 18.637 3.235 16.529 5.343 16.529 7.941 L 16.529 10.764 L 9 10.764 C 6.919 10.764 5.254 12.449 5.254 14.529 L 5.244 21.682 L 8.058 21.682 C 10.863 21.682 13.141 23.96 13.141 26.765 C 13.141 29.57 10.863 31.847 8.058 31.847 L 5.244 31.847 L 5.235 39 C 5.235 41.081 6.919 42.765 9 42.765 L 16.153 42.765 L 16.153 39.942 C 16.153 37.137 18.43 34.859 21.235 34.859 C 24.04 34.859 26.318 37.137 26.318 39.942 L 26.318 42.765 L 33.471 42.765 C 35.551 42.765 37.236 41.081 37.236 39 L 37.236 31.471 L 40.059 31.471 C 42.657 31.471 44.765 29.363 44.765 26.765 C 44.765 24.167 42.657 22.059 40.059 22.059 Z" style="fill: rgb(0, 0, 192);"/>
</svg>