<?xml version="1.0" encoding="utf-8"?>
<svg version="1.1" id="layer" x="0px" y="0px" viewBox="0 0 652 652" style="enable-background:new 0 0 652 652;" xmlns="http://www.w3.org/2000/svg">
  <style type="text/css">
	.st0{fill:#020203;}
	.st1{fill:#6ABF4B;}
	.st2{fill:#C31C4A;}
</style>
  <g transform="matrix(1.318305, 0, 0, 1.318305, 13.703863, -59.75005)" style="visibility: hidden;">
    <path class="st0" d="M 230.4 73.8 C 235.3 73.7 238 76.8 242.5 78.2 C 253.6 74.6 256.1 79.5 261.5 81.5 C 273.6 79 277.2 84.5 283 90.2 L 283.1 90.1 C 285 89.1 287.4 89 289.4 89.9 L 289.7 90.1 C 307.8 100.6 316.8 122 320 133.1 C 323.1 122.1 332.1 100.7 350.3 90.1 C 352.3 89.1 354.6 89 356.6 90 L 357 90.2 C 362.8 84.5 366.5 79 378.5 81.5 C 383.9 79.5 386.5 74.6 397.8 78.1 C 404.6 76 410.7 70.3 419.8 77.4 C 427.5 74.5 435 73.4 441.6 79.4 C 451.8 78.1 455.2 80.9 457.7 84 C 460 84 474.6 81.8 481.3 91.6 C 498.1 89.6 503.5 101.3 497.4 112.3 C 500.9 117.5 504.5 122.7 496.4 132.7 C 499.3 138.3 497.5 144.4 490.8 151.7 C 492.5 159.6 489 165.1 482.8 169.4 C 483.9 180.1 472.8 186.3 469.5 188.6 C 468.2 194.9 465.6 200.8 452.8 204 C 450.7 213.3 443 215 435.6 216.9 C 455.374 228.199 472.933 242.43 478.867 271.317 L 161.551 271.317 C 167.492 242.363 185.003 228.112 204.8 216.8 C 197.4 214.8 189.7 213.2 187.6 203.9 C 174.9 200.6 172.2 194.7 170.9 188.5 C 167.6 186.2 156.5 180 157.6 169.3 C 151.3 165 147.8 159.4 149.6 151.6 C 143 144.2 141.2 138.2 144 132.6 C 136 122.6 139.5 117.4 143 112.2 C 136.9 101.3 142.2 89.6 159.1 91.5 C 165.8 81.7 180.4 83.9 182.7 84 C 185.2 80.8 188.6 78.1 198.8 79.4 C 205.5 73.4 212.9 74.5 220.6 77.4 C 223.8 75 226.5 73.9 229.1 73.8 Z" style=""/>
    <path class="st1" d="M193.3,120.4c48.2,24.5,76.2,44.2,91.5,61.1c-7.8,31-48.8,32.4-63.8,31.6c3.1-1.4,5.6-3.1,6.5-5.6 c-3.8-2.7-17.1-0.2-26.4-5.4c3.6-0.7,5.2-1.5,6.9-4c-8.8-2.7-18.2-5.2-23.8-9.7c3,0,5.8,0.6,9.8-2c-7.9-4.3-16.3-7.6-22.8-14 c4-0.1,8.5,0,9.8-1.5c-7.2-4.4-13.3-9.3-18.3-14.6c5.7,0.6,8.1,0.1,9.5-0.9c-5.5-5.5-12.3-10.2-15.7-16.9c4.2,1.5,8.1,2,10.9-0.2 c-1.9-4.1-9.8-6.5-14.4-16.1c4.4,0.4,9.2,1,10.1,0c-2.1-8.3-5.6-13-9.1-17.8c9.5-0.2,24,0,23.3-0.7l-5.9-6 c9.3-2.5,18.8,0.4,25.7,2.5c3.1-2.4-0.1-5.5-3.9-8.6c7.9,1,15.1,2.8,21.5,5.3c3.5-3.1-2.3-6.1-5-9.2c12.3,2.3,17.4,5.5,22.6,8.7 c3.7-3.6,0.2-6.5-2.3-9.6c9.2,3.4,14,7.7,19,12c1.7-2.3,4.3-3.9,1.1-9.4c6.5,3.7,11.5,8.1,15.1,13c4-2.5,2.4-6.1,2.4-9.2 c6.8,5.5,11.1,11.2,16.4,16.9c1-0.7,2-3.4,2.8-7.4c16.2,15.5,39.1,54.6,5.9,70C264.6,149.6,230.8,132.9,193.3,120.4L193.3,120.4z" style=""/>
    <path class="st1" d="M448.5,120.4c-48.2,24.5-76.2,44.2-91.5,61.1c7.8,31,48.8,32.4,63.8,31.6c-3.1-1.4-5.6-3.1-6.5-5.6 c3.8-2.7,17.1-0.2,26.4-5.4c-3.6-0.7-5.2-1.5-6.9-4c8.8-2.7,18.2-5.2,23.8-9.7c-3,0-5.8,0.6-9.8-2c7.9-4.2,16.3-7.5,22.8-13.9 c-4-0.1-8.5,0-9.8-1.5c7.2-4.4,13.3-9.3,18.3-14.6c-5.7,0.6-8.1,0.1-9.5-0.9c5.5-5.5,12.3-10.2,15.7-16.9c-4.2,1.5-8.1,2-10.9-0.2 c1.9-4.1,9.8-6.5,14.4-16.1c-4.4,0.4-9.2,1-10.1,0c2.1-8.3,5.6-13,9.1-17.8c-9.5-0.2-24,0-23.3-0.7l5.9-6 c-9.3-2.5-18.9,0.4-25.7,2.5c-3.1-2.4,0.1-5.5,3.9-8.6c-7.9,1-15.1,2.8-21.5,5.3c-3.5-3.1,2.3-6.1,5-9.2 c-12.3,2.3-17.4,5.5-22.6,8.7c-3.7-3.6-0.2-6.5,2.3-9.6c-9.2,3.4-14,7.7-19,12c-1.7-2.3-4.3-3.9-1.1-9.4c-6.5,3.7-11.5,8.1-15.1,13 c-4-2.5-2.4-6.1-2.4-9.2c-6.8,5.5-11.1,11.2-16.4,16.9c-1-0.7-2-3.4-2.8-7.4c-16.2,15.5-39.1,54.6-5.9,70 C377.2,149.6,411,132.9,448.5,120.4L448.5,120.4z" style=""/>
    <g style="">
      <path class="st2" d="M379.2,436.2c0.2,29-25.5,52.5-57.4,52.7s-57.9-23.2-58-52.1c0-0.2,0-0.4,0-0.6c-0.2-29,25.5-52.5,57.4-52.7 s57.9,23.2,58,52.1C379.2,435.8,379.2,436,379.2,436.2z"/>
      <g>
        <path class="st2" d="M289.2,286.4c23.9,15.4,28.2,50.4,9.6,78.1c-18.6,27.7-53,37.7-77,22.3l0,0c-23.9-15.4-28.2-50.4-9.6-78.1 S265.3,271,289.2,286.4L289.2,286.4z"/>
        <path class="st2" d="M353.7,283.7c-23.9,15.4-28.2,50.4-9.6,78.1c18.6,27.7,53,37.7,77,22.3l0,0c23.9-15.4,28.2-50.4,9.6-78.1 C412.1,278.2,377.6,268.3,353.7,283.7L353.7,283.7z"/>
      </g>
      <g>
        <path class="st2" d="M171.2,311.9c25.8-6.8,8.7,105.1-12.3,96C135.8,389.6,128.3,335.9,171.2,311.9z"/>
        <path class="st2" d="M469.5,310.5c-25.8-6.8-8.7,105.1,12.3,96C504.9,388.1,512.3,334.5,469.5,310.5L469.5,310.5z"/>
      </g>
      <path class="st2" d="M382.9,226.9c44.5-7.4,81.6,18.6,80.1,66.3C461.5,311.4,366.5,229.6,382.9,226.9z"/>
      <path class="st2" d="M259.8,225.5c-44.5-7.4-81.6,18.6-80.1,66.3C181.2,310,276.3,228.2,259.8,225.5z"/>
      <path class="st2" d="M321.2,214.4c-26.5-0.6-52.1,19.4-52.1,31.1c-0.1,14.2,21,28.7,52.4,29.1c32,0.2,52.4-11.6,52.5-26.2 C374,231.7,344.8,214.1,321.2,214.4L321.2,214.4z"/>
      <path class="st2" d="M323.2,505.1c23.2-1,54.3,7.3,54.3,18.4c0.4,10.7-28.2,35-55.8,34.6c-28.6,1.2-56.7-23.2-56.4-31.6 C264.9,514.2,300.2,504.6,323.2,505.1L323.2,505.1z"/>
      <g>
        <path class="st2" d="M237.5,439.5c16.5,19.6,24,54,10.2,64.2c-13,7.7-44.7,4.5-67.1-27.3c-15.2-26.7-13.2-53.9-2.6-61.9 C194,404.9,218.5,417.8,237.5,439.5L237.5,439.5z"/>
        <path class="st2" d="M403.6,433.3c-17.8,20.6-27.8,58.2-14.8,70.3c12.4,9.4,45.9,8.1,70.6-25.7c17.9-22.7,11.9-60.5,1.7-70.6 C445.9,395.7,424,410.5,403.6,433.3L403.6,433.3z"/>
      </g>
    </g>
  </g>
  <rect x="226.514" y="228.19" width="418.675" height="418.675" style="" rx="62.1" ry="62.1">
    <title>black</title>
  </rect>
  <g transform="matrix(1.57606, 0, 0, 1.57606, -129.764755, 154.493698)" style="">
    <title>crane</title>
    <path d="m197.68 71.716 14.461 10.918-116.45 125.38-14.695-9.979 116.68-126.32z" fill="#ed801f" stroke="#2c2c2b" stroke-width=".17282"/>
    <path d="m157.94 176.15h-31.968v44.378h37.451l7.096-17.369-12.579-27.009z" fill="#ed801f" stroke="#2c2c2b" stroke-width=".17282"/>
    <path d="m114.67 220.6v5.087h39.457v-5.087h-39.457z" fill="#2c2c2b"/>
    <path d="m1.4239 224.52h49.103v22.322h-49.103v-22.322z" fill="#2c2c2b"/>
    <path d="m24.566 190.22h16.749c4.5679 0.271 6.5643 1.895 5.9891 4.872v38.879c-11.199-4.299-21.42-2.708-30.453 5.989h-16.648v-18.272c3.8372-9.285 8.3714-18.57 13.835-27.851 1.8832-2.154 5.3927-3.36 10.527-3.617z" fill="#ed801f" stroke="#2c2c2b" stroke-width=".17282"/>
    <path d="m48.338 242.73h156.5v-6.106h-17.098v-1.92h19.715v-6.106h-159.12v14.132z" fill="#2c2c2b"/>
    <path d="m243.55 109.64h66v15.762h-66v-15.762z" fill="#9fdcf5" stroke="#2c2c2b" stroke-width=".40008" style="visibility: hidden;"/>
    <path d="m35.076 235.59c8.4443 0 15.332 6.888 15.332 15.332 0 8.445-6.8879 15.333-15.332 15.333s-15.332-6.888-15.332-15.333 6.8879-15.332 15.332-15.332z" fill="#2c2c2b"/>
    <path d="m35.076 243.32c-4.1809 0-7.591 3.778-7.591 8.41s3.4101 8.41 7.591 8.41 7.591-3.778 7.591-8.41-3.4101-8.41-7.591-8.41z" fill="#868889"/>
    <path d="m35.076 243.32c4.1809 0 7.591 3.41 7.591 7.591s-3.4101 7.591-7.591 7.591-7.591-3.41-7.591-7.591 3.4101-7.591 7.591-7.591z" fill="#c5c5c7"/>
    <path d="m35.076 248.16c1.5195 0 2.7588 1.239 2.7588 2.758s-1.2393 2.759-2.7588 2.759-2.7587-1.239-2.7587-2.759 1.2392-2.758 2.7587-2.758z" fill="#2c2c2b"/>
    <path d="m35.0257,235.704c-8.2803,0-15.0414,6.354-15.0414,14.134 0,.235.0072.467.0197.699 .3916-6.753 6.9912-12.16 15.0217-12.16s14.63,5.407 15.0216,12.16c.0125-.232.0197-.464.0197-.699 0-7.78-6.7611-14.134-15.0413-14.134z" fill="#454545"/>
    <path d="m145.34 235.59c8.444 0 15.332 6.888 15.332 15.332 0 8.445-6.888 15.333-15.332 15.333s-15.332-6.888-15.332-15.333 6.888-15.332 15.332-15.332z" fill="#2c2c2b"/>
    <path d="m145.34 243.32c-4.181 0-7.591 3.778-7.591 8.41s3.41 8.41 7.591 8.41 7.591-3.778 7.591-8.41-3.41-8.41-7.591-8.41z" fill="#868889"/>
    <path d="m145.34 243.32c4.181 0 7.591 3.41 7.591 7.591s-3.41 7.591-7.591 7.591-7.591-3.41-7.591-7.591 3.41-7.591 7.591-7.591z" fill="#c5c5c7"/>
    <path d="m145.34 248.16c1.52 0 2.759 1.239 2.759 2.758s-1.239 2.759-2.759 2.759-2.759-1.239-2.759-2.759 1.24-2.758 2.759-2.758z" fill="#2c2c2b"/>
    <path d="m145.288,235.704c-8.28,0-15.041,6.354-15.041,14.134 0,.235.007.467.02.699 .391-6.753 6.991-12.16 15.021-12.16s14.63,5.407 15.022,12.16c.012-.232.02-.464.02-.699 0-7.78-6.761-14.134-15.042-14.134z" fill="#454545"/>
    <path d="m59.437 261.88h15.579c1.5776 0 2.8665 0.986 2.8665 2.191v2.191h-21.312v-2.191c0-1.205 1.289-2.191 2.8666-2.191z" fill="#ed801f" stroke="#2c2c2b" stroke-width=".17282"/>
    <path d="m65.998 258.1h2.4574v3.598h-2.4574v-3.598z" fill="#8e522c" stroke="#2c2c2b" stroke-width=".17282"/>
    <path d="m58.611 244.76h24.837v-12.112h-24.837v12.112z" fill="#ed801f" stroke="#2c2c2b" stroke-width=".17282"/>
    <path d="m92.384 244.52-22.349 12.365v-7.908l16.141-13.729 6.3549-0.149-0.147 9.421z" fill="#ed801f" stroke="#2c2c2b" stroke-width=".17282"/>
    <path d="m64.418 258.1h5.6168v-18.08h-5.6168v18.08z" fill="#ed801f" stroke="#2c2c2b" stroke-width=".17282"/>
    <path d="m92.3125,235.247-22.2187,16.594 .125.156 22.2187-16.593-.125-.157z" fill="#2c2c2b"/>
    <path d="m74.25,249.216-.1875.125 2.4687,4.063 .1876-.125-2.4688-4.063z" fill="#2c2c2b"/>
    <path d="m78.3125,246.185-.1875.125 2.6562,4.625 .1876-.125-2.6563-4.625z" fill="#2c2c2b"/>
    <path d="m81.9375,243.154-.1875.125 3.4688,5.312 .1562-.125-3.4375-5.312z" fill="#2c2c2b"/>
    <path d="m86.0625,240.31-.1875.125 3.875,5.312 .1875-.125-3.875-5.312z" fill="#2c2c2b"/>
    <path d="m70.5625,252.122-.1875.094 1.5938,3.594 .1874-.094-1.5937-3.594z" fill="#2c2c2b"/>
    <path d="m205.9 261.88h-15.578c-1.578 0-2.867 0.986-2.867 2.191v2.191h21.312v-2.191c0-1.205-1.289-2.191-2.867-2.191z" fill="#ed801f" stroke="#2c2c2b" stroke-width=".17282"/>
    <path d="m199.34 258.1h-2.457v3.598h2.457v-3.598z" fill="#8e522c" stroke="#2c2c2b" stroke-width=".17282"/>
    <path d="m172.955,244.52 22.349,12.365v-7.908l-16.141-13.729-6.355-.149 .147,9.421z" fill="#ed801f" stroke="#2c2c2b" stroke-width=".17282"/>
    <path d="m200.92 258.1h-5.617v-18.08h5.617v18.08z" fill="#ed801f" stroke="#2c2c2b" stroke-width=".17282"/>
    <path d="m173.031,235.247-.125.157 22.219,16.593 .125-.156-22.219-16.594z" fill="#2c2c2b"/>
    <path d="m191.094,249.216-2.469,4.063 .187.125 2.469-4.063-.187-.125z" fill="#2c2c2b"/>
    <path d="m187.031,246.185-2.656,4.625 .187.125 2.657-4.625-.188-.125z" fill="#2c2c2b"/>
    <path d="m183.406,243.154-3.437,5.312 .156.125 3.469-5.312-.188-.125z" fill="#2c2c2b"/>
    <path d="m179.281,240.31-3.875,5.312 .188.125 3.875-5.312-.188-.125z" fill="#2c2c2b"/>
    <path d="m194.781,252.122-1.593,3.594 .187.094 1.594-3.594-.188-.094z" fill="#2c2c2b"/>
    <path d="m48.338 225.11h159.12v3.489h-159.12v-3.489z" fill="#737476" stroke="#2c2c2b" stroke-width=".17282"/>
    <path d="m93.177 234.35h29.311v3.489h-29.311v-3.489z" fill="#737476" stroke="#2c2c2b" stroke-width=".17282"/>
    <path d="m123.45 243.6 1e-3 -13.608h2.18v13.608h-2.181z" fill="#737476" stroke="#2c2c2b" stroke-width=".17282"/>
    <path d="m123.45 243.6 1e-3 13.609h2.18v-13.609h-2.181z" fill="#2c2c2b"/>
    <path d="m165.49 243.6 1e-3 -13.608h2.18v13.608h-2.181z" fill="#737476" stroke="#2c2c2b" stroke-width=".17282"/>
    <path d="m165.49 243.6 1e-3 13.609h2.18v-13.609h-2.181z" fill="#2c2c2b"/>
    <path d="m6.3e-4 241.99 3.8732 0.101c-0.00211 1.497-0.00318 2.994-0.00425 4.491l7.5784-0.117c3.8637-10.155 10.706-16.114 20.528-17.874h13.095v5.887c-7.6926-1.07-14.277-1.233-19.569 1.419-8.254 4.138-12.609 12.656-13.218 16.244h-12.283v-10.151z" fill="#ed801f" stroke="#2c2c2b" stroke-width=".17282"/>
    <path d="m21.216 199.56h18.779v16.343h-18.779v-16.343z" fill="#fff" stroke="#2c2c2b" stroke-width=".17282"/>
    <path d="m21.216 199.56h-4.0604l-7.0041 16.343h11.064v-16.343z" fill="#fff" stroke="#2c2c2b" stroke-width=".17282"/>
    <path d="m0.90625 220.47v0.219h46.125v-0.219h-46.125z" fill="#2c2c2b"/>
    <path d="m6.78125,220.56v19.187h.21875v-19.187h-.21875z" fill="#2c2c2b"/>
    <path d="m12.594 195.59v0.219h34.719v-0.219h-34.719z" fill="#2c2c2b"/>
    <path d="m54.647 242.65 0.0011 14.562h2.1803v-14.562h-2.1814z" fill="#2c2c2b"/>
    <path d="m130.3 184.57h9.952v16.343h-9.952v-16.343z" fill="#fff" stroke="#2c2c2b" stroke-width=".17282"/>
    <path d="m143.7 184.57h10.762l7.284 16.343h-18.046v-16.343z" fill="#fff" stroke="#2c2c2b" stroke-width=".17282"/>
    <path d="m71.819 195.07h54.151v25.454h-54.151v-25.454z" fill="#ed801f" stroke="#2c2c2b" stroke-width=".17282"/>
    <path d="m125.97 180.12v0.188h34.156v-0.188h-34.156z" fill="#2c2c2b"/>
    <path d="m256.24 12.748 8.999 6.6136-55.755 61.186-9.344-7.1016 56.1-60.698z" fill="#ed801f" stroke="#2c2c2b" stroke-width=".17282"/>
    <path d="m256.24 12.748 8.999 6.6136 11.584 3.5201 6.12-6.9641-19.101-15.92-9.835 9.569 2.233 3.1818z" fill="#ed801f" stroke="#2c2c2b" stroke-width=".17282"/>
    <path d="m259.98 3.6796h8.11l2.844 2.2904h-13.283l2.329-2.2904z" fill="#2c2c2b"/>
    <path d="m254.8 8.9624h19.715l2.798 2.2903h-22.186l-0.988-1.4148 0.661-0.87549z" fill="#2c2c2b"/>
    <path d="m257.97 13.87h22.326l2.657 2.2903h-21.906l-3.077-2.2903z" fill="#2c2c2b"/>
    <path d="m265.57 19.152h14.681l-2.376 2.2903h-5.592l-6.713-2.2903z" fill="#2c2c2b"/>
    <path d="m275.08 58.489 7.15-0.0373 3.438-15.164-14.242-0.2012 3.654 15.402z" fill="#ed801f" stroke="#2c2c2b" stroke-width=".17282"/>
    <path d="m274.57 43.201 8.461 10.196-0.571 2.8678-10.454-13.125 2.564 0.0615z" fill="#2c2c2b"/>
    <path d="m280.215,43.2014 4.179,5.2835-.374,2.2355-6.368-7.5805 2.563.0615z" fill="#2c2c2b"/>
    <path d="m273.16 48.698 7.975 9.7101-2.419-0.0025-4.568-5.732-0.988-3.9756z" fill="#2c2c2b"/>
    <path d="m274.406,22.216v20.875h.219v-20.875h-.219z" fill="#2c2c2b"/>
    <path d="m282.81 16.185v26.906h0.219v-26.906h-0.219z" fill="#2c2c2b"/>
    <path d="m277.09,58.6525h2.251v4.2612c2.985.1364 4.159,3.3086 4.131,4.9486-.051,3.0379-2.454,4.6779-5.256,4.6779-3.241,0-5.079-2.9787-6.027-6.6129 .677-.2146 1.458-.1184 1.665.2939 .942,2.0631 2.38,3.1246 4.143,3.2177 .806-.0666 2.087-.2601 2.102-1.8356 .016-1.5037-.315-2.7429-3.009-2.7101v-6.2407z" fill="#2c2c2b"/>
    <path d="m280.094,70.841-.188.125 25.719,39.094 .187-.125-25.718-39.094z" style="stroke-width: 1.79389px; fill: rgb(255, 255, 255); stroke: rgb(255, 255, 255);"/>
    <path d="m276.812,70.841-27.687,39.094 .187.125 27.657-39.094-.157-.125z" style="stroke-width: 1.79389px; fill: rgb(255, 255, 255); stroke: rgb(255, 255, 255);"/>
    <path d="m149.84 150.11c5.65 6.477 4.01 6.856 3.276 7.928-0.743 1.087-1.122 1.827-8.974-2.284l5.698-5.644z" fill="#ed801f" stroke="#2c2c2b" stroke-width=".17282"/>
    <path d="m138.28 175.83c2.051-5.439 3.776-4.957 5.496-5.026s2.805-0.316 5.003 5.05l-10.499-0.024z" fill="#ed801f" stroke="#2c2c2b" stroke-width=".17282"/>
    <path d="m148.04 157.49 2.613 1.116-5.077 12.324-3.29 0.097 5.754-13.537z" fill="#ce6c2a" stroke="#2c2c2b" stroke-width=".17282"/>
  </g>
  <rect x="254.54" y="315.989" width="106.004" height="106.004" style="fill: rgb(195, 28, 74);" rx="28.994" ry="28.994"/>
  <g transform="matrix(1.178368, 0, 0, 1.178368, 56.145332, -29.429646)" style="">
    <title>boxes</title>
    <rect x="277.252" y="351.296" width="89.958" height="89.958" style="fill: rgb(195, 28, 74);" rx="28.994" ry="28.994"/>
    <rect x="386.825" y="350.4" width="89.958" height="89.958" style="fill: rgb(195, 28, 74);" rx="28.994" ry="28.994"/>
    <rect x="167.679" y="460.869" width="89.958" height="89.958" style="fill: rgb(195, 28, 74);" rx="28.994" ry="28.994"/>
    <rect x="277.266" y="460.869" width="89.958" height="89.958" style="fill: rgb(195, 28, 74);" rx="28.994" ry="28.994"/>
    <rect x="386.825" y="460.869" width="89.958" height="89.958" style="fill: rgb(195, 28, 74);" rx="28.994" ry="28.994"/>
  </g>
  <g transform="matrix(0.942429, 0, 0, 0.942429, 74.085045, -6.303963)" style="">
    <title>hook</title>
    <path d="M 454.891 3.376 L 480.25 3.508 L 492.443 57.29 L 441.932 58.003 L 454.891 3.378 Z" fill="#ed801f" stroke="#2c2c2b" stroke-width=".17282" style="" transform="matrix(-1, 0, 0, -1, 934.375, 61.378999)"/>
    <path d="M 460.377 49.898 L 490.386 13.736 L 488.361 3.565 L 451.284 50.115 L 460.377 49.897 Z" fill="#2c2c2b" style="" transform="matrix(-1, 0, 0, -1, 941.669983, 53.680003)"/>
    <path d="M 455.54 30.233 L 470.362 11.494 L 469.035 3.565 L 446.45 30.451 L 455.54 30.233 Z" fill="#2c2c2b" style="" transform="matrix(-1, 0, 0, -1, 916.812012, 34.016)"/>
    <path d="M 458.009 57.716 L 486.293 23.278 L 477.714 23.287 L 461.513 43.616 L 458.009 57.716 Z" fill="#2c2c2b" style="" transform="matrix(-1, 0, 0, -1, 944.302002, 80.993999)"/>
    <path d="M 467.1 107.838 L 475.084 107.838 L 475.084 92.725 C 485.67 92.241 489.834 80.99 489.735 75.174 C 489.554 64.399 481.031 58.583 471.094 58.583 C 459.599 58.583 453.08 69.147 449.718 82.037 C 452.119 82.798 454.889 82.457 455.623 80.994 C 458.964 73.677 464.064 69.912 470.317 69.582 C 473.176 69.818 477.719 70.505 477.772 76.092 C 477.829 81.426 476.655 85.821 467.1 85.704 L 467.1 107.838 Z" fill="#2c2c2b" style="" transform="matrix(-1, 0, 0, -1, 939.454681, 166.420998)"/>
  </g>
  <path d="M 581.806 248.359 L 518.294 84.138 L 581.806 248.359 Z" fill="#2c2c2b" style="stroke: rgb(44, 44, 43); stroke-width: 5px; stroke-linecap: round; stroke-linejoin: round;"/>
  <path d="M 513.69 84.138 L 462.701 273.076 L 513.69 84.138 Z" fill="#2c2c2b" style="stroke: rgb(44, 44, 43); stroke-width: 5px; stroke-linecap: round; stroke-linejoin: round;"/>
  <rect x="424.918" y="223.428" width="106.004" height="106.004" style="fill: rgb(195, 28, 74);" rx="28.994" ry="28.994" transform="matrix(0.860605, 0.509273, -0.509273, 0.860605, 253.103333, -216.628418)"/>
</svg>