<?xml version="1.0" encoding="utf-8"?>
<svg version="1.1" id="layer" x="0px" y="0px" viewBox="0 0 652 652" style="enable-background:new 0 0 652 652;" xmlns="http://www.w3.org/2000/svg" xmlns:bx="https://greentree.cf">
  <defs>
    <filter id="drop-shadow-filter-2" x="-500%" y="-500%" width="1000%" height="1000%" bx:preset="drop-shadow 1 0 10 16 0.58 rgba(0,0,0,0.3)">
      <feGaussianBlur in="SourceAlpha" stdDeviation="16"/>
      <feOffset dx="0" dy="10"/>
      <feComponentTransfer result="offsetblur">
        <feFuncA id="spread-ctrl" type="linear" slope="1.16"/>
      </feComponentTransfer>
      <feFlood flood-color="rgba(0,0,0,0.3)" x="10" y="10"/>
      <feComposite in2="offsetblur" operator="in"/>
      <feMerge>
        <feMergeNode/>
        <feMergeNode in="SourceGraphic"/>
      </feMerge>
    </filter>
    <linearGradient gradientUnits="userSpaceOnUse" x1="326" y1="201.157" x2="326" y2="652" id="gradient-0" gradientTransform="matrix(0.846503, 0, 0, 0.846503, 50.040508, 49.675231)">
      <stop offset="0" style="stop-color: rgb(53, 59, 255);"/>
      <stop offset="1" style="stop-color: rgb(8, 0, 166);"/>
    </linearGradient>
    <filter id="drop-shadow-filter-3" x="-500%" y="-500%" width="1000%" height="1000%" bx:preset="drop-shadow 1 0 10 15 0.48 rgba(0,0,0,0.56)">
      <feGaussianBlur in="SourceAlpha" stdDeviation="15"/>
      <feOffset dx="0" dy="10"/>
      <feComponentTransfer result="offsetblur">
        <feFuncA id="spread-ctrl" type="linear" slope="0.96"/>
      </feComponentTransfer>
      <feFlood flood-color="rgba(0,0,0,0.56)" x="10" y="10"/>
      <feComposite in2="offsetblur" operator="in"/>
      <feMerge>
        <feMergeNode/>
        <feMergeNode in="SourceGraphic"/>
      </feMerge>
    </filter>
    <filter id="drop-shadow-filter-1" x="-500%" y="-500%" width="1000%" height="1000%" bx:preset="drop-shadow 1 0 0 8 1 rgba(0,0,0,0.52)">
      <feGaussianBlur in="SourceAlpha" stdDeviation="8"/>
      <feOffset dx="0" dy="0"/>
      <feComponentTransfer result="offsetblur">
        <feFuncA id="spread-ctrl" type="linear" slope="2"/>
      </feComponentTransfer>
      <feFlood flood-color="rgba(0,0,0,0.52)" x="10" y="10"/>
      <feComposite in2="offsetblur" operator="in"/>
      <feMerge>
        <feMergeNode/>
        <feMergeNode in="SourceGraphic"/>
      </feMerge>
    </filter>
    <clipPath id="clip-0">
      <path d="M 234.054 230.974 L 170.054 230.974 L 170.054 124.652 C 170.828 113.872 175.107 103.629 182.239 95.501 L 220.622 57.118 C 229.054 49.157 240 44.414 251.538 43.686 L 396.445 43.686 C 408.036 44.343 419.05 49.052 427.54 57.007 L 466.124 95.591 C 473.139 103.618 477.379 113.695 478.219 124.313 L 478.219 230.974 L 414.219 230.974 L 414.219 107.686 L 234.054 107.686 Z" style="filter: none;">
        <title>shadow handle</title>
      </path>
    </clipPath>
    <radialGradient gradientUnits="userSpaceOnUse" cx="324.136" cy="-75.686" r="90.082" id="gradient-9">
      <stop offset="0" style="stop-color: rgba(6, 136, 30, 1)"/>
      <stop offset="1" style="stop-color: rgb(6, 136, 30);"/>
    </radialGradient>
    <linearGradient gradientUnits="userSpaceOnUse" x1="246.487" y1="43.686" x2="246.487" y2="107.686" id="gradient-1" gradientTransform="matrix(0.144074, 0.989567, -0.315078, 0.045874, 233.494156, -173.68145)">
      <stop offset="0" style="stop-color: rgba(6, 136, 30, 0);"/>
      <stop offset="1" style="stop-color: rgba(0, 0, 0, 0.38);"/>
    </linearGradient>
    <linearGradient gradientUnits="userSpaceOnUse" x1="246.487" y1="43.686" x2="246.487" y2="107.686" id="gradient-2" gradientTransform="matrix(0.144074, 0.989567, -0.315078, 0.045874, -414.779709, -173.681923)">
      <stop offset="0" style="stop-color: rgba(6, 136, 30, 0);"/>
      <stop offset="1" style="stop-color: rgba(0, 0, 0, 0.38);"/>
    </linearGradient>
    <linearGradient gradientUnits="userSpaceOnUse" x1="246.487" y1="43.686" x2="246.487" y2="107.686" id="gradient-3" gradientTransform="matrix(0.008072, 0.999968, -0.319014, 0.002576, -382.696625, -171.582947)">
      <stop offset="0" style="stop-color: rgba(6, 136, 30, 0);"/>
      <stop offset="1" style="stop-color: rgba(0, 0, 0, 0.38);"/>
    </linearGradient>
    <linearGradient gradientUnits="userSpaceOnUse" x1="246.487" y1="43.686" x2="246.487" y2="107.686" id="gradient-4" gradientTransform="matrix(0.008719, 0.999962, -0.328878, 0.002869, 450.372116, -258.985123)">
      <stop offset="0" style="stop-color: rgba(6, 136, 30, 0);"/>
      <stop offset="1" style="stop-color: rgba(0, 0, 0, 0.38);"/>
    </linearGradient>
    <filter id="drop-shadow-filter-0" x="-500%" y="-500%" width="1000%" height="1000%" bx:preset="drop-shadow 1 0 10 14 0.73 rgba(0,0,0,0.4)">
      <feGaussianBlur in="SourceAlpha" stdDeviation="14"/>
      <feOffset dx="0" dy="10"/>
      <feComponentTransfer result="offsetblur">
        <feFuncA id="spread-ctrl" type="linear" slope="1.46"/>
      </feComponentTransfer>
      <feFlood flood-color="rgba(0,0,0,0.4)" x="10" y="10"/>
      <feComposite in2="offsetblur" operator="in"/>
      <feMerge>
        <feMergeNode/>
        <feMergeNode in="SourceGraphic"/>
      </feMerge>
    </filter>
    <linearGradient gradientUnits="userSpaceOnUse" x1="246.487" y1="43.686" x2="246.487" y2="107.686" id="gradient-5" gradientTransform="matrix(0.013747, 0.462034, -0.543285, 0.00119, 536.939941, -323.788818)">
      <stop offset="0" style="stop-color: rgba(6, 136, 30, 0);"/>
      <stop offset="1" style="stop-color: rgba(0, 0, 0, 0.38);"/>
    </linearGradient>
    <linearGradient gradientUnits="userSpaceOnUse" x1="246.487" y1="43.686" x2="246.487" y2="107.686" id="gradient-6" gradientTransform="matrix(0.013747, 0.462034, -0.543285, 0.00119, -359.223267, 95.066528)">
      <stop offset="0" style="stop-color: rgba(6, 136, 30, 0);"/>
      <stop offset="1" style="stop-color: rgba(0, 0, 0, 0.38);"/>
    </linearGradient>
    <linearGradient gradientUnits="userSpaceOnUse" x1="246.487" y1="43.686" x2="246.487" y2="107.686" id="gradient-7" gradientTransform="matrix(0.013747, 0.462034, -0.543287, 0.00119, 292.773651, -323.566833)">
      <stop offset="0" style="stop-color: rgba(6, 136, 30, 0);"/>
      <stop offset="1" style="stop-color: rgba(0, 0, 0, 0.38);"/>
    </linearGradient>
    <linearGradient gradientUnits="userSpaceOnUse" x1="246.487" y1="43.686" x2="246.487" y2="107.686" id="gradient-8" gradientTransform="matrix(0.013747, 0.462034, -0.543285, 0.00119, -115.056702, 95.066589)">
      <stop offset="0" style="stop-color: rgba(6, 136, 30, 0);"/>
      <stop offset="1" style="stop-color: rgba(0, 0, 0, 0.38);"/>
    </linearGradient>
    <clipPath id="clip-1">
      <rect x="179.785" y="270.48" width="292.43" height="292.43" style="" rx="62.1" ry="62.1">
        <title>black</title>
      </rect>
    </clipPath>
    <filter id="drop-shadow-filter-4" x="-500%" y="-500%" width="1000%" height="1000%" bx:preset="drop-shadow 1 0 7 7 0.36 rgba(255,255,255,0.3)">
      <feGaussianBlur in="SourceAlpha" stdDeviation="7"/>
      <feOffset dx="0" dy="7"/>
      <feComponentTransfer result="offsetblur">
        <feFuncA id="spread-ctrl" type="linear" slope="0.72"/>
      </feComponentTransfer>
      <feFlood flood-color="rgba(255,255,255,0.3)" x="10" y="10"/>
      <feComposite in2="offsetblur" operator="in"/>
      <feMerge>
        <feMergeNode/>
        <feMergeNode in="SourceGraphic"/>
      </feMerge>
    </filter>
    <filter id="filter-2" x="-500%" y="-500%" width="1000%" height="1000%" bx:preset="drop-shadow 1 0 -10 5 0.5 rgba(0,0,0,0.3)">
      <feGaussianBlur in="SourceAlpha" stdDeviation="5"/>
      <feOffset dx="0" dy="-10"/>
      <feComponentTransfer result="offsetblur">
        <feFuncA id="feFuncA-2" type="linear" slope="1"/>
      </feComponentTransfer>
      <feFlood flood-color="rgba(0,0,0,0.3)" x="10" y="10"/>
      <feComposite in2="offsetblur" operator="in"/>
      <feMerge>
        <feMergeNode/>
        <feMergeNode in="SourceGraphic"/>
      </feMerge>
    </filter>
  </defs>
  <style type="text/css">
	.st0{fill:#020203;}
	.st1{fill:#6ABF4B;}
	.st2{fill:#C31C4A;}
</style>
  <rect width="652" height="652" style="fill: rgba(0, 0, 0, 0.627);"/>
  <path d="M 244.511 233.829 L 186.615 233.829 L 186.615 137.648 C 187.316 127.897 191.187 118.631 197.638 111.279 L 232.36 76.557 C 239.988 69.355 249.89 65.064 260.327 64.406 L 391.412 64.406 C 401.897 65 411.861 69.26 419.541 76.456 L 454.445 111.36 C 460.791 118.621 464.626 127.737 465.386 137.342 L 465.386 233.829 L 407.49 233.829 L 407.49 122.301 L 244.511 122.301 Z" style="fill: rgb(6, 176, 37); filter: url(#drop-shadow-filter-2);">
    <title>shadow handle</title>
  </path>
  <path style="stroke: url(#gradient-0); fill: rgb(255, 255, 255); stroke-width: 30px; filter: url(#drop-shadow-filter-3);" d="M 82.616 219.956 H 569.384 A 32.576 32.576 0 0 1 601.96 252.532 V 507.898 A 93.699 93.699 0 0 1 508.261 601.597 H 143.739 A 93.699 93.699 0 0 1 50.04 507.898 V 252.532 A 32.576 32.576 0 0 1 82.616 219.956 Z" bx:shape="rect 50.04 219.956 551.92 381.641 32.576 32.576 93.699 93.699 1@53bcc0b7">
    <title>basket</title>
  </path>
  <path style="fill: rgb(255, 255, 255); stroke-width: 30px; filter: url(#drop-shadow-filter-1);" d="M 68.267 238.182 C 64.644 241.805 63.017 244.059 63.61 249.425 L 63.61 516.835 C 63.017 537.469 70.832 553.547 84.461 567.176 C 98.09 580.804 114.167 588.62 134.801 588.027 L 517.2 588.027 C 537.834 588.62 553.911 580.804 567.541 567.176 C 581.169 553.547 588.984 537.469 588.392 516.835 L 588.392 249.425 C 588.984 244.059 587.357 241.805 583.735 238.182 C 580.112 234.559 577.858 232.932 572.492 233.525 L 79.509 233.525 C 74.144 232.932 71.889 234.559 68.267 238.182 Z">
    <title>white cover</title>
  </path>
  <g transform="matrix(0.904613, 0, 0, 0.904613, 32.782234, 24.886568)" style="filter: none; clip-path: url(#clip-0);">
    <title>handle</title>
    <rect x="170.054" y="107.686" width="64" height="123.288" style="fill: rgb(6, 176, 37);"/>
    <rect x="414.219" y="107.686" width="64" height="123.288" style="fill: rgb(6, 176, 37);"/>
    <rect x="234.054" y="-107.686" width="180.165" height="64" style="fill: url(#gradient-9);" transform="matrix(1, 0, 0, -1, 0, 0)"/>
    <path d="M 170.054 107.686 L 234.054 43.686 L 234.054 107.686 L 170.054 107.686 Z" style="fill: rgb(6, 176, 37);"/>
    <path d="M 414.219 43.686 L 478.219 107.686 L 414.219 107.686 L 414.219 43.686 Z" style="fill: rgb(6, 176, 37);"/>
    <rect x="234.054" y="43.686" width="21.139" height="64" style="fill: url(#gradient-1);"/>
    <rect x="-414.219" y="43.686" width="21.139" height="64" style="fill: url(#gradient-2);" transform="matrix(-1, 0, 0, 1, 0, 0)"/>
    <rect x="-416.083" y="43.686" width="21.139" height="64" style="fill: url(#gradient-3); visibility: hidden;" transform="matrix(0, -1, -1, 0, 521.904961, -214.445007)"/>
    <rect x="416.083" y="-43.686" width="21.139" height="64" style="fill: url(#gradient-4); visibility: hidden;" transform="matrix(0, -1, -1, 0, 190.368019, 617.720993)"/>
  </g>
  <g transform="matrix(0.78414, 0, 0, 0.78414, 73.32753, 101.67234)" style="filter: url(#drop-shadow-filter-0);">
    <title>logo</title>
    <rect x="144.58" y="218.624" width="355.3" height="355.3" style="" rx="62.1" ry="62.1">
      <title>black</title>
    </rect>
    <rect x="167.679" y="241.723" width="89.958" height="89.958" style="fill: rgb(247, 13, 78);" rx="28.994" ry="28.994"/>
    <rect x="277.266" y="241.723" width="89.958" height="89.958" style="fill: rgb(247, 13, 78);" rx="28.994" ry="28.994"/>
    <rect x="386.825" y="241.723" width="89.958" height="89.958" style="fill: rgb(247, 13, 78);" rx="28.994" ry="28.994"/>
    <rect x="167.679" y="350.4" width="89.958" height="89.958" style="fill: rgb(247, 13, 78);" rx="28.994" ry="28.994"/>
    <rect x="277.252" y="351.296" width="89.958" height="89.958" style="fill: rgb(247, 13, 78);" rx="28.994" ry="28.994"/>
    <rect x="386.825" y="350.4" width="89.958" height="89.958" style="fill: rgb(247, 13, 78);" rx="28.994" ry="28.994"/>
    <rect x="167.679" y="460.869" width="89.958" height="89.958" style="fill: rgb(247, 13, 78);" rx="28.994" ry="28.994"/>
    <rect x="277.266" y="460.869" width="89.958" height="89.958" style="fill: rgb(247, 13, 78);" rx="28.994" ry="28.994"/>
    <rect x="386.825" y="460.869" width="89.958" height="89.958" style="fill: rgb(247, 13, 78);" rx="28.994" ry="28.994"/>
  </g>
  <g style="visibility: hidden;" transform="matrix(0.904613, 0, 0, 0.904613, 31.096992, 31.095325)">
    <title>crescents</title>
    <path style="fill: rgb(255, 255, 255);" transform="matrix(-0.923872, -0.382702, 0.382702, -0.923872, 309.233303, 504.10176)" d="M 272.93 299.782 A 20.596 20.596 0 0 1 272.93 340.218 A 49.59 49.59 0 0 0 272.93 299.782 Z" bx:shape="crescent 269 320 20.596 158 0.7 1@08b2f45c"/>
    <path style="fill: rgb(255, 255, 255);" transform="matrix(-0.382665, -0.923887, 0.923887, -0.382665, 47.995705, 419.089032)" d="M 272.93 299.782 A 20.596 20.596 0 0 1 272.93 340.218 A 49.59 49.59 0 0 0 272.93 299.782 Z" bx:shape="crescent 269 320 20.596 158 0.7 1@08b2f45c"/>
    <path style="fill: rgb(255, 255, 255);" transform="matrix(0.923872, -0.382702, -0.382702, -0.923872, 342.792393, 504.120131)" d="M 272.93 299.782 A 20.596 20.596 0 0 1 272.93 340.218 A 49.59 49.59 0 0 0 272.93 299.782 Z" bx:shape="crescent 269 320 20.596 158 0.7 1@08b2f45c"/>
    <path style="fill: rgb(255, 255, 255);" transform="matrix(0.382665, -0.923887, -0.923887, -0.382665, 604.029929, 419.1078)" d="M 272.93 299.782 A 20.596 20.596 0 0 1 272.93 340.218 A 49.59 49.59 0 0 0 272.93 299.782 Z" bx:shape="crescent 269 320 20.596 158 0.7 1@08b2f45c"/>
  </g>
  <g style="" transform="matrix(0.904613, 0, 0, 0.904613, 31.096992, 31.095325)">
    <title>shadows around handle</title>
    <rect x="480.082" y="-224.325" width="36" height="29.572" style="fill: url(#gradient-5);" transform="matrix(1, 0, 0, -1, 0, 0)"/>
    <rect x="-416.082" y="194.531" width="36" height="29.572" style="fill: url(#gradient-6);" transform="matrix(-1, 0, 0, 1, 0, 0)"/>
    <rect x="235.917" y="-224.103" width="36" height="29.572" style="fill: url(#gradient-7);" transform="matrix(1, 0, 0, -1, 0, 0)"/>
    <rect x="-171.917" y="194.531" width="36" height="29.572" style="fill: url(#gradient-8);" transform="matrix(-1, 0, 0, 1, 0, 0)"/>
  </g>
  <g style="clip-path: url(#clip-1);" transform="matrix(0.952725, 0, 0, 0.952725, 15.412667, 15.41101)">
    <title>accents</title>
    <path d="M 230.896 270.48 L 421.103 270.48 C 449.331 270.48 472.215 293.363 472.215 321.591 L 472.215 511.798 C 472.215 540.026 449.331 562.91 421.103 562.91 L 230.896 562.91 C 202.668 562.91 179.785 540.026 179.785 511.798 L 179.785 321.591 C 179.785 293.363 202.668 270.48 230.896 270.48 Z M 198.797 313.355 L 198.797 339.668 C 198.797 352.848 209.481 363.532 222.66 363.532 L 248.973 363.532 C 262.152 363.532 272.836 352.848 272.836 339.668 L 272.836 313.355 C 272.836 300.176 262.152 289.492 248.973 289.492 L 222.66 289.492 C 209.481 289.492 198.797 300.176 198.797 313.355 Z M 288.992 313.355 L 288.992 339.668 C 288.992 352.848 299.676 363.532 312.856 363.532 L 339.169 363.532 C 352.348 363.532 363.032 352.848 363.032 339.668 L 363.032 313.355 C 363.032 300.176 352.348 289.492 339.169 289.492 L 312.856 289.492 C 299.676 289.492 288.992 300.176 288.992 313.355 Z M 379.165 313.355 L 379.165 339.668 C 379.165 352.848 389.849 363.532 403.028 363.532 L 429.341 363.532 C 442.521 363.532 453.205 352.848 453.205 339.668 L 453.205 313.355 C 453.205 300.176 442.521 289.492 429.341 289.492 L 403.028 289.492 C 389.849 289.492 379.165 300.176 379.165 313.355 Z M 198.797 402.802 L 198.797 429.115 C 198.797 442.294 209.481 452.978 222.66 452.978 L 248.973 452.978 C 262.152 452.978 272.836 442.294 272.836 429.115 L 272.836 402.802 C 272.836 389.622 262.152 378.938 248.973 378.938 L 222.66 378.938 C 209.481 378.938 198.797 389.622 198.797 402.802 Z M 288.981 403.539 L 288.981 429.852 C 288.981 443.032 299.665 453.716 312.844 453.716 L 339.157 453.716 C 352.336 453.716 363.021 443.032 363.021 429.852 L 363.021 403.539 C 363.021 390.36 352.336 379.676 339.157 379.676 L 312.844 379.676 C 299.665 379.676 288.981 390.36 288.981 403.539 Z M 379.165 402.802 L 379.165 429.115 C 379.165 442.294 389.849 452.978 403.028 452.978 L 429.341 452.978 C 442.521 452.978 453.205 442.294 453.205 429.115 L 453.205 402.802 C 453.205 389.622 442.521 378.938 429.341 378.938 L 403.028 378.938 C 389.849 378.938 379.165 389.622 379.165 402.802 Z M 198.797 493.723 L 198.797 520.036 C 198.797 533.216 209.481 543.9 222.66 543.9 L 248.973 543.9 C 262.152 543.9 272.836 533.216 272.836 520.036 L 272.836 493.723 C 272.836 480.544 262.152 469.86 248.973 469.86 L 222.66 469.86 C 209.481 469.86 198.797 480.544 198.797 493.723 Z M 288.992 493.723 L 288.992 520.036 C 288.992 533.216 299.676 543.9 312.856 543.9 L 339.169 543.9 C 352.348 543.9 363.032 533.216 363.032 520.036 L 363.032 493.723 C 363.032 480.544 352.348 469.86 339.169 469.86 L 312.856 469.86 C 299.676 469.86 288.992 480.544 288.992 493.723 Z M 379.165 493.723 L 379.165 520.036 C 379.165 533.216 389.849 543.9 403.028 543.9 L 429.341 543.9 C 442.521 543.9 453.205 533.216 453.205 520.036 L 453.205 493.723 C 453.205 480.544 442.521 469.86 429.341 469.86 L 403.028 469.86 C 389.849 469.86 379.165 480.544 379.165 493.723 Z" style="filter: url(#drop-shadow-filter-4); isolation: isolate;">
      <title>white accents</title>
    </path>
    <path d="M 230.896 270.48 L 421.103 270.48 C 449.331 270.48 472.215 293.363 472.215 321.591 L 472.215 511.798 C 472.215 540.026 449.331 562.91 421.103 562.91 L 230.896 562.91 C 202.668 562.91 179.785 540.026 179.785 511.798 L 179.785 321.591 C 179.785 293.363 202.668 270.48 230.896 270.48 Z M 198.797 313.355 L 198.797 339.668 C 198.797 352.848 209.481 363.532 222.66 363.532 L 248.973 363.532 C 262.152 363.532 272.836 352.848 272.836 339.668 L 272.836 313.355 C 272.836 300.176 262.152 289.492 248.973 289.492 L 222.66 289.492 C 209.481 289.492 198.797 300.176 198.797 313.355 Z M 288.992 313.355 L 288.992 339.668 C 288.992 352.848 299.676 363.532 312.856 363.532 L 339.169 363.532 C 352.348 363.532 363.032 352.848 363.032 339.668 L 363.032 313.355 C 363.032 300.176 352.348 289.492 339.169 289.492 L 312.856 289.492 C 299.676 289.492 288.992 300.176 288.992 313.355 Z M 379.165 313.355 L 379.165 339.668 C 379.165 352.848 389.849 363.532 403.028 363.532 L 429.341 363.532 C 442.521 363.532 453.205 352.848 453.205 339.668 L 453.205 313.355 C 453.205 300.176 442.521 289.492 429.341 289.492 L 403.028 289.492 C 389.849 289.492 379.165 300.176 379.165 313.355 Z M 198.797 402.802 L 198.797 429.115 C 198.797 442.294 209.481 452.978 222.66 452.978 L 248.973 452.978 C 262.152 452.978 272.836 442.294 272.836 429.115 L 272.836 402.802 C 272.836 389.622 262.152 378.938 248.973 378.938 L 222.66 378.938 C 209.481 378.938 198.797 389.622 198.797 402.802 Z M 288.981 403.539 L 288.981 429.852 C 288.981 443.032 299.665 453.716 312.844 453.716 L 339.157 453.716 C 352.336 453.716 363.021 443.032 363.021 429.852 L 363.021 403.539 C 363.021 390.36 352.336 379.676 339.157 379.676 L 312.844 379.676 C 299.665 379.676 288.981 390.36 288.981 403.539 Z M 379.165 402.802 L 379.165 429.115 C 379.165 442.294 389.849 452.978 403.028 452.978 L 429.341 452.978 C 442.521 452.978 453.205 442.294 453.205 429.115 L 453.205 402.802 C 453.205 389.622 442.521 378.938 429.341 378.938 L 403.028 378.938 C 389.849 378.938 379.165 389.622 379.165 402.802 Z M 198.797 493.723 L 198.797 520.036 C 198.797 533.216 209.481 543.9 222.66 543.9 L 248.973 543.9 C 262.152 543.9 272.836 533.216 272.836 520.036 L 272.836 493.723 C 272.836 480.544 262.152 469.86 248.973 469.86 L 222.66 469.86 C 209.481 469.86 198.797 480.544 198.797 493.723 Z M 288.992 493.723 L 288.992 520.036 C 288.992 533.216 299.676 543.9 312.856 543.9 L 339.169 543.9 C 352.348 543.9 363.032 533.216 363.032 520.036 L 363.032 493.723 C 363.032 480.544 352.348 469.86 339.169 469.86 L 312.856 469.86 C 299.676 469.86 288.992 480.544 288.992 493.723 Z M 379.165 493.723 L 379.165 520.036 C 379.165 533.216 389.849 543.9 403.028 543.9 L 429.341 543.9 C 442.521 543.9 453.205 533.216 453.205 520.036 L 453.205 493.723 C 453.205 480.544 442.521 469.86 429.341 469.86 L 403.028 469.86 C 389.849 469.86 379.165 480.544 379.165 493.723 Z" style="filter: url(#filter-2);">
      <title>black accents</title>
    </path>
  </g>
</svg>