<?xml version="1.0" encoding="utf-8"?>
<svg viewBox="0 0 20.001 20.001" xmlns="http://www.w3.org/2000/svg" xmlns:bx="https://boxy-svg.com">
  <circle style="fill: rgb(36, 0, 0);" cx="10" cy="10" r="9.509"/>
  <path d="M 534 337 m -10 0 a 10 10 0 1 0 20 0 a 10 10 0 1 0 -20 0 Z M 534 337 m -8.107 0 a 8.107 8.107 0 0 1 16.214 0 a 8.107 8.107 0 0 1 -16.214 0 Z" style="fill: rgb(187, 0, 0);" transform="matrix(1, -0.000043, 0.000043, 1, -524.014488, -326.977039)" bx:shape="ring 534 337 8.107 8.107 10 10 1@5d82d7ed"/>
  <path d="M 10 3.345 L 10.001 3.345 L 10.001 10 L 16.656 10 L 16.656 10.001 L 10.001 10.001 L 10.001 16.656 L 10 16.656 L 10 10.001 L 3.345 10.001 L 3.345 10 L 10 10 Z" style="fill: none; stroke-width: 2px; stroke-linecap: round; stroke-linejoin: round; stroke: rgb(255, 77, 54);" transform="matrix(0.712696, 0.701473, -0.701473, 0.712696, 9.888264, -4.141897)"/>
</svg>