<?xml version="1.0" encoding="utf-8"?>
<svg width="512" height="512" viewBox="0 0 512 512" fill="none" xmlns="http://www.w3.org/2000/svg" xmlns:xlink="http://www.w3.org/1999/xlink" xmlns:bx="https://boxy-svg.com">
  <style>
        /* if preferred theme is dark mode */
        .background {
            /* top left to bottom right 212121 to 000000 */
            fill: url(#paint3_linear_12_937);
        }
        @media (prefers-color-scheme: dark) {
            .background {
                /* top left to bottom right 212121 to 000000 */
                fill: url(#paint3_linear_14_946);
            }
        }
    </style>
  <defs>
    <linearGradient id="gradient-0" bx:pinned="true">
      <title>pink</title>
      <stop offset="0" style="stop-color: rgb(255, 47, 106);"/>
      <stop offset="0.491" style="stop-color: rgb(255, 5, 76);"/>
      <stop offset="1" style="stop-color: rgb(223, 0, 63);"/>
    </linearGradient>
    <linearGradient id="gradient-0-0" gradientUnits="userSpaceOnUse" x1="256" y1="176" x2="256" y2="432" gradientTransform="matrix(0.922824, -0.544635, 0.596556, 1.128032, -160.115604, 119.804918)" xlink:href="#gradient-0"/>
    <linearGradient gradientUnits="userSpaceOnUse" x1="256" y1="109.578" x2="256" y2="512" id="gradient-1" gradientTransform="matrix(0.851751, -0.500013, 0.57409, 0.892842, -182.474014, 187.884277)">
      <stop offset="0" style="stop-color: rgb(39, 39, 39);"/>
      <stop offset="1" style="stop-color: rgb(4, 4, 4);"/>
    </linearGradient>
    <clipPath id="clip-0">
      <path d="M 234.054 230.974 L 170.054 230.974 L 170.054 124.652 C 170.828 113.872 175.107 103.629 182.239 95.501 L 220.622 57.118 C 229.054 49.157 240 44.414 251.538 43.686 L 396.445 43.686 C 408.036 44.343 419.05 49.052 427.54 57.007 L 466.124 95.591 C 473.139 103.618 477.379 113.695 478.219 124.313 L 478.219 230.974 L 414.219 230.974 L 414.219 107.686 L 234.054 107.686 Z" style="filter: none;">
        <title>shadow handle</title>
      </path>
    </clipPath>
    <radialGradient gradientUnits="userSpaceOnUse" cx="324.136" cy="-75.686" r="90.082" id="gradient-9">
      <stop offset="0" style="stop-color: rgba(6, 136, 30, 1)"/>
      <stop offset="1" style="stop-color: rgb(6, 136, 30);"/>
    </radialGradient>
    <linearGradient gradientUnits="userSpaceOnUse" x1="246.487" y1="43.686" x2="246.487" y2="107.686" id="gradient-5" gradientTransform="matrix(0.235049, 0.992536, -1.144542, 0.055825, 296.983429, -176.121595)">
      <stop offset="0" style="stop-opacity: 0; stop-color: rgb(9, 191, 44);"/>
      <stop offset="1" style="stop-color: rgba(0, 0, 0, 0.38);"/>
    </linearGradient>
    <linearGradient gradientUnits="userSpaceOnUse" x1="256" y1="139.645" x2="256" y2="499.111" id="gradient-6" gradientTransform="matrix(0.83283, -0.598847, 0.696875, 0.97352, -174.700954, 161.044677)">
      <stop offset="0" style="stop-color: rgb(83, 213, 255);"/>
      <stop offset="1" style="stop-color: rgb(92, 56, 207);"/>
    </linearGradient>
    <radialGradient gradientUnits="userSpaceOnUse" cx="196.94" cy="15.774" r="154.082" id="gradient-4" gradientTransform="matrix(-0.053568, 1.75092, -2.580057, -0.078937, 214.819174, -334.606125)">
      <stop offset="0" style="stop-color: rgb(94, 255, 188);"/>
      <stop offset="1" style="stop-color: rgb(124, 124, 124);"/>
    </radialGradient>
    <filter id="inner-shadow-filter-0" x="-500%" y="-500%" width="1000%" height="1000%" bx:preset="inner-shadow 1 0 5 6 0.15 rgba(255,255,255,0.7)">
      <feOffset dx="0" dy="5"/>
      <feGaussianBlur stdDeviation="6"/>
      <feComposite operator="out" in="SourceGraphic"/>
      <feComponentTransfer result="choke">
        <feFuncA type="linear" slope="0.3"/>
      </feComponentTransfer>
      <feFlood flood-color="rgba(255,255,255,0.7)" result="color"/>
      <feComposite operator="in" in="color" in2="choke" result="shadow"/>
      <feComposite operator="over" in="shadow" in2="SourceGraphic"/>
    </filter>
    <filter id="inner-shadow-filter-1" x="-500%" y="-500%" width="1000%" height="1000%" bx:preset="inner-shadow 1 0 -5 6 0.5 rgba(0,0,0,0.7)">
      <feOffset dx="0" dy="-5"/>
      <feGaussianBlur stdDeviation="6"/>
      <feComposite operator="out" in="SourceGraphic"/>
      <feComponentTransfer result="choke">
        <feFuncA type="linear" slope="1"/>
      </feComponentTransfer>
      <feFlood flood-color="rgba(0,0,0,0.7)" result="color"/>
      <feComposite operator="in" in="color" in2="choke" result="shadow"/>
      <feComposite operator="over" in="shadow" in2="SourceGraphic"/>
    </filter>
    <linearGradient gradientUnits="userSpaceOnUse" x1="246.487" y1="43.686" x2="246.487" y2="107.686" id="gradient-2" gradientTransform="matrix(0.19221, 0.99675, -1.060395, 0.035923, -349.524277, -175.017197)">
      <stop offset="0" style="stop-opacity: 0; stop-color: rgb(9, 191, 44);"/>
      <stop offset="1" style="stop-color: rgba(0, 0, 0, 0.38);"/>
    </linearGradient>
  </defs>
  <g transform="matrix(0.863504, 0, 0, 0.863504, -23.893173, -37.692394)" style="filter: none; clip-path: url(#clip-0);">
    <title>handle</title>
    <rect x="170.054" y="106.528" width="64" height="116.193" style="fill: rgb(6, 176, 60);"/>
    <rect x="414.219" y="106.528" width="64" height="116.193" style="fill: rgb(6, 176, 60);"/>
    <rect x="234.054" y="-107.686" width="180.165" height="64" style="fill: url(#gradient-9);" transform="matrix(1, 0, 0, -1, 0, 0)"/>
    <path d="M 170.054 107.686 L 234.054 43.686 L 234.054 107.686 L 170.054 107.686 Z" style="fill: rgb(6, 176, 60);"/>
    <path d="M 414.219 43.686 L 478.219 107.686 L 414.219 107.686 L 414.219 43.686 Z" style="fill: rgb(6, 176, 60);"/>
    <rect x="234.054" y="43.686" width="56.804" height="64" style="fill: url(#gradient-5);"/>
    <rect x="-414.219" y="43.686" width="50.435" height="64" style="fill: url(#gradient-2);" transform="matrix(-1, 0, 0, 1, 0, 0)"/>
    <path d="M 234.054 43.686 L 414.219 43.686 L 477.061 106.528 L 478.219 106.528 L 478.219 222.721 L 414.219 222.721 L 414.219 107.686 L 234.054 107.686 L 234.054 222.721 L 170.054 222.721 L 170.054 106.528 L 171.212 106.528 Z" style="mix-blend-mode: overlay; fill: url(#gradient-4);">
      <title>handle gradient</title>
    </path>
  </g>
  <path style="fill: url(#gradient-1);" d="M 58.44 127.615 H 453.56 A 58.44 58.44 0 0 1 512 186.055 V 370.793 A 141.207 141.207 0 0 1 370.793 512 H 141.207 A 141.207 141.207 0 0 1 0 370.793 V 186.055 A 58.44 58.44 0 0 1 58.44 127.615 Z" bx:shape="rect 0 127.615 512 384.385 58.44 58.44 141.207 141.207 1@68dab606"/>
  <g style="filter: url(#inner-shadow-filter-1);">
    <title>dots</title>
    <path fill-rule="evenodd" clip-rule="evenodd" d="M 120.805 224.646 C 120.805 189.157 124.315 185.647 159.805 185.647 C 195.296 185.647 198.805 189.157 198.805 224.646 C 198.805 260.136 195.296 263.647 159.805 263.647 C 124.315 263.647 120.805 260.136 120.805 224.646 Z M 391.194 416.648 C 391.194 452.136 387.685 455.647 352.194 455.647 C 316.703 455.647 313.194 452.136 313.194 416.648 C 313.194 381.158 316.703 377.647 352.194 377.647 C 387.685 377.647 391.194 381.158 391.194 416.648 Z M 313.064 320.647 C 313.064 285.158 316.575 281.647 352.065 281.647 C 387.553 281.647 391.064 285.158 391.064 320.647 C 391.064 356.136 387.553 359.647 352.065 359.647 C 316.575 359.647 313.064 356.136 313.064 320.647 Z M 390.805 224.646 C 390.805 260.136 387.296 263.647 351.805 263.647 C 316.314 263.647 312.805 260.136 312.805 224.646 C 312.805 189.157 316.314 185.647 351.805 185.647 C 387.296 185.647 390.805 189.157 390.805 224.646 Z M 217.194 416.648 C 217.194 381.158 220.704 377.647 256.195 377.647 C 291.684 377.647 295.194 381.158 295.194 416.648 C 295.194 452.136 291.684 455.647 256.195 455.647 C 220.704 455.647 217.194 452.136 217.194 416.648 Z M 295.064 320.647 C 295.064 356.136 291.554 359.647 256.065 359.647 C 220.574 359.647 217.064 356.136 217.064 320.647 C 217.064 285.158 220.574 281.647 256.065 281.647 C 291.554 281.647 295.064 285.158 295.064 320.647 Z M 216.805 224.646 C 216.805 189.157 220.315 185.647 255.805 185.647 C 291.295 185.647 294.805 189.157 294.805 224.646 C 294.805 260.136 291.295 263.647 255.805 263.647 C 220.315 263.647 216.805 260.136 216.805 224.646 Z M 199.194 416.648 C 199.194 452.136 195.685 455.647 160.194 455.647 C 124.705 455.647 121.194 452.136 121.194 416.648 C 121.194 381.158 124.705 377.647 160.194 377.647 C 195.685 377.647 199.194 381.158 199.194 416.648 Z M 121.064 320.647 C 121.064 285.158 124.574 281.647 160.065 281.647 C 195.554 281.647 199.064 285.158 199.064 320.647 C 199.064 356.136 195.554 359.647 160.065 359.647 C 124.574 359.647 121.064 356.136 121.064 320.647 Z" style="fill: url(#gradient-0-0); filter: url(#inner-shadow-filter-0);"/>
  </g>
  <path style="stroke: url(#gradient-6); stroke-width: 15px;" d="M 45.062 134.845 H 466.243 A 37.817 37.817 0 0 1 504.06 172.662 V 395.342 A 109.413 109.413 0 0 1 394.647 504.755 H 116.658 A 109.413 109.413 0 0 1 7.245 395.342 V 172.662 A 37.817 37.817 0 0 1 45.062 134.845 Z" bx:shape="rect 7.245 134.845 496.815 369.91 37.817 37.817 109.413 109.413 1@44a8717c"/>
  <g style="visibility: hidden;">
    <title>16x16 grid</title>
    <rect width="512" height="32" style="stroke: rgb(48, 141, 63); stroke-opacity: 0.42;" y="320"/>
    <rect width="512" height="32" style="stroke: rgb(48, 141, 63); stroke-opacity: 0.42;" y="288"/>
    <rect width="512" height="32" style="stroke: rgb(48, 141, 63); stroke-opacity: 0.42;" y="256"/>
    <rect width="512" height="32" style="stroke: rgb(48, 141, 63); stroke-opacity: 0.42;" y="224"/>
    <rect width="512" height="32" style="stroke: rgb(48, 141, 63); stroke-opacity: 0.42;" y="192"/>
    <rect width="512" height="32" style="stroke: rgb(48, 141, 63); stroke-opacity: 0.42;" y="160"/>
    <rect width="512" height="32" style="stroke: rgb(48, 141, 63); stroke-opacity: 0.42;" y="128"/>
    <rect width="512" height="32" style="stroke: rgb(48, 141, 63); stroke-opacity: 0.42;" y="96"/>
    <rect width="512" height="32" style="stroke: rgb(48, 141, 63); stroke-opacity: 0.42;" y="64"/>
    <rect width="512" height="32" style="stroke: rgb(48, 141, 63); stroke-opacity: 0.42;" y="32"/>
    <rect width="512" height="32" style="stroke: rgb(48, 141, 63); stroke-opacity: 0.42;"/>
    <rect width="512" height="32" style="stroke: rgb(48, 141, 63); stroke-opacity: 0.42;" y="352"/>
    <rect width="512" height="32" style="stroke: rgb(48, 141, 63); stroke-opacity: 0.42;" y="384"/>
    <rect width="512" height="32" style="stroke: rgb(48, 141, 63); stroke-opacity: 0.42;" y="416"/>
    <rect width="512" height="32" style="stroke: rgb(48, 141, 63); stroke-opacity: 0.42;" y="448"/>
    <rect width="512" height="32" style="stroke: rgb(48, 141, 63); stroke-opacity: 0.42;" y="480"/>
    <rect width="512" height="32" style="stroke: rgb(48, 141, 63); stroke-opacity: 0.42;" y="-320" transform="matrix(0, 1, 1, 0, 640, -512)" x="512"/>
    <rect width="512" height="32" style="stroke: rgb(48, 141, 63); stroke-opacity: 0.42;" y="-288" transform="matrix(0, 1, 1, 0, 576, -512)" x="512"/>
    <rect width="512" height="32" style="stroke: rgb(48, 141, 63); stroke-opacity: 0.42;" y="-256" transform="matrix(0, 1, 1, 0, 512, -512)" x="512"/>
    <rect width="512" height="32" style="stroke: rgb(48, 141, 63); stroke-opacity: 0.42;" y="-224" transform="matrix(0, 1, 1, 0, 448, -512)" x="512"/>
    <rect width="512" height="32" style="stroke: rgb(48, 141, 63); stroke-opacity: 0.42;" y="-192" transform="matrix(0, 1, 1, 0, 384, -512)" x="512"/>
    <rect width="512" height="32" style="stroke: rgb(48, 141, 63); stroke-opacity: 0.42;" y="-160" transform="matrix(0, 1, 1, 0, 320, -512)" x="512"/>
    <rect width="512" height="32" style="stroke: rgb(48, 141, 63); stroke-opacity: 0.42;" y="-128" transform="matrix(0, 1, 1, 0, 256, -512)" x="512"/>
    <rect width="512" height="32" style="stroke: rgb(48, 141, 63); stroke-opacity: 0.42;" y="-96" transform="matrix(0, 1, 1, 0, 192, -512)" x="512"/>
    <rect width="512" height="32" style="stroke: rgb(48, 141, 63); stroke-opacity: 0.42;" y="-64" transform="matrix(0, 1, 1, 0, 128, -512)" x="512"/>
    <rect width="512" height="32" style="stroke: rgb(48, 141, 63); stroke-opacity: 0.42;" y="-32" transform="matrix(0, 1, 1, 0, 64, -512)" x="512"/>
    <rect width="512" height="32" style="stroke: rgb(48, 141, 63); stroke-opacity: 0.42;" transform="matrix(0, 1, 1, 0, 0, -512)" x="512"/>
    <rect width="512" height="32" style="stroke: rgb(48, 141, 63); stroke-opacity: 0.42;" y="-352" transform="matrix(0, 1, 1, 0, 704, -512)" x="512"/>
    <rect width="512" height="32" style="stroke: rgb(48, 141, 63); stroke-opacity: 0.42;" y="-384" transform="matrix(0, 1, 1, 0, 768, -512)" x="512"/>
    <rect width="512" height="32" style="stroke: rgb(48, 141, 63); stroke-opacity: 0.42;" y="-416" transform="matrix(0, 1, 1, 0, 832, -512)" x="512"/>
    <rect width="512" height="32" style="stroke: rgb(48, 141, 63); stroke-opacity: 0.42;" y="-448" transform="matrix(0, 1, 1, 0, 896, -512)" x="512"/>
    <rect width="512" height="32" style="stroke: rgb(48, 141, 63); stroke-opacity: 0.42;" y="-480" transform="matrix(0, 1, 1, 0, 960, -512)" x="512"/>
  </g>
</svg>