<?xml version="1.0" encoding="utf-8"?>
<svg version="1.1" id="layer" x="0px" y="0px" viewBox="0 0 652 652" style="enable-background:new 0 0 652 652;" xmlns="http://www.w3.org/2000/svg" xmlns:bx="https://greentree.cf">
  <defs>
    <linearGradient gradientUnits="userSpaceOnUse" x1="326" y1="201.157" x2="326" y2="652" id="gradient-0" gradientTransform="matrix(0.846503, 0, 0, 0.846503, 50.039464, 49.675918)">
      <stop offset="0" style="stop-color: rgb(53, 59, 255);"/>
      <stop offset="1" style="stop-color: rgb(8, 0, 166);"/>
    </linearGradient>
    <linearGradient gradientUnits="userSpaceOnUse" x1="246.487" y1="43.686" x2="246.487" y2="107.686" id="gradient-1" gradientTransform="matrix(0.144074, 0.989567, -0.315078, 0.045874, 233.494156, -173.68145)">
      <stop offset="0" style="stop-color: rgba(6, 136, 30, 0);"/>
      <stop offset="1" style="stop-color: rgba(0, 0, 0, 0.38);"/>
    </linearGradient>
    <linearGradient gradientUnits="userSpaceOnUse" x1="246.487" y1="43.686" x2="246.487" y2="107.686" id="gradient-2" gradientTransform="matrix(0.144074, 0.989567, -0.315078, 0.045874, -414.779709, -173.681923)">
      <stop offset="0" style="stop-color: rgba(6, 136, 30, 0);"/>
      <stop offset="1" style="stop-color: rgba(0, 0, 0, 0.38);"/>
    </linearGradient>
    <linearGradient gradientUnits="userSpaceOnUse" x1="246.487" y1="43.686" x2="246.487" y2="107.686" id="gradient-3" gradientTransform="matrix(0.008072, 0.999968, -0.319014, 0.002576, -382.696625, -171.582947)">
      <stop offset="0" style="stop-color: rgba(6, 136, 30, 0);"/>
      <stop offset="1" style="stop-color: rgba(0, 0, 0, 0.38);"/>
    </linearGradient>
    <linearGradient gradientUnits="userSpaceOnUse" x1="246.487" y1="43.686" x2="246.487" y2="107.686" id="gradient-4" gradientTransform="matrix(0.008719, 0.999962, -0.328878, 0.002869, 450.372116, -258.985123)">
      <stop offset="0" style="stop-color: rgba(6, 136, 30, 0);"/>
      <stop offset="1" style="stop-color: rgba(0, 0, 0, 0.38);"/>
    </linearGradient>
    <linearGradient gradientUnits="userSpaceOnUse" x1="246.487" y1="43.686" x2="246.487" y2="107.686" id="gradient-5" gradientTransform="matrix(0.013747, 0.485994, -0.543285, 0.001252, 536.939941, -328.946681)">
      <stop offset="0" style="stop-color: rgba(6, 136, 30, 0);"/>
      <stop offset="1" style="stop-color: rgba(0, 0, 0, 0.38);"/>
    </linearGradient>
    <linearGradient gradientUnits="userSpaceOnUse" x1="246.487" y1="43.686" x2="246.487" y2="107.686" id="gradient-6" gradientTransform="matrix(0.013747, 0.485994, -0.543285, 0.001252, -359.223267, 88.363623)">
      <stop offset="0" style="stop-color: rgba(6, 136, 30, 0);"/>
      <stop offset="1" style="stop-color: rgba(0, 0, 0, 0.38);"/>
    </linearGradient>
    <linearGradient gradientUnits="userSpaceOnUse" x1="246.487" y1="43.686" x2="246.487" y2="107.686" id="gradient-7" gradientTransform="matrix(0.013747, 0.485994, -0.543287, 0.001252, 292.773651, -328.713185)">
      <stop offset="0" style="stop-color: rgba(6, 136, 30, 0);"/>
      <stop offset="1" style="stop-color: rgba(0, 0, 0, 0.38);"/>
    </linearGradient>
    <linearGradient gradientUnits="userSpaceOnUse" x1="246.487" y1="43.686" x2="246.487" y2="107.686" id="gradient-8" gradientTransform="matrix(0.013747, 0.485994, -0.543285, 0.001252, -115.056702, 88.363687)">
      <stop offset="0" style="stop-color: rgba(6, 136, 30, 0);"/>
      <stop offset="1" style="stop-color: rgba(0, 0, 0, 0.38);"/>
    </linearGradient>
    <radialGradient gradientUnits="userSpaceOnUse" cx="324.136" cy="-75.686" r="90.082" id="gradient-9">
      <stop offset="0" style="stop-color: rgba(6, 136, 30, 1)"/>
      <stop offset="1" style="stop-color: rgb(6, 136, 30);"/>
    </radialGradient>
    <clipPath id="clip-0">
      <path d="M 234.054 230.974 L 170.054 230.974 L 170.054 124.652 C 170.828 113.872 175.107 103.629 182.239 95.501 L 220.622 57.118 C 229.054 49.157 240 44.414 251.538 43.686 L 396.445 43.686 C 408.036 44.343 419.05 49.052 427.54 57.007 L 466.124 95.591 C 473.139 103.618 477.379 113.695 478.219 124.313 L 478.219 230.974 L 414.219 230.974 L 414.219 107.686 L 234.054 107.686 Z" style="filter: none;">
        <title>shadow handle</title>
      </path>
    </clipPath>
    <filter id="drop-shadow-filter-4" x="-500%" y="-500%" width="1000%" height="1000%" bx:preset="drop-shadow 1 0 7 7 0.36 rgba(255,255,255,0.3)">
      <feGaussianBlur in="SourceAlpha" stdDeviation="7"/>
      <feOffset dx="0" dy="7"/>
      <feComponentTransfer result="offsetblur">
        <feFuncA id="spread-ctrl" type="linear" slope="0.72"/>
      </feComponentTransfer>
      <feFlood flood-color="rgba(255,255,255,0.3)" x="10" y="10"/>
      <feComposite in2="offsetblur" operator="in"/>
      <feMerge>
        <feMergeNode/>
        <feMergeNode in="SourceGraphic"/>
      </feMerge>
    </filter>
    <filter id="filter-2" x="-500%" y="-500%" width="1000%" height="1000%" bx:preset="drop-shadow 1 0 -10 5 0.5 rgba(0,0,0,0.3)">
      <feGaussianBlur in="SourceAlpha" stdDeviation="5"/>
      <feOffset dx="0" dy="-10"/>
      <feComponentTransfer result="offsetblur">
        <feFuncA id="feFuncA-2" type="linear" slope="1"/>
      </feComponentTransfer>
      <feFlood flood-color="rgba(0,0,0,0.3)" x="10" y="10"/>
      <feComposite in2="offsetblur" operator="in"/>
      <feMerge>
        <feMergeNode/>
        <feMergeNode in="SourceGraphic"/>
      </feMerge>
    </filter>
    <clipPath id="clip-1">
      <rect x="179.785" y="270.48" width="292.43" height="292.43" style="" rx="62.1" ry="62.1">
        <title>black</title>
      </rect>
    </clipPath>
  </defs>
  <style type="text/css">
	.st0{fill:#020203;}
	.st1{fill:#6ABF4B;}
	.st2{fill:#C31C4A;}
</style>
  <path d="M 244.51 233.83 L 186.614 233.83 L 186.614 137.649 C 187.315 127.898 191.186 118.632 197.637 111.28 L 232.359 76.558 C 239.987 69.356 249.889 65.065 260.326 64.407 L 391.411 64.407 C 401.896 65.001 411.86 69.261 419.54 76.457 L 454.444 111.361 C 460.79 118.622 464.625 127.738 465.385 137.343 L 465.385 233.83 L 407.489 233.83 L 407.489 122.302 L 244.51 122.302 Z" style="fill: rgb(6, 176, 37); filter: none;">
    <title>shadow handle</title>
  </path>
  <path style="stroke: url(#gradient-0); fill: rgb(255, 255, 255); stroke-width: 30px; filter: none;" d="M 82.615 219.957 H 569.383 A 32.576 32.576 0 0 1 601.959 252.533 V 510.694 A 90.904 90.904 0 0 1 511.055 601.598 H 140.943 A 90.904 90.904 0 0 1 50.039 510.694 V 252.533 A 32.576 32.576 0 0 1 82.615 219.957 Z" bx:shape="rect 50.039 219.957 551.92 381.641 32.576 32.576 90.904 90.904 1@2727ec7d">
    <title>basket</title>
  </path>
  <path style="fill: rgb(255, 255, 255); stroke-width: 30px; filter: none;" d="M 68.266 238.183 C 64.643 241.806 63.016 244.06 63.609 249.426 L 63.609 516.836 C 63.016 537.47 70.831 553.548 84.46 567.177 C 98.089 580.805 114.166 588.621 134.8 588.028 L 517.199 588.028 C 537.833 588.621 553.91 580.805 567.54 567.177 C 581.168 553.548 588.983 537.47 588.391 516.836 L 588.391 249.426 C 588.983 244.06 587.356 241.806 583.734 238.183 C 580.111 234.56 577.857 232.933 572.491 233.526 L 79.508 233.526 C 74.143 232.933 71.888 234.56 68.266 238.183 Z">
    <title>white cover</title>
  </path>
  <g transform="matrix(0.904613, 0, 0, 0.904613, 32.781208, 24.887253)" style="filter: none; clip-path: url(#clip-0);">
    <title>handle</title>
    <rect x="170.054" y="107.686" width="64" height="123.288" style="fill: rgb(6, 176, 37);"/>
    <rect x="414.219" y="107.686" width="64" height="123.288" style="fill: rgb(6, 176, 37);"/>
    <rect x="234.054" y="-107.686" width="180.165" height="64" style="fill: url(#gradient-9);" transform="matrix(1, 0, 0, -1, 0, 0)"/>
    <path d="M 170.054 107.686 L 234.054 43.686 L 234.054 107.686 L 170.054 107.686 Z" style="fill: rgb(6, 176, 37);"/>
    <path d="M 414.219 43.686 L 478.219 107.686 L 414.219 107.686 L 414.219 43.686 Z" style="fill: rgb(6, 176, 37);"/>
    <rect x="234.054" y="43.686" width="21.139" height="64" style="fill: url(#gradient-1);"/>
    <rect x="-414.219" y="43.686" width="21.139" height="64" style="fill: url(#gradient-2);" transform="matrix(-1, 0, 0, 1, 0, 0)"/>
    <rect x="-416.083" y="43.686" width="21.139" height="64" style="fill: url(#gradient-3); visibility: hidden;" transform="matrix(0, -1, -1, 0, 521.904961, -214.445007)"/>
    <rect x="416.083" y="-43.686" width="21.139" height="64" style="fill: url(#gradient-4); visibility: hidden;" transform="matrix(0, -1, -1, 0, 190.368019, 617.720993)"/>
  </g>
  <g transform="matrix(0.78414, 0, 0, 0.78414, 73.326454, 101.673027)" style="filter: none;">
    <title>logo</title>
    <rect x="144.58" y="218.624" width="355.3" height="355.3" style="" rx="57.644" ry="57.644">
      <title>black</title>
    </rect>
    <rect x="167.679" y="241.723" width="89.958" height="89.958" style="fill: rgb(247, 13, 78);" rx="28.994" ry="28.994"/>
    <rect x="277.266" y="241.723" width="89.958" height="89.958" style="fill: rgb(247, 13, 78);" rx="28.994" ry="28.994"/>
    <rect x="386.825" y="241.723" width="89.958" height="89.958" style="fill: rgb(247, 13, 78);" rx="28.994" ry="28.994"/>
    <rect x="167.679" y="350.4" width="89.958" height="89.958" style="fill: rgb(247, 13, 78);" rx="28.994" ry="28.994"/>
    <rect x="277.252" y="351.296" width="89.958" height="89.958" style="fill: rgb(247, 13, 78);" rx="28.994" ry="28.994"/>
    <rect x="386.825" y="350.4" width="89.958" height="89.958" style="fill: rgb(247, 13, 78);" rx="28.994" ry="28.994"/>
    <rect x="167.679" y="460.869" width="89.958" height="89.958" style="fill: rgb(247, 13, 78);" rx="28.994" ry="28.994"/>
    <rect x="277.266" y="460.869" width="89.958" height="89.958" style="fill: rgb(247, 13, 78);" rx="28.994" ry="28.994"/>
    <rect x="386.825" y="460.869" width="89.958" height="89.958" style="fill: rgb(247, 13, 78);" rx="28.994" ry="28.994"/>
  </g>
  <g style="visibility: hidden; filter: none;" transform="matrix(0.904613, 0, 0, 0.904613, 31.095921, 31.09601)">
    <title>crescents</title>
    <path style="fill: rgb(255, 255, 255);" transform="matrix(-0.923872, -0.382702, 0.382702, -0.923872, 309.233303, 504.10176)" d="M 272.93 299.782 A 20.596 20.596 0 0 1 272.93 340.218 A 49.59 49.59 0 0 0 272.93 299.782 Z" bx:shape="crescent 269 320 20.596 158 0.7 1@08b2f45c"/>
    <path style="fill: rgb(255, 255, 255);" transform="matrix(-0.382665, -0.923887, 0.923887, -0.382665, 47.995705, 419.089032)" d="M 272.93 299.782 A 20.596 20.596 0 0 1 272.93 340.218 A 49.59 49.59 0 0 0 272.93 299.782 Z" bx:shape="crescent 269 320 20.596 158 0.7 1@08b2f45c"/>
    <path style="fill: rgb(255, 255, 255);" transform="matrix(0.923872, -0.382702, -0.382702, -0.923872, 342.792393, 504.120131)" d="M 272.93 299.782 A 20.596 20.596 0 0 1 272.93 340.218 A 49.59 49.59 0 0 0 272.93 299.782 Z" bx:shape="crescent 269 320 20.596 158 0.7 1@08b2f45c"/>
    <path style="fill: rgb(255, 255, 255);" transform="matrix(0.382665, -0.923887, -0.923887, -0.382665, 604.029929, 419.1078)" d="M 272.93 299.782 A 20.596 20.596 0 0 1 272.93 340.218 A 49.59 49.59 0 0 0 272.93 299.782 Z" bx:shape="crescent 269 320 20.596 158 0.7 1@08b2f45c"/>
  </g>
  <g style="filter: none;" transform="matrix(0.904613, 0, 0, 0.904613, 31.095921, 31.09601)">
    <title>shadows around handle</title>
    <rect x="480.082" y="-224.325" width="36" height="31.106" style="fill: url(#gradient-5);" transform="matrix(1, 0, 0, -1, 0, 0)"/>
    <rect x="-416.082" y="192.986" width="36" height="31.106" style="fill: url(#gradient-6);" transform="matrix(-1, 0, 0, 1, 0, 0)"/>
    <rect x="235.917" y="-224.091" width="36" height="31.106" style="fill: url(#gradient-7);" transform="matrix(1, 0, 0, -1, 0, 0)"/>
    <rect x="-171.917" y="192.986" width="36" height="31.106" style="fill: url(#gradient-8);" transform="matrix(-1, 0, 0, 1, 0, 0)"/>
  </g>
  <g style="clip-path: url(#clip-1); filter: none; visibility: hidden;" transform="matrix(0.952725, 0, 0, 0.952725, 15.411641, 15.411695)">
    <title>accents</title>
    <path d="M 230.896 270.48 L 421.103 270.48 C 449.331 270.48 472.215 293.363 472.215 321.591 L 472.215 511.798 C 472.215 540.026 449.331 562.91 421.103 562.91 L 230.896 562.91 C 202.668 562.91 179.785 540.026 179.785 511.798 L 179.785 321.591 C 179.785 293.363 202.668 270.48 230.896 270.48 Z M 198.797 313.355 L 198.797 339.668 C 198.797 352.848 209.481 363.532 222.66 363.532 L 248.973 363.532 C 262.152 363.532 272.836 352.848 272.836 339.668 L 272.836 313.355 C 272.836 300.176 262.152 289.492 248.973 289.492 L 222.66 289.492 C 209.481 289.492 198.797 300.176 198.797 313.355 Z M 288.992 313.355 L 288.992 339.668 C 288.992 352.848 299.676 363.532 312.856 363.532 L 339.169 363.532 C 352.348 363.532 363.032 352.848 363.032 339.668 L 363.032 313.355 C 363.032 300.176 352.348 289.492 339.169 289.492 L 312.856 289.492 C 299.676 289.492 288.992 300.176 288.992 313.355 Z M 379.165 313.355 L 379.165 339.668 C 379.165 352.848 389.849 363.532 403.028 363.532 L 429.341 363.532 C 442.521 363.532 453.205 352.848 453.205 339.668 L 453.205 313.355 C 453.205 300.176 442.521 289.492 429.341 289.492 L 403.028 289.492 C 389.849 289.492 379.165 300.176 379.165 313.355 Z M 198.797 402.802 L 198.797 429.115 C 198.797 442.294 209.481 452.978 222.66 452.978 L 248.973 452.978 C 262.152 452.978 272.836 442.294 272.836 429.115 L 272.836 402.802 C 272.836 389.622 262.152 378.938 248.973 378.938 L 222.66 378.938 C 209.481 378.938 198.797 389.622 198.797 402.802 Z M 288.981 403.539 L 288.981 429.852 C 288.981 443.032 299.665 453.716 312.844 453.716 L 339.157 453.716 C 352.336 453.716 363.021 443.032 363.021 429.852 L 363.021 403.539 C 363.021 390.36 352.336 379.676 339.157 379.676 L 312.844 379.676 C 299.665 379.676 288.981 390.36 288.981 403.539 Z M 379.165 402.802 L 379.165 429.115 C 379.165 442.294 389.849 452.978 403.028 452.978 L 429.341 452.978 C 442.521 452.978 453.205 442.294 453.205 429.115 L 453.205 402.802 C 453.205 389.622 442.521 378.938 429.341 378.938 L 403.028 378.938 C 389.849 378.938 379.165 389.622 379.165 402.802 Z M 198.797 493.723 L 198.797 520.036 C 198.797 533.216 209.481 543.9 222.66 543.9 L 248.973 543.9 C 262.152 543.9 272.836 533.216 272.836 520.036 L 272.836 493.723 C 272.836 480.544 262.152 469.86 248.973 469.86 L 222.66 469.86 C 209.481 469.86 198.797 480.544 198.797 493.723 Z M 288.992 493.723 L 288.992 520.036 C 288.992 533.216 299.676 543.9 312.856 543.9 L 339.169 543.9 C 352.348 543.9 363.032 533.216 363.032 520.036 L 363.032 493.723 C 363.032 480.544 352.348 469.86 339.169 469.86 L 312.856 469.86 C 299.676 469.86 288.992 480.544 288.992 493.723 Z M 379.165 493.723 L 379.165 520.036 C 379.165 533.216 389.849 543.9 403.028 543.9 L 429.341 543.9 C 442.521 543.9 453.205 533.216 453.205 520.036 L 453.205 493.723 C 453.205 480.544 442.521 469.86 429.341 469.86 L 403.028 469.86 C 389.849 469.86 379.165 480.544 379.165 493.723 Z" style="filter: url(#drop-shadow-filter-4); isolation: isolate;">
      <title>white accents</title>
    </path>
    <path d="M 230.896 270.48 L 421.103 270.48 C 449.331 270.48 472.215 293.363 472.215 321.591 L 472.215 511.798 C 472.215 540.026 449.331 562.91 421.103 562.91 L 230.896 562.91 C 202.668 562.91 179.785 540.026 179.785 511.798 L 179.785 321.591 C 179.785 293.363 202.668 270.48 230.896 270.48 Z M 198.797 313.355 L 198.797 339.668 C 198.797 352.848 209.481 363.532 222.66 363.532 L 248.973 363.532 C 262.152 363.532 272.836 352.848 272.836 339.668 L 272.836 313.355 C 272.836 300.176 262.152 289.492 248.973 289.492 L 222.66 289.492 C 209.481 289.492 198.797 300.176 198.797 313.355 Z M 288.992 313.355 L 288.992 339.668 C 288.992 352.848 299.676 363.532 312.856 363.532 L 339.169 363.532 C 352.348 363.532 363.032 352.848 363.032 339.668 L 363.032 313.355 C 363.032 300.176 352.348 289.492 339.169 289.492 L 312.856 289.492 C 299.676 289.492 288.992 300.176 288.992 313.355 Z M 379.165 313.355 L 379.165 339.668 C 379.165 352.848 389.849 363.532 403.028 363.532 L 429.341 363.532 C 442.521 363.532 453.205 352.848 453.205 339.668 L 453.205 313.355 C 453.205 300.176 442.521 289.492 429.341 289.492 L 403.028 289.492 C 389.849 289.492 379.165 300.176 379.165 313.355 Z M 198.797 402.802 L 198.797 429.115 C 198.797 442.294 209.481 452.978 222.66 452.978 L 248.973 452.978 C 262.152 452.978 272.836 442.294 272.836 429.115 L 272.836 402.802 C 272.836 389.622 262.152 378.938 248.973 378.938 L 222.66 378.938 C 209.481 378.938 198.797 389.622 198.797 402.802 Z M 288.981 403.539 L 288.981 429.852 C 288.981 443.032 299.665 453.716 312.844 453.716 L 339.157 453.716 C 352.336 453.716 363.021 443.032 363.021 429.852 L 363.021 403.539 C 363.021 390.36 352.336 379.676 339.157 379.676 L 312.844 379.676 C 299.665 379.676 288.981 390.36 288.981 403.539 Z M 379.165 402.802 L 379.165 429.115 C 379.165 442.294 389.849 452.978 403.028 452.978 L 429.341 452.978 C 442.521 452.978 453.205 442.294 453.205 429.115 L 453.205 402.802 C 453.205 389.622 442.521 378.938 429.341 378.938 L 403.028 378.938 C 389.849 378.938 379.165 389.622 379.165 402.802 Z M 198.797 493.723 L 198.797 520.036 C 198.797 533.216 209.481 543.9 222.66 543.9 L 248.973 543.9 C 262.152 543.9 272.836 533.216 272.836 520.036 L 272.836 493.723 C 272.836 480.544 262.152 469.86 248.973 469.86 L 222.66 469.86 C 209.481 469.86 198.797 480.544 198.797 493.723 Z M 288.992 493.723 L 288.992 520.036 C 288.992 533.216 299.676 543.9 312.856 543.9 L 339.169 543.9 C 352.348 543.9 363.032 533.216 363.032 520.036 L 363.032 493.723 C 363.032 480.544 352.348 469.86 339.169 469.86 L 312.856 469.86 C 299.676 469.86 288.992 480.544 288.992 493.723 Z M 379.165 493.723 L 379.165 520.036 C 379.165 533.216 389.849 543.9 403.028 543.9 L 429.341 543.9 C 442.521 543.9 453.205 533.216 453.205 520.036 L 453.205 493.723 C 453.205 480.544 442.521 469.86 429.341 469.86 L 403.028 469.86 C 389.849 469.86 379.165 480.544 379.165 493.723 Z" style="filter: url(#filter-2);">
      <title>black accents</title>
    </path>
  </g>
</svg>