<?xml version="1.0" encoding="utf-8"?>
<svg fill="#263238" viewBox="0 0 48 48" xmlns="http://www.w3.org/2000/svg">
  <path d="M 41.525 26.3 C 41.62 25.545 41.69 24.778 41.69 24 C 41.69 23.222 41.62 22.455 41.525 21.7 L 46.514 17.796 C 46.962 17.442 47.092 16.806 46.797 16.287 L 42.08 8.113 C 41.785 7.606 41.171 7.394 40.641 7.606 L 34.767 9.977 C 33.552 9.045 32.22 8.255 30.781 7.653 L 29.896 1.402 C 29.79 0.848 29.306 0.412 28.717 0.412 L 19.281 0.412 C 18.692 0.412 18.208 0.848 18.114 1.402 L 17.229 7.653 C 15.79 8.255 14.458 9.033 13.243 9.977 L 7.369 7.606 C 6.839 7.406 6.225 7.606 5.93 8.113 L 1.213 16.287 C 0.918 16.794 1.048 17.431 1.496 17.796 L 6.473 21.7 C 6.379 22.455 6.308 23.222 6.308 24 C 6.308 24.778 6.379 25.545 6.473 26.3 L 1.496 30.204 C 1.048 30.558 0.918 31.194 1.213 31.713 L 5.93 39.887 C 6.225 40.394 6.839 40.606 7.369 40.394 L 13.243 38.023 C 14.458 38.955 15.79 39.745 17.229 40.347 L 18.114 46.598 C 18.208 47.152 18.692 47.588 19.281 47.588 L 28.717 47.588 C 29.306 47.588 29.79 47.152 29.884 46.598 L 30.769 40.347 C 32.208 39.745 33.541 38.967 34.755 38.023 L 40.629 40.394 C 41.16 40.594 41.773 40.394 42.068 39.887 L 46.785 31.713 C 47.08 31.206 46.951 30.569 46.502 30.204 Z M 23.999 32.256 C 19.435 32.256 15.743 28.564 15.743 24 C 15.743 19.436 19.435 15.744 23.999 15.744 C 28.563 15.744 32.255 19.436 32.255 24 C 32.255 28.564 28.563 32.256 23.999 32.256 Z" style="fill: rgb(0, 0, 192);"/>
</svg>