<?xml version="1.0" encoding="utf-8"?>
<svg fill="#212121" viewBox="0 0 48 48" xmlns="http://www.w3.org/2000/svg">
  <path d="M 8.742 39.258 L 3.022 44.978 L 3.022 29.722 L 18.278 29.722 L 12.557 35.443 C 18.879 41.764 29.121 41.764 35.443 35.443 C 37.38 33.508 38.704 31.21 39.466 28.768 L 45.036 28.768 C 44.149 32.61 42.252 36.262 39.258 39.258 C 30.828 47.688 17.172 47.688 8.742 39.258 Z M 35.443 12.557 C 29.121 6.236 18.879 6.236 12.557 12.557 C 10.62 14.492 9.296 16.79 8.534 19.232 L 2.964 19.232 C 3.851 15.39 5.748 11.738 8.742 8.742 C 17.172 0.312 30.828 0.312 39.258 8.742 L 44.978 3.022 L 44.978 18.278 L 29.722 18.278 L 35.443 12.557 Z" style="fill: rgb(0, 123, 255);" transform="matrix(-1, 0, 0, -1, 47.999999, 47.999996)"/>
  <circle style="fill: rgb(0, 123, 255);" cx="24" cy="24" r="3.985"/>
</svg>