<?xml version="1.0" encoding="utf-8"?>
<svg fill="#263238" viewBox="0 -1.19 183.692 49.19" xmlns="http://www.w3.org/2000/svg">
  <path d="M 41.525 25.705 C 41.62 24.95 41.69 24.183 41.69 23.405 C 41.69 22.627 41.62 21.86 41.525 21.105 L 46.514 17.201 C 46.962 16.847 47.092 16.211 46.797 15.692 L 42.08 7.518 C 41.785 7.011 41.171 6.799 40.641 7.011 L 34.767 9.382 C 33.552 8.45 32.22 7.66 30.781 7.058 L 29.896 0.807 C 29.79 0.253 29.306 -0.183 28.717 -0.183 L 19.281 -0.183 C 18.692 -0.183 18.208 0.253 18.114 0.807 L 17.229 7.058 C 15.79 7.66 14.458 8.438 13.243 9.382 L 7.369 7.011 C 6.839 6.811 6.225 7.011 5.93 7.518 L 1.213 15.692 C 0.918 16.199 1.048 16.836 1.496 17.201 L 6.473 21.105 C 6.379 21.86 6.308 22.627 6.308 23.405 C 6.308 24.183 6.379 24.95 6.473 25.705 L 1.496 29.609 C 1.048 29.963 0.918 30.599 1.213 31.118 L 5.93 39.292 C 6.225 39.799 6.839 40.011 7.369 39.799 L 13.243 37.428 C 14.458 38.36 15.79 39.15 17.229 39.752 L 18.114 46.003 C 18.208 46.557 18.692 46.993 19.281 46.993 L 28.717 46.993 C 29.306 46.993 29.79 46.557 29.884 46.003 L 30.769 39.752 C 32.208 39.15 33.541 38.372 34.755 37.428 L 40.629 39.799 C 41.16 39.999 41.773 39.799 42.068 39.292 L 46.785 31.118 C 47.08 30.611 46.951 29.974 46.502 29.609 Z M 23.999 31.661 C 19.435 31.661 15.743 27.969 15.743 23.405 C 15.743 18.841 19.435 15.149 23.999 15.149 C 28.563 15.149 32.255 18.841 32.255 23.405 C 32.255 27.969 28.563 31.661 23.999 31.661 Z" style="fill: rgb(116, 116, 244);"/>
  <text style="fill: rgb(51, 51, 51); fill-opacity: 0.48; font-family: &quot;Product Sans Medium&quot;; font-size: 31.1px; white-space: pre;" x="57.224" y="34.316">Settings</text>
</svg>