<?xml version="1.0" encoding="utf-8"?>
<svg viewBox="0 0 20.001 20.001" xmlns="http://www.w3.org/2000/svg" xmlns:bx="https://boxy-svg.com">
  <circle style="stroke: rgb(0, 0, 0);" cx="10" cy="10" r="8.702"/>
  <circle style="fill: rgb(0, 255, 0); fill-opacity: 0.14;" cx="10" cy="10" r="10"/>
  <path d="M 534 337 m -10 0 a 10 10 0 1 0 20 0 a 10 10 0 1 0 -20 0 Z M 534 337 m -8.107 0 a 8.107 8.107 0 0 1 16.214 0 a 8.107 8.107 0 0 1 -16.214 0 Z" style="fill: rgb(0, 187, 0);" transform="matrix(1, -0.000043, 0.000043, 1, -524.014488, -326.977039)" bx:shape="ring 534 337 8.107 8.107 10 10 1@5d82d7ed"/>
  <path d="M 12.615 3.28 L 12.615 14.384 L 7.063 14.384" style="stroke: rgb(0, 255, 0); fill: none; stroke-linejoin: round; stroke-linecap: round; filter: none; stroke-width: 2px;" transform="matrix(0.707157, 0.707057, -0.707057, 0.707157, 9.12601, -4.37034)"/>
</svg>