<?xml version="1.0" encoding="utf-8"?>
<svg fill="#00BCD4" height="48" viewBox="0 0 48 48" width="48" xmlns="http://www.w3.org/2000/svg">
  <path d="M 28 4 L 12 4 C 9.79 4 8.02 5.79 8.02 8 L 8 40 C 8 42.21 9.77 44 11.98 44 L 36 44 C 38.21 44 40 42.21 40 40 L 40 16 L 28 4 Z" style="fill: rgb(0, 123, 255);"/>
  <path d="M 26 18 L 26 7 L 37 18 L 26 18 Z" style="fill: rgb(255, 255, 255);"/>
  <path d="M 32 28 L 16 28 L 16 24 L 32 24 L 32 28 Z" style="fill: rgb(255, 255, 255);"/>
  <path d="M 32 36 L 16 36 L 16 32 L 32 32 L 32 36 Z" style="fill: rgb(255, 255, 255);"/>
</svg>